<?xml version="1.0" standalone="no"?>
<!DOCTYPE svg PUBLIC "-//W3C//DTD SVG 1.1//EN" "http://www.w3.org/Graphics/SVG/1.1/DTD/svg11.dtd" >
<svg xmlns="http://www.w3.org/2000/svg" xmlns:xlink="http://www.w3.org/1999/xlink" version="1.1">
<metadata>
Created by FontForge 20201107 at Fri Oct 30 16:40:11 2020
 By www-data
(c) Copyright  www.fontqu.com
</metadata>
<defs>
<font id="ZiZhiQuXiMaiTi" horiz-adv-x="925" >
  <font-face 
    font-family="ZiZhiQuXiMaiTi"
    font-weight="500"
    font-stretch="normal"
    units-per-em="1000"
    panose-1="2 0 6 3 0 0 0 0 0 0"
    ascent="800"
    descent="-200"
    x-height="615"
    cap-height="800"
    bbox="-38 -277 1039 940"
    underline-thickness="50"
    underline-position="-125"
    unicode-range="U+001D-FFE5"
  />
<missing-glyph horiz-adv-x="1000" 
d="M850 30h-700v700h700v-700zM190 660v-560l280 280zM220 70h560l-280 280zM500 410l280 280h-560zM810 100v560l-280 -280z" />
    <glyph glyph-name=".notdef" horiz-adv-x="1000" 
d="M850 30h-700v700h700v-700zM190 660v-560l280 280zM220 70h560l-280 280zM500 410l280 280h-560zM810 100v560l-280 -280z" />
    <glyph glyph-name=".null" horiz-adv-x="0" 
 />
    <glyph glyph-name=".null" horiz-adv-x="0" 
 />
    <glyph glyph-name="nonmarkingreturn" horiz-adv-x="250" 
 />
    <glyph glyph-name="space" unicode=" " horiz-adv-x="250" 
 />
    <glyph glyph-name="numbersign" unicode="#" horiz-adv-x="578" 
d="M481 421l-19 -162h93v-108h-105l-23 -201l-108 13l22 188h-151l-23 -201l-107 13l21 188h-58v108h71l18 162h-88v108h101l21 183l107 -12l-20 -171h152l21 183l107 -12l-20 -171h62v-108h-74zM372 421h-151l-19 -162h152z" />
    <glyph glyph-name="dollar" unicode="$" horiz-adv-x="601" 
d="M346 471v-134h184v-422h-184v-172h-79v172h-196v144h196v134h-186v422h186v125h79v-125h149v-144h-149zM346 193v-134h40v134h-40zM267 471h-42v-134h42v134z" />
    <glyph glyph-name="percent" unicode="%" horiz-adv-x="714" 
d="M111 -13l349 742l130 -61l-349 -742zM183 711q49 -7 76.5 -58t27.5 -136t-27 -139.5t-75 -64.5q-4 -1 -13 -1h-10q-29 0 -52.5 15.5t-40 42.5t-26 64.5t-9.5 82.5q0 43 9 78.5t25.5 61.5t39.5 40.5t50 14.5h15.5t9.5 -1zM565 -51q-6 0 -11 1q-28 0 -51.5 15.5t-40 42.5
t-26 64.5t-9.5 81.5q0 43 9 79t25.5 61.5t39.5 40t50 14.5h25q48 -8 75.5 -59t27.5 -136t-27 -139.5t-74 -64.5q-4 -1 -13 -1zM158 384q4 0 8.5 -0.5t7.5 0.5q6 1 13 10.5t13 26.5t10.5 41.5t4.5 54.5q0 57 -13.5 89t-28.5 34h-15q-19 0 -35.5 -34t-16.5 -89q0 -30 5 -55
t13 -42t17 -26.5t17 -9.5zM499 154q0 -30 5 -55t13 -42t17 -26.5t17 -9.5h16q6 1 13 10.5t13 26.5t10 41.5t4 54.5q0 57 -13 89t-29 34h-14q-19 0 -35.5 -33.5t-16.5 -89.5z" />
    <glyph glyph-name="ampersand" unicode="&#x26;" horiz-adv-x="808" 
d="M534 -94l-49 70q-25 -37 -71 -62.5t-112 -25.5q-55 0 -99.5 17t-76 49t-48.5 79.5t-17 109.5q0 86 39.5 144.5t100.5 90.5q-29 39 -45 83t-16 95q0 52 17.5 93.5t48 70t72 44t89.5 15.5q46 0 84.5 -14t66.5 -40.5t43.5 -65.5t15.5 -90q0 -41 -12.5 -74t-34 -60.5
t-49.5 -49.5t-59 -41l71 -99l59 126h181l-137 -255l151 -210h-213zM421 558q0 35 -13.5 58.5t-39.5 23.5q-28 0 -43.5 -25.5t-15.5 -58.5q0 -31 10.5 -58.5t30.5 -51.5q28 18 49.5 46t21.5 66zM284 260q-16 -9 -33 -36.5t-17 -68.5q0 -50 22.5 -79.5t61.5 -29.5
q31 0 49 18.5t26 37.5z" />
    <glyph glyph-name="quotesingle" unicode="'" horiz-adv-x="264" 
d="M60 872h144v-319h-144v319z" />
    <glyph glyph-name="parenleft" unicode="(" horiz-adv-x="429" 
d="M353 794q-3 -3 -18 -25t-35 -60t-41 -90.5t-36 -117t-19.5 -139.5t8 -158t47 -173.5t97.5 -184.5l-120 -80q-74 111 -113.5 217.5t-53.5 205.5t-7 188.5t25.5 166t44.5 139t49.5 106.5t40 68t17.5 25z" />
    <glyph glyph-name="parenright" unicode=")" horiz-adv-x="432" 
d="M158 882q1 -1 17.5 -25t40 -68t49.5 -106.5t44.5 -139t25.5 -166t-7 -188.5t-53.5 -205.5t-113.5 -217.5l-119 80q63 95 97 186t46 175t6.5 160t-20.5 141t-36.5 117.5t-41 89.5t-33.5 57.5t-15 21.5z" />
    <glyph glyph-name="asterisk" unicode="*" horiz-adv-x="540" 
d="M324 780v-136l112 29l27 -105l-111 -28l75 -129l-93 -54l-61 104l-51 -102l-96 49l68 136l-119 42l36 101l105 -37v130h108z" />
    <glyph glyph-name="plus" unicode="+" horiz-adv-x="751" 
d="M122 394h181v223h144v-223h182v-144h-182v-225h-144v225h-181v144z" />
    <glyph glyph-name="comma" unicode="," horiz-adv-x="308" 
d="M40 -84q20 13 35.5 45.5t25.5 73t15.5 83.5t6.5 78l144 -3q0 -13 -1.5 -41t-7 -65t-15 -79t-26 -82t-41 -74.5t-58.5 -56.5l-78 121v0z" />
    <glyph glyph-name="hyphen" unicode="-" horiz-adv-x="376" 
d="M44 425h287v-144h-287v144z" />
    <glyph glyph-name="period" unicode="." horiz-adv-x="295" 
d="M74 241h144v-225h-144v225z" />
    <glyph glyph-name="slash" unicode="/" horiz-adv-x="450" 
d="M33 -10l248 809l138 -42l-248 -809z" />
    <glyph glyph-name="zero" unicode="0" horiz-adv-x="606" 
d="M57 361q0 85 18.5 158t51.5 126t78 83.5t98 30.5q52 0 97 -30.5t78 -83.5t51.5 -126t18.5 -158q0 -83 -18.5 -152.5t-51 -120t-77.5 -79t-98 -28.5q-54 0 -99 28.5t-77.5 79t-51 120t-18.5 152.5zM405 361q0 57 -10.5 104t-25.5 80.5t-33 51.5t-33 18t-33 -18
t-33.5 -51.5t-25.5 -80.5t-10 -104q0 -58 10 -102t25 -74t33 -45t34 -15t34 15t33 45t25 74t10 102z" />
    <glyph glyph-name="one" unicode="1" horiz-adv-x="581" 
d="M330 754h129v-768h-180v566l-108 -31l-50 172z" />
    <glyph glyph-name="two" unicode="2" horiz-adv-x="602" 
d="M294 143h237v-180h-461v198l266 301q0 30 -6 50t-17 28t-29.5 9.5t-39.5 -1.5t-42.5 -9t-37.5 -13l-74 164l22.5 9t43.5 14t58 12.5t66.5 4.5t69 -10.5t66.5 -31.5q113 -79 99 -267l-2 -30z" />
    <glyph glyph-name="three" unicode="3" horiz-adv-x="594" 
d="M505 528q0 -35 -13 -83t-48 -93q35 -45 48 -93.5t13 -82.5l-1 -14q-7 -40 -20.5 -69.5t-30 -51t-35 -35t-35.5 -22.5q-26 -12 -52.5 -17t-52.5 -5q-35 0 -67 6.5t-57.5 15t-42.5 16.5t-21 10l84 160q13 -7 31 -13.5t36.5 -10.5t35 -4.5t26.5 4.5q9 4 14 15.5t7 22.5
q0 6 -2 16t-7.5 21.5t-15 22t-24.5 18.5h-122v180h122q15 7 24.5 17.5t14.5 21.5t7.5 21t2.5 16q-8 32 -25 40q-12 5 -29 4t-34.5 -5t-34 -10.5t-26.5 -11.5l-86 158q6 3 34 16t68.5 22.5t88.5 10t94 -20.5q17 -8 36 -21.5t37 -34.5t32.5 -50.5t23.5 -69.5z" />
    <glyph glyph-name="four" unicode="4" horiz-adv-x="607" 
d="M203 266h134v198h144v-198h71v-144h-71v-153h-144v153h-282v175l272 474l125 -71z" />
    <glyph glyph-name="five" unicode="5" horiz-adv-x="596" 
d="M321 160q15 14 23 31t11 32.5t3 26v10.5q-4 34 -14 45t-14 14q-12 7 -29 9t-34.5 0.5t-32.5 -5t-24 -6.5l-54 -21l-69 105l52 355h341v-144h-217l-21 -141q37 4 80.5 -0.5t83.5 -29.5q14 -9 29.5 -22.5t28.5 -34t23 -48t14 -63.5q1 -5 1 -28t-7 -55t-24.5 -68.5
t-52.5 -67.5q-77 -70 -210 -70q-59 0 -124 13l28 141q74 -14 127 -8.5t82 30.5z" />
    <glyph glyph-name="six" unicode="6" horiz-adv-x="606" 
d="M420 589l-13 -1t-32 -6t-41.5 -16t-41.5 -30q-9 -10 -17 -21t-14 -25q114 16 188 -44q37 -30 55.5 -68.5t26 -75.5t6.5 -67.5t-2 -43.5q-2 -91 -60 -149q-26 -26 -56.5 -40.5t-57.5 -21.5t-46.5 -8.5t-23.5 -1.5q-37 1 -66 9t-51 19t-38 24t-26 26q-18 21 -28.5 43.5
t-15 42t-5 35.5t-0.5 25v175q-3 187 105 295q39 39 81.5 60.5t79.5 31t63 11.5t32 2zM355 202q1 12 1.5 27.5t-1.5 30.5t-6.5 27.5t-12.5 18.5q-8 7 -31.5 7.5t-63.5 -11.5v-120q-1 -3 -0.5 -8t5 -10t15.5 -9t31 -5q11 0 22.5 2.5t20.5 7.5t14.5 13.5t5.5 22.5v6z" />
    <glyph glyph-name="seven" unicode="7" horiz-adv-x="596" 
d="M159 45l166 524h-239v180h422v-196l-177 -562z" />
    <glyph glyph-name="eight" unicode="8" horiz-adv-x="602" 
d="M70 195q0 67 36 121t93 82q-45 26 -72 71.5t-27 101.5q0 41 16 77.5t43 63.5t63.5 43t78.5 16q41 0 77.5 -16t63.5 -43t43 -63.5t16 -77.5q0 -56 -27 -101.5t-72 -71.5q58 -28 94 -82t36 -121q0 -47 -18 -88t-49.5 -72t-73.5 -48.5t-90 -17.5t-90 17.5t-73.5 48.5
t-49.5 72t-18 88zM301 113q36 0 61.5 24t25.5 58t-25.5 58t-61.5 24t-61.5 -24t-25.5 -58t25.5 -58t61.5 -24zM301 645q-31 0 -53 -21.5t-22 -53.5q0 -31 22 -52.5t53 -21.5t53 21.5t22 52.5q0 32 -22 53.5t-53 21.5z" />
    <glyph glyph-name="nine" unicode="9" horiz-adv-x="606" 
d="M287 236q-47 0 -88 20.5t-72 56t-48.5 83.5t-17.5 102t17.5 102t48.5 84t72 56.5t88 20.5q46 0 86.5 -20t71.5 -54.5t49 -81.5t19 -100q1 -8 3 -32t2 -59.5t-4 -78t-15 -87t-31.5 -88t-52.5 -79.5q-92 -103 -248 -103h-15l4 144q78 -3 123.5 31t68.5 92q-30 -9 -61 -9z
M287 617q-17 0 -32 -9.5t-26 -25.5t-17.5 -38t-6.5 -46t6.5 -45.5t17.5 -38t26 -26t32 -9.5t32 9.5t26.5 26t18 38t6.5 45.5t-6.5 45.5t-18 38t-26.5 26t-32 9.5z" />
    <glyph glyph-name="colon" unicode=":" horiz-adv-x="324" 
d="M90 563h144v-229h-144v229zM90 200h144v-228h-144v228z" />
    <glyph glyph-name="semicolon" unicode=";" horiz-adv-x="338" 
d="M138 563h144v-229h-144v229zM55 -113q20 13 35.5 45.5t25.5 73t15.5 83.5t6.5 78l144 -2q0 -13 -1.5 -41t-6.5 -65t-15 -79t-26.5 -82t-41 -75t-58.5 -57z" />
    <glyph glyph-name="less" unicode="&#x3c;" horiz-adv-x="759" 
d="M657 500l-408 -193l409 -205l-64 -128l-493 246v176l494 234z" />
    <glyph glyph-name="equal" unicode="=" horiz-adv-x="750" 
d="M122 521h505v-144h-505v144zM122 214h505v-144h-505v144z" />
    <glyph glyph-name="greater" unicode="&#x3e;" horiz-adv-x="758" 
d="M102 103l407 193l-409 204l64 129l493 -246v-176l-494 -234z" />
    <glyph glyph-name="question" unicode="?" horiz-adv-x="495" 
d="M386 697q40 -40 45 -107.5t-31 -147.5l-114 -219l-128 66l112 216q18 47 17 68t-3 24q-7 7 -26.5 8.5t-46 -1t-57.5 -9.5t-60 -18l-50 136q10 3 32.5 10.5t52.5 14t64.5 10t69.5 0.5t67 -14.5t56 -36.5zM152 184h144v-207h-144v207z" />
    <glyph glyph-name="at" unicode="@" horiz-adv-x="824" 
d="M649 662q62 -54 95.5 -131.5t33.5 -166.5q0 -54 -9.5 -95t-24 -71t-31.5 -50t-30 -32q-22 -19 -48 -23t-52 2.5t-48.5 21t-37.5 32.5q-30 -32 -59 -43.5t-53 -11.5q-12 0 -23 2t-20 5q-37 14 -61.5 45t-30.5 73q-29 192 62 257q23 16 47.5 22t48 5.5t44.5 -5.5t36 -10
q5 19 9.5 31.5t6.5 17.5l101 -37q-12 -32 -22 -72t-15 -79.5t-3 -74t14 -54.5q5 -7 12 -12.5t24 -7.5q6 5 15.5 16.5t18.5 31t15.5 48t6.5 67.5q-1 66 -24.5 122.5t-67.5 94.5q-32 29 -65.5 40.5t-72.5 9.5q-45 -2 -81.5 -19t-65 -41.5t-48.5 -52.5t-33 -52t-19 -40l-6 -16
q0 -1 -6 -19t-12 -47t-10.5 -65.5t-2.5 -74.5t13.5 -75t36.5 -66q96 -111 382 -57l20 -106q-51 -10 -97 -14.5t-88 -4.5q-203 0 -299 112q-35 41 -52 90t-21.5 98t0 95.5t11.5 83t14.5 59.5t8.5 26q1 2 9.5 24t26 53.5t45 68t66 68.5t89 54t114.5 25q117 9 213 -75zM378 203
q15 -5 36 14.5t43 59.5q-1 26 1 52t6 52q-8 4 -19.5 7.5t-24.5 5.5t-25 1t-20 -7q-3 -2 -8.5 -10t-10 -25t-5 -45.5t5.5 -72.5q2 -11 7.5 -20t13.5 -12z" />
    <glyph glyph-name="A" unicode="A" horiz-adv-x="707" 
d="M463 773l226 -702l-137 -44l-56 175h-275l-53 -183l-138 40l208 714h225zM411 345l-91 284h-13l-83 -284h187z" />
    <glyph glyph-name="B" unicode="B" horiz-adv-x="582" 
d="M465 424q15 -13 30 -30t27.5 -37t21.5 -44t11 -51q9 -117 -115 -217l-20 -16h-203v-1h-144v750h321l18 -12q4 -3 22 -17t38.5 -38t37.5 -57t19 -75q3 -83 -64 -155zM217 634v-125h130q14 13 26.5 30t11.5 34t-13 33.5t-24 27.5h-131zM368 173q18 17 31.5 37t11.5 40
q-1 12 -7 24t-15 22.5t-19 19.5t-19 15h-134v-158h151z" />
    <glyph glyph-name="C" unicode="C" horiz-adv-x="547" 
d="M244 607q-66 -42 -69 -185q-1 -19 1 -51.5t9.5 -67t23 -66.5t41.5 -51q64 -46 198 7l53 -134q-95 -38 -177 -38q-92 0 -159 49q-36 26 -60 61t-39 72.5t-22.5 75t-10 68.5t-2.5 52.5t1 27.5q5 218 135 302q52 33 108 39.5t104.5 0t82.5 -18.5t42 -15l-58 -132
q-13 6 -37 13t-53 10t-58.5 -0.5t-53.5 -18.5z" />
    <glyph glyph-name="D" unicode="D" horiz-adv-x="637" 
d="M492 705q120 -102 111 -313q0 -9 -2.5 -35.5t-12.5 -63t-31 -77.5t-58 -78q-101 -101 -278 -109v-1h-144v747h123q17 3 50 4.5t73.5 -4t85 -21.5t83.5 -49zM459 395q6 143 -59 199q-23 19 -50.5 28t-53 12t-46 1t-29.5 -3v-459q116 6 176 66q23 23 35.5 49t18.5 48.5
t7 38.5t1 20z" />
    <glyph glyph-name="E" unicode="E" horiz-adv-x="523" 
d="M203 622v-143h251v-144h-251v-143h280v-144h-424v718h417v-144h-273z" />
    <glyph glyph-name="F" unicode="F" horiz-adv-x="510" 
d="M206 620v-170h234v-144h-234v-278h-144v736h395v-144h-251z" />
    <glyph glyph-name="G" unicode="G" horiz-adv-x="599" 
d="M172 70q-36 26 -60.5 61t-39.5 72.5t-22.5 75t-10 68.5t-2.5 52.5t1 28.5q2 108 35.5 183.5t99.5 117.5q35 22 72 32t72.5 11.5t68.5 -3.5t58.5 -11.5t43 -13t22.5 -8.5l-57 -133q-13 6 -37.5 13t-53.5 10t-58.5 0t-53.5 -18q-65 -42 -68 -186q-1 -19 0.5 -51.5t9.5 -67
t23 -66.5t41 -51q45 -33 128 -15v161h-89v144h233v-471h-144v20q-14 -2 -27.5 -3.5t-26.5 -1.5q-90 0 -158 50z" />
    <glyph glyph-name="H" unicode="H" horiz-adv-x="697" 
d="M229 28h-144v750h144v-278h239v278h144v-750h-144v328h-239v-328z" />
    <glyph glyph-name="I" unicode="I" horiz-adv-x="311" 
d="M83 800h144v-749h-144v749z" />
    <glyph glyph-name="J" unicode="J" horiz-adv-x="414" 
d="M326 87q0 -6 -3 -29t-13.5 -52t-31 -59.5t-55.5 -51.5q-47 -28 -101 -28q-62 0 -140 35l60 131q74 -34 106 -15q9 5 15 14t10 19.5t6 21t3 17.5v709h144v-712v0z" />
    <glyph glyph-name="K" unicode="K" horiz-adv-x="630" 
d="M218 430l389 -259l-80 -120l-327 217v-219h-143v750h143v-195l234 196l92 -110z" />
    <glyph glyph-name="L" unicode="L" horiz-adv-x="491" 
d="M187 201h258v-144h-402v743h144v-599z" />
    <glyph glyph-name="M" unicode="M" horiz-adv-x="887" 
d="M642 49v605h-4l-111 -487h-171l-109 487h-5v-605h-144v749h264l80 -357l81 357h263v-749h-144z" />
    <glyph glyph-name="N" unicode="N" horiz-adv-x="695" 
d="M69 49v747h244l168 -519v521h144v-746h-222l-190 585v-588h-144z" />
    <glyph glyph-name="O" unicode="O" horiz-adv-x="716" 
d="M364 35q-9 0 -20.5 -0.5t-17.5 -0.5q-9 0 -14 0.5t-9 0.5q-60 6 -107.5 35.5t-81.5 79t-52 116.5t-18 148t18.5 150t52 121t81 85t104.5 42q7 1 25.5 1t37.5 -1q65 0 121.5 -31t98 -84.5t65.5 -126t24 -156.5q0 -83 -23 -152.5t-64 -119.5t-97.5 -78.5t-123.5 -28.5z
M363 178q36 0 66.5 17.5t52 49t34 75t12.5 94.5q0 52 -13 98.5t-35.5 81t-52.5 54.5t-64 20l-13 1h-32q-29 -4 -52.5 -25t-41 -54.5t-27 -78.5t-9.5 -97q0 -41 7 -81.5t22 -73.5t40 -55t61 -26h45z" />
    <glyph glyph-name="P" unicode="P" horiz-adv-x="566" 
d="M191 799q25 1 60 -0.5t74 -10t77.5 -26t70.5 -47.5q14 -14 28.5 -33.5t25 -46t16 -60t1.5 -74.5q0 -4 -2.5 -23.5t-12.5 -46.5t-30 -57.5t-54 -56.5q-71 -56 -181 -56q-15 0 -31 1t-33 3v-216h-143v750h134zM401 512q2 25 -0.5 42.5t-7.5 29t-10.5 18t-8.5 9.5
q-15 15 -37.5 24t-46.5 13.5t-47.5 6t-42.5 1.5v-245q39 -7 82.5 -5.5t74.5 24.5q15 11 23.5 25t13 26.5t6 21.5z" />
    <glyph glyph-name="Q" unicode="Q" horiz-adv-x="725" 
d="M367 36q-9 -1 -20.5 -1h-17.5q-17 0 -22 1q-60 6 -108 35.5t-81.5 79t-51.5 116.5t-18 148t18.5 150t52 121t81 85t104.5 41q7 2 25.5 2t37.5 -1q65 0 121.5 -31t98 -84.5t65.5 -126.5t24 -157q0 -56 -11 -106t-31.5 -93t-49 -77t-64.5 -57l69 -113l-124 -75l-86 143h-12
zM446 205q39 29 62.5 83.5t23.5 126.5q0 52 -13 98.5t-35.5 81t-52.5 54.5t-64 20h-13q-6 1 -12.5 1h-11.5h-8q-29 -5 -52.5 -26t-41 -54.5t-27 -78t-9.5 -96.5q0 -35 5 -70.5t16.5 -66.5t30 -54.5t44.5 -35.5l-14 22l124 74z" />
    <glyph glyph-name="R" unicode="R" horiz-adv-x="628" 
d="M441 317q-2 -2 -6 -4l141 -219l-121 -78l-159 246q-9 -1 -18 -1h-18q-16 0 -31.5 1t-32.5 3v-216h-144v750h135q25 1 60 -0.5t74 -10t77.5 -26t70.5 -47.5q14 -14 28.5 -33.5t25 -46t16 -60t1.5 -74.5q0 -4 -2.5 -23.5t-12.5 -46.5t-30 -57.5t-54 -56.5zM196 411
q19 -3 40 -5t41.5 -0.5t40 7t34.5 17.5q15 11 23.5 25t13.5 27q5 15 7 30q3 25 0 42.5t-7.5 29t-10.5 18t-9 9.5q-15 15 -37 24t-46 13.5t-47.5 6t-42.5 1.5v-245z" />
    <glyph glyph-name="S" unicode="S" horiz-adv-x="541" 
d="M362 218q0 7 -2.5 22t-13 30.5t-30.5 29.5t-55 19q-66 10 -109.5 39t-69 65.5t-36.5 74t-11 64.5q-1 38 10.5 69t29 54t38.5 38t38 22q54 21 109 21t100.5 -9.5t76.5 -21.5t38 -15l-61 -131q-12 6 -36 14t-53 13t-60.5 5.5t-58.5 -9.5q-2 -2 -7 -5.5t-9.5 -9t-7.5 -14
t-3 -18.5q0 -8 3.5 -23t14 -31.5t31 -30.5t55.5 -19q66 -10 109.5 -39t68.5 -65t35 -74t10 -65q1 -37 -10 -67t-28 -52.5t-37 -38t-36 -23.5q-30 -13 -61 -18t-62 -5q-38 0 -73.5 6.5t-63 14.5t-46 15.5t-23.5 9.5l61 131q13 -6 37 -14.5t53 -14t59.5 -5.5t56.5 10
q5 3 17.5 15t11.5 32v4z" />
    <glyph glyph-name="T" unicode="T" horiz-adv-x="573" 
d="M47 750h484v-144h-170v-590h-144v590h-170v144z" />
    <glyph glyph-name="U" unicode="U" horiz-adv-x="672" 
d="M327 13q-78 0 -128.5 25t-80.5 60t-42.5 72.5t-13.5 61.5v535h144v-532q1 -8 6 -21.5t18.5 -26.5t38.5 -22.5t66 -8.5l1 -17v17q42 -1 67.5 9t39 23.5t17.5 27t5 18.5v533h144v-540q-2 -23 -14.5 -59.5t-42.5 -71t-80.5 -59.5t-127.5 -25q-2 0 -4.5 0.5t-4.5 0.5h-8v0z
" />
    <glyph glyph-name="V" unicode="V" horiz-adv-x="650" 
d="M497 785l139 -39l-204 -725h-226l-193 726l139 37l165 -619h6z" />
    <glyph glyph-name="W" unicode="W" horiz-adv-x="940" 
d="M752 779l142 -24l-120 -733h-232l-71 395l-67 -395h-238l-121 733l142 24l98 -595l87 514h195l90 -503z" />
    <glyph glyph-name="X" unicode="X" horiz-adv-x="636" 
d="M429 396l177 -357l-125 -64l-160 325l-161 -325l-125 64l177 357l-159 335l126 62l142 -300l141 300l126 -62z" />
    <glyph glyph-name="Y" unicode="Y" horiz-adv-x="636" 
d="M584 728l-196 -380v-332h-144v331l-208 380l126 69l152 -277l143 275z" />
    <glyph glyph-name="Z" unicode="Z" horiz-adv-x="545" 
d="M480 570l-294 -400h346v-144h-520v151l315 428h-303v143h456v-178z" />
    <glyph glyph-name="bracketleft" unicode="[" horiz-adv-x="321" 
d="M185 728v-730h95v-144h-239v1018h239v-144h-95z" />
    <glyph glyph-name="backslash" unicode="\" horiz-adv-x="523" 
d="M18 793l136 50l335 -919l-135 -50z" />
    <glyph glyph-name="bracketright" unicode="]" horiz-adv-x="322" 
d="M137 -5v730h-96v144h240v-1018h-240v144h96z" />
    <glyph glyph-name="asciicircum" unicode="^" horiz-adv-x="562" 
d="M279 619l-91 -269l-136 46l136 404h184l130 -405l-136 -44z" />
    <glyph glyph-name="underscore" unicode="_" horiz-adv-x="578" 
d="M58 -62h460v-144h-460v144z" />
    <glyph glyph-name="grave" unicode="`" horiz-adv-x="315" 
d="M35 792l107 95l138 -156l-108 -95z" />
    <glyph glyph-name="a" unicode="a" horiz-adv-x="535" 
d="M330 400v27q-11 31 -24.5 41t-18.5 12q-17 7 -38 7t-41.5 -4t-37 -10t-24.5 -10l-64 129q5 3 30 13.5t62 18t81 7.5t88 -19q16 -7 34 -18.5t35 -29.5t32.5 -43.5t26.5 -60.5l3 -10v-421h-144v23q-71 -33 -129 -33q-44 0 -81 18q-33 16 -52.5 41t-29 48.5t-12.5 42
t-3 22.5q-4 54 9.5 92t36 62.5t49.5 36.5t51 14zM184 166q2 -1 10.5 -2.5t25.5 2t44 14.5t66 35v41l-149 -3q-6 -2 -9.5 -9t-5 -15t-1 -16t0.5 -12q1 -4 4.5 -17t13.5 -18z" />
    <glyph glyph-name="b" unicode="b" horiz-adv-x="583" 
d="M419 612q18 -7 37 -20t37 -34.5t32 -54t22 -78.5q3 -21 3 -46v-87q0 -54 -17 -103t-49 -87t-71.5 -58t-83.5 -21h-4q-59 0 -118 34v-28h-144v818h144v-263q47 24 102.5 36t109.5 -8zM406 379q0 13 -2 28.5t-6.5 30t-12 25t-17.5 14.5q-13 5 -33 1t-42 -13t-44.5 -22.5
t-41.5 -26.5v-177q23 -24 42 -38t34 -21.5t25.5 -10t17.5 -2.5q5 0 18 3.5t30 24.5q32 38 32 97v87z" />
    <glyph glyph-name="c" unicode="c" horiz-adv-x="500" 
d="M169 335q-1 -10 0 -28.5t6 -39t15 -40.5t27 -33q18 -14 41.5 -18.5t49.5 -3t52.5 7t49.5 13.5l43 -138q-87 -27 -158 -27q-100 0 -167 54q-41 32 -62.5 73.5t-30.5 80t-10 68.5t0 40q1 48 11 84.5t25.5 63.5t33.5 45.5t36 30.5q47 33 100.5 41t101 4t81 -13t41.5 -12
l-48 -136q-12 4 -36.5 10t-53 8t-56.5 -2t-49 -18q-4 -3 -11 -9t-13.5 -18.5t-12 -32.5t-6.5 -51v-4z" />
    <glyph glyph-name="d" unicode="d" horiz-adv-x="575" 
d="M241 23q-45 1 -84.5 21t-71.5 58t-49 87t-17 103v87q0 25 3 46q7 46 21.5 78.5t32.5 54t37.5 34.5t37.5 20q27 10 54.5 11.5t55 -3.5t53.5 -14.5t49 -21.5v263h143v-818h-143v28q-62 -34 -119 -34h-3zM163 292q0 -59 32 -96q17 -21 30 -25t18 -4q7 0 18 2.5t25.5 10
t33.5 22t42 37.5v177q-19 14 -41.5 27t-44.5 22.5t-42 13.5t-33 -1q-9 -3 -15 -12.5t-10.5 -21t-7.5 -23.5t-4 -19q-1 -5 -1 -10.5v-12.5v-87z" />
    <glyph glyph-name="e" unicode="e" horiz-adv-x="555" 
d="M172 256q22 -76 95 -84t187 34l49 -135q-118 -44 -210 -44q-99 0 -169 52q-41 31 -62.5 71.5t-31 78t-10.5 67t-1 38.5q0 158 90 234q28 24 58 35.5t55.5 15.5t45 3.5t26.5 -1.5q67 -8 108.5 -42.5t63.5 -79.5t27.5 -93.5t2.5 -83.5l-6 -66h-318zM349 400q-3 15 -9.5 29
t-16.5 25t-24.5 18t-34.5 7q-11 0 -29 -3.5t-34 -17.5q-12 -11 -19 -26t-12 -32h179z" />
    <glyph glyph-name="f" unicode="f" horiz-adv-x="389" 
d="M363 713q-7 0 -25 -2t-36.5 -9.5t-33 -23t-14.5 -42.5v-29h96v-144h-96v-434h-144v434h-87v144h87v29q0 69 34.5 119.5t100.5 77.5q21 9 41.5 13.5t36.5 6.5t27 2.5t13 0.5v-143z" />
    <glyph glyph-name="g" unicode="g" horiz-adv-x="576" 
d="M87 -19q55 -25 99.5 -29.5t78.5 1.5t57.5 18.5t36.5 23.5v63q-60 -33 -118 -33h-4q-91 2 -156 79q-32 38 -49 86.5t-17 103.5v87q0 27 4 46q7 46 21 78.5t32 54t37.5 34.5t37.5 20q27 10 54.5 11.5t55 -3.5t53.5 -14.5t49 -21.5v26h144v-673l-17 -20q-15 -18 -39.5 -38.5
t-58 -37t-76 -27.5t-91.5 -11q-44 0 -92 10.5t-101 34.5zM240 169q7 -1 18 1.5t25.5 10t33.5 22t42 37.5v178q-19 14 -41.5 27t-45 22.5t-42.5 13t-33 -1.5q-9 -3 -15 -12.5t-10.5 -21t-7 -23t-3.5 -18.5q-1 -5 -1.5 -10.5t-0.5 -12.5v-87q0 -59 32 -97q18 -21 31 -24.5
t18 -3.5z" />
    <glyph glyph-name="h" unicode="h" horiz-adv-x="599" 
d="M350 632q42 -2 78 -22t62.5 -52.5t41 -74.5t14.5 -88v-364h-144v364q0 16 -4.5 32.5t-12 29.5t-19 21.5t-24.5 9.5q-14 1 -30 -4t-32.5 -13.5t-32.5 -19.5t-29 -21v-399h-144v819h144v-249q30 14 63.5 23.5t68.5 7.5z" />
    <glyph glyph-name="i" unicode="i" horiz-adv-x="300" 
d="M78 878h144v-202h-144v202zM78 611h144v-580h-144v580z" />
    <glyph glyph-name="j" unicode="j" horiz-adv-x="322" 
d="M124 878h144v-202h-144v202zM55 -26q27 -11 41 -12t18 1t6.5 9t3.5 11v628h144v-641q0 -3 -3 -18.5t-11.5 -35.5t-24.5 -41t-43 -37q-36 -21 -82 -21q-24 0 -51 6t-56 20z" />
    <glyph glyph-name="k" unicode="k" horiz-adv-x="605" 
d="M359 331l194 -197l-102 -102l-237 241v-242h-144v824h144v-377l42 -43l148 215l118 -82z" />
    <glyph glyph-name="l" unicode="l" horiz-adv-x="329" 
d="M173 852v-660q1 -5 4 -11.5t7 -8.5q3 -2 17.5 -1t40.5 12l58 -131q-60 -26 -107 -26t-82 22q-28 16 -44 37.5t-24.5 41.5t-11 36.5t-2.5 22.5v666h144z" />
    <glyph glyph-name="m" unicode="m" horiz-adv-x="880" 
d="M203 31h-144v583h144v-41q27 12 56 19.5t59 8t59.5 -7t57.5 -26.5q6 -4 11.5 -8t10.5 -9q30 18 64 31t70.5 17.5t73 -2t71.5 -29.5q42 -28 65.5 -74t23.5 -100v-362h-144v362q0 17 -6.5 31.5t-18.5 22.5q-14 9 -31 10t-34.5 -4t-35.5 -14t-33 -19q2 -6 2 -13v-14v-362
h-144v362q0 17 -6.5 31.5t-18.5 22.5q-16 11 -36.5 10t-41 -8.5t-40 -19t-34.5 -22.5v-376z" />
    <glyph glyph-name="n" unicode="n" horiz-adv-x="581" 
d="M429 567q42 -28 65.5 -74t23.5 -100v-362h-144v362q0 17 -6.5 31.5t-18.5 22.5q-16 11 -36.5 10t-41 -8.5t-40 -19t-34.5 -22.5v-376h-144v582h144v-40q27 12 56 19.5t59 8t59.5 -7t57.5 -26.5z" />
    <glyph glyph-name="o" unicode="o" horiz-adv-x="579" 
d="M243 634q7 1 21 1t29 -1q52 0 97.5 -24.5t79.5 -67t53 -100.5t19 -124t-18.5 -121.5t-52 -96t-79 -63t-99.5 -22.5h-28q-15 0 -19 1q-48 5 -87 29t-66 63.5t-42 92.5t-15 117t15 119t42 96.5t65 67.5t85 33zM399 318q0 36 -8.5 67t-23 54.5t-33.5 37.5t-41 14h-31
q-18 -3 -33 -17.5t-26 -37.5t-17 -53.5t-6 -64.5q0 -27 4 -54.5t14 -50t25 -37.5t38 -17h32q23 0 42.5 12t33.5 33t22 50t8 64z" />
    <glyph glyph-name="p" unicode="p" horiz-adv-x="582" 
d="M439 586q116 -64 121 -255q3 -105 -48 -185q-11 -16 -29.5 -37.5t-46.5 -40.5t-66 -32.5t-88 -13.5q-19 0 -39.5 2.5t-42.5 7.5v-218h-144v799h144v-27q25 9 55 16.5t61 9t62.5 -4t60.5 -21.5zM391 224q17 26 21.5 54.5t3.5 49.5q0 15 -2 34.5t-7 38.5t-14 34.5t-23 23.5
q-16 9 -38 8.5t-45.5 -5.5t-46 -14.5t-40.5 -18.5v-248q51 -17 85 -15t56 12t33.5 24t16.5 22z" />
    <glyph glyph-name="q" unicode="q" horiz-adv-x="598" 
d="M382 624h144v-798h-144v218q-22 -5 -42.5 -7.5t-39.5 -2.5q-50 0 -88.5 13t-66.5 32.5t-46.5 40.5t-28.5 38q-51 80 -48 185q5 191 121 255q29 15 60.5 20.5t62.5 4t60.5 -8.5t55.5 -16v26zM191 236q5 -8 16.5 -22t33.5 -24t56 -12t85 15v248q-18 9 -41 18t-46.5 14.5
t-45 6t-37.5 -8.5q-14 -8 -23 -24t-14 -34.5t-7 -38.5t-2 -35q-1 -21 3.5 -49t21.5 -54z" />
    <glyph glyph-name="r" unicode="r" horiz-adv-x="460" 
d="M207 588q19 10 42.5 17t51 8t59.5 -5.5t70 -24.5l-62 -130q-52 24 -88 10q-27 -11 -46 -35t-27 -40v-346h-144v582h144v-36v0z" />
    <glyph glyph-name="s" unicode="s" horiz-adv-x="466" 
d="M280 201q0 6 -2 14.5t-8.5 17t-18 15t-29.5 9.5q-54 8 -89 32t-56 53.5t-29.5 60t-8.5 52.5q-1 32 8.5 58t24.5 45t32.5 31.5t31.5 18.5q43 16 86 16t78.5 -7t60 -16.5t30.5 -11.5l-61 -131q-9 4 -24.5 9.5t-35 9t-40 4t-38.5 -5.5l-6 -6t-3 -11q0 -7 2.5 -16t9 -17.5
t18.5 -15.5t31 -10q54 -8 88.5 -31.5t55 -52.5t28.5 -60t8 -54q1 -31 -8 -56t-23.5 -43.5t-31 -31.5t-29.5 -19q-25 -11 -50 -15t-49 -4q-30 0 -57.5 5t-49 11t-36 12t-18.5 8l61 130q8 -4 24 -9.5t35.5 -9t39.5 -4t37 5.5q3 2 7.5 6t3.5 11v3z" />
    <glyph glyph-name="t" unicode="t" horiz-adv-x="372" 
d="M241 187q4 -2 18.5 -1t40.5 12l58 -131q-56 -26 -107 -26q-45 0 -82 22q-28 16 -44 37.5t-24.5 41.5t-11 36.5t-2.5 22.5v272h-73v144h73v143h144v-143h101v-144h-101v-266q1 -5 4 -11.5t6 -8.5z" />
    <glyph glyph-name="u" unicode="u" horiz-adv-x="618" 
d="M279 57q-44 0 -81.5 17t-64.5 45.5t-42 66t-15 79.5v363h144v-363q0 -17 7 -31.5t18 -22.5q16 -11 36.5 -10t41.5 8.5t40.5 19t34.5 22.5v377h144v-583h-144v40q-28 -13 -58 -20.5t-61 -7.5z" />
    <glyph glyph-name="v" unicode="v" horiz-adv-x="554" 
d="M390 639l139 -37l-147 -561h-230l-128 571l141 31l103 -458h3z" />
    <glyph glyph-name="w" unicode="w" horiz-adv-x="825" 
d="M669 629l142 -25l-100 -562h-230l-73 336l-69 -336h-236l-89 563l142 23l68 -431l87 429h191l91 -423z" />
    <glyph glyph-name="x" unicode="x" horiz-adv-x="556" 
d="M389 342l154 -264l-124 -73l-141 241l-140 -241l-125 73l154 264l-138 247l126 70l123 -221l123 221l126 -70z" />
    <glyph glyph-name="y" unicode="y" horiz-adv-x="563" 
d="M406 648l136 -48l-249 -700l-5 -7q-2 -3 -12 -15.5t-27.5 -26t-41.5 -24.5t-54 -11q-13 0 -28.5 3t-32.5 11t-35 21.5t-36 35.5l111 92q5 -7 9 -10.5t7 -5.5q4 -3 6 -3t5 3l5 5l40 113l-177 520l136 46l119 -348z" />
    <glyph glyph-name="z" unicode="z" horiz-adv-x="472" 
d="M211 195h245v-144h-438v139l239 281h-224v144h401v-158z" />
    <glyph glyph-name="braceleft" unicode="{" horiz-adv-x="429" 
d="M27 296h-1v122l131 81v384h223v-144h-79v-320l-99 -61l99 -60v-291h79v-144h-223v354l-130 78v1z" />
    <glyph glyph-name="bar" unicode="|" horiz-adv-x="265" 
d="M60 878h144v-1029h-144v1029z" />
    <glyph glyph-name="braceright" unicode="}" horiz-adv-x="428" 
d="M257 -137h-223v144h79v291l99 60l-99 61v320h-79v144h223v-384l131 -81v-122h-1v-1l-130 -78v-354z" />
    <glyph glyph-name="asciitilde" unicode="~" horiz-adv-x="777" 
d="M176 127l-121 79l179 272l270 -182l96 148l121 -78l-175 -271l-271 182z" />
    <glyph glyph-name="currency" unicode="&#xa4;" horiz-adv-x="689" 
d="M188 542l56 -65q23 11 49 17t53 6q47 0 93 -19l62 64l104 -99l-54 -56q20 -29 31 -64t11 -73t-10.5 -72t-29.5 -63l55 -65l-111 -92l-54 65q-46 -20 -97 -20t-97 20l-55 -66l-111 93l56 66q-19 29 -29.5 62.5t-10.5 71.5q0 35 10 67.5t27 60.5l-57 68zM346 355
q-21 0 -40 -8t-33 -22t-22 -33t-8 -40t8 -40t22 -33t33 -22t40 -8t40 8t33 22.5t22 33t8 39.5t-8 40t-22 33t-33 22t-40 8z" />
    <glyph glyph-name="yen" unicode="&#xa5;" horiz-adv-x="529" 
d="M471 448v-105h-133v-76h133v-105h-133v-142h-157v142h-129v105h129v76h-129v105h81l-121 280h163l89 -267l88 267h160l-119 -280h78z" />
    <glyph glyph-name="section" unicode="&#xa7;" horiz-adv-x="571" 
d="M61 112l81 236l-53 28l53 260h301v-144h-183l-8 -39l241 -127l-79 -225l62 -73l-86 -243l-305 23l11 144l195 -15l21 59zM239 188l46 -21l31 89l-45 24z" />
    <glyph glyph-name="dieresis" unicode="&#xa8;" horiz-adv-x="499" 
d="M69 815h144v-184h-144v184zM289 815h144v-184h-144v184z" />
    <glyph glyph-name="degree" unicode="&#xb0;" horiz-adv-x="520" 
d="M263 600q35 0 65.5 -13.5t53.5 -36.5t36.5 -53.5t13.5 -65.5t-13.5 -65.5t-36.5 -53.5t-53.5 -36.5t-65.5 -13.5t-65.5 13.5t-53.5 36.5t-36.5 53.5t-13.5 65.5t13.5 65.5t36.5 53.5t53.5 36.5t65.5 13.5zM263 370q25 0 43 18t18 43q0 26 -17.5 43.5t-43.5 17.5
t-43.5 -17.5t-17.5 -43.5q0 -25 17.5 -43t43.5 -18z" />
    <glyph glyph-name="plusminus" unicode="&#xb1;" horiz-adv-x="662" 
d="M86 13h505v-144h-505v144zM270 256h-184v144h184v200h137v-200h184v-144h-184v-202h-137v202z" />
    <glyph glyph-name="multiply" unicode="&#xd7;" horiz-adv-x="685" 
d="M93 15l176 196l-169 201l102 86l157 -187l164 182l99 -90l-176 -195l169 -202l-102 -86l-157 188l-164 -182z" />
    <glyph glyph-name="divide" unicode="&#xf7;" horiz-adv-x="753" 
d="M295 500h180v-150h-180v150zM295 65h180v-150h-180v150zM131 298h505v-180h-505v180z" />
    <glyph glyph-name="caron" unicode="&#x2c7;" horiz-adv-x="503" 
d="M199 610l-131 112l94 109l87 -75l93 75l91 -112l-135 -109h-99z" />
    <glyph glyph-name="uni02C9" unicode="&#x2c9;" horiz-adv-x="462" 
d="M79 807h317v-144h-317v144z" />
    <glyph glyph-name="emdash" unicode="&#x2014;" horiz-adv-x="1000" 
d="M47 294h906v-144h-906v144z" />
    <glyph glyph-name="quoteleft" unicode="&#x2018;" horiz-adv-x="1000" 
d="M651 565l62 308l142 -28l-62 -308z" />
    <glyph glyph-name="quoteright" unicode="&#x2019;" horiz-adv-x="1000" 
d="M113 563l53 308l141 -25l-52 -307z" />
    <glyph glyph-name="quotedblleft" unicode="&#x201c;" horiz-adv-x="1000" 
d="M435 558l65 320l141 -29l-65 -319zM666 558l65 320l141 -29l-64 -319z" />
    <glyph glyph-name="quotedblright" unicode="&#x201d;" horiz-adv-x="1000" 
d="M85 558l64 320l141 -29l-64 -319zM316 558l64 320l141 -29l-64 -319z" />
    <glyph glyph-name="bullet" unicode="&#x2022;" horiz-adv-x="1000" 
d="M410 464h180v-224h-180v224z" />
    <glyph glyph-name="ellipsis" unicode="&#x2026;" horiz-adv-x="1000" 
d="M89 113h180v-223h-180v223zM409 113h180v-223h-180v223zM730 113h180v-223h-180v223z" />
    <glyph glyph-name="perthousand" unicode="&#x2030;" horiz-adv-x="1000" 
d="M307 439q0 -33 -12.5 -61.5t-34.5 -50.5t-51 -34.5t-62 -12.5t-62 12.5t-50.5 34.5t-34 50.5t-12.5 61.5t12.5 62t34 51t50.5 34.5t62 12.5t62 -12.5t51 -34.5t34.5 -51t12.5 -62zM96 439q0 -21 15 -36t36 -15q22 0 37 15t15 36q0 22 -15 37t-37 15q-21 0 -36 -15
t-15 -37zM853 235q33 0 62 -12.5t51 -34t34.5 -50.5t12.5 -62t-12.5 -62t-34.5 -51t-51 -34.5t-62 -12.5q-27 0 -52 9t-45.5 25t-35 37.5t-21.5 47.5q-14 -51 -56 -85t-98 -34q-33 0 -61.5 12.5t-50.5 34.5t-34.5 51t-12.5 62t12.5 62t34.5 50.5t50.5 34t61.5 12.5
q56 0 98 -33.5t56 -84.5q7 25 21.5 47t35 37.5t45.5 24.5t52 9zM545 24q22 0 37 15t15 37q0 21 -15 36t-37 15q-21 0 -36 -15t-15 -36q0 -22 15 -37t36 -15zM853 24q22 0 37 15t15 37q0 21 -15 36t-37 15q-21 0 -36 -15t-15 -36q0 -22 15 -37t36 -15zM113 -88l349 746
l98 -46l-350 -746z" />
    <glyph glyph-name="minute" unicode="&#x2032;" horiz-adv-x="1000" 
d="M424 852h151v-312h-151v312z" />
    <glyph glyph-name="second" unicode="&#x2033;" horiz-adv-x="1000" 
d="M320 852h152v-312h-152v312zM529 852h151v-312h-151v312z" />
    <glyph glyph-name="uni2103" unicode="&#x2103;" horiz-adv-x="1000" 
d="M440 432q0 -39 -15 -74t-41 -61t-61 -41t-74 -15t-74 15t-61 41t-41 61t-15 74t15 74t41 61t60.5 41t74.5 15q39 0 74 -15t61 -41t41 -60.5t15 -74.5zM166 432q0 -35 24 -59t59 -24q34 0 58.5 24.5t24.5 58.5q0 35 -24.5 59t-58.5 24q-35 0 -59 -24t-24 -59zM677 453
v-392h264v-180h-444v752h438v-180h-258z" />
    <glyph glyph-name="uni2116" unicode="&#x2116;" horiz-adv-x="1000" 
d="M798 538q50 0 94 -19t76.5 -51.5t51.5 -76.5t19 -94t-19 -93.5t-51.5 -76t-76.5 -51.5t-94 -19t-93.5 19t-76 51.5t-51.5 76t-19 93.5t19 94t51.5 76.5t76 51.5t93.5 19zM798 200q20 0 38 7.5t31 21t20.5 31t7.5 37.5q0 41 -28 69t-69 28q-40 0 -68 -28t-28 -69
q0 -20 7.5 -37.5t20.5 -31t30.5 -21t37.5 -7.5zM124 -111h-162v746h300l111 -512v512h162v-755h-275l-128 594h-8v-585zM621 36h355v-147h-355v147z" />
    <glyph glyph-name="uni2170" unicode="&#x2170;" horiz-adv-x="1000" 
d="M410 736h180v-201h-180v201zM410 474h180v-585h-180v585z" />
    <glyph glyph-name="uni2171" unicode="&#x2171;" horiz-adv-x="1000" 
d="M267 736h180v-202h-180v202zM267 473h180v-585h-180v585zM552 736h180v-202h-180v202zM552 473h180v-585h-180v585z" />
    <glyph glyph-name="uni2172" unicode="&#x2172;" horiz-adv-x="1000" 
d="M150 760h180v-202h-180v202zM150 497h180v-585h-180v585zM410 760h180v-202h-180v202zM410 497h180v-585h-180v585zM670 760h180v-202h-180v202zM670 497h180v-585h-180v585z" />
    <glyph glyph-name="uni2173" unicode="&#x2173;" horiz-adv-x="1000" 
d="M98 760h179v-202h-179v202zM98 497h179v-585h-179v585zM902 471l-168 -557h-226l-159 559l173 49l101 -355l106 356z" />
    <glyph glyph-name="uni2174" unicode="&#x2174;" horiz-adv-x="1000" 
d="M603 523l173 -52l-168 -557h-227l-158 559l173 49l100 -355z" />
    <glyph glyph-name="uni2175" unicode="&#x2175;" horiz-adv-x="1000" 
d="M715 757h180v-198h-180v198zM715 495h180v-585h-180v585zM378 167l107 356l172 -52l-167 -557h-227l-158 559l173 49z" />
    <glyph glyph-name="uni2176" unicode="&#x2176;" horiz-adv-x="1000" 
d="M574 757h162v-198h-162v198zM574 495h162v-585h-162v585zM784 757h162v-198h-162v198zM784 495h162v-585h-162v585zM399 519l156 -44l-158 -563h-202l-141 566l157 39l88 -353z" />
    <glyph glyph-name="uni2177" unicode="&#x2177;" horiz-adv-x="1000" 
d="M476 757h126v-198h-126v198zM476 495h126v-585h-126v585zM646 757h126v-198h-126v198zM646 495h126v-585h-126v585zM817 757h126v-198h-126v198zM817 495h126v-585h-126v585zM315 510l123 -26l-122 -572h-165l-94 575l124 20l58 -353z" />
    <glyph glyph-name="uni2178" unicode="&#x2178;" horiz-adv-x="1000" 
d="M119 757h180v-198h-180v198zM119 495h180v-585h-180v585zM880 447l-145 -230l132 -210l-153 -95l-85 135l-88 -141l-152 96l134 214l-145 231l152 96l99 -157l98 157z" />
    <glyph glyph-name="uni2179" unicode="&#x2179;" horiz-adv-x="1000" 
d="M498 357l120 162l145 -106l-157 -213l136 -198l-148 -102l-101 147l-109 -148l-145 107l146 198l-149 217l148 102z" />
    <glyph glyph-name="infinity" unicode="&#x221e;" horiz-adv-x="1000" 
d="M359 1q-37 0 -69.5 14t-56.5 38t-38 56.5t-14 69.5t14 69.5t38 56.5t56.5 38t69.5 14q44 0 80 -18.5t61 -50.5q25 32 61.5 50.5t79.5 18.5q37 0 69.5 -14t56.5 -38t38 -56.5t14 -69.5t-14 -69.5t-38 -56.5t-56.5 -38t-69.5 -14q-44 0 -80 18.5t-61 50.5
q-25 -32 -61.5 -50.5t-79.5 -18.5zM641 249q-29 0 -50 -20.5t-21 -49.5t21 -49.5t50 -20.5t49.5 20.5t20.5 49.5t-20.5 49.5t-49.5 20.5zM359 249q-29 0 -49.5 -20.5t-20.5 -49.5t20.5 -49.5t49.5 -20.5t49.5 20.5t20.5 49.5t-20.5 49.5t-49.5 20.5z" />
    <glyph glyph-name="therefore" unicode="&#x2234;" horiz-adv-x="1000" 
d="M638 76h180v-192h-180v192zM181 76h180v-192h-180v192zM416 628h179v-192h-179v192z" />
    <glyph glyph-name="uni2235" unicode="&#x2235;" horiz-adv-x="1000" 
d="M182 628h180v-192h-180v192zM638 628h180v-192h-180v192zM404 76h180v-192h-180v192z" />
    <glyph glyph-name="uni2236" unicode="&#x2236;" horiz-adv-x="1000" 
d="M410 624h180v-191h-180v191zM410 76h180v-192h-180v192z" />
    <glyph glyph-name="similar" unicode="&#x223c;" horiz-adv-x="1000" 
d="M288 157l-121 79l179 272l270 -182l96 148l121 -78l-175 -271l-271 182z" />
    <glyph glyph-name="similar" unicode="&#xff5e;" horiz-adv-x="1000" 
d="M288 157l-121 79l179 272l270 -182l96 148l121 -78l-175 -271l-271 182z" />
    <glyph glyph-name="uni2460" unicode="&#x2460;" horiz-adv-x="1000" 
d="M491 589h109v-561h-144v401l-131 -38l-40 138zM500 804q90 0 168.5 -39.5t137.5 -107t93 -159t34 -194.5t-34 -194t-93 -159t-137.5 -107.5t-168.5 -39.5t-169 39.5t-138 107.5t-93 159t-34 194t34 194t93 159t138 107.5t169 39.5zM500 -88q67 0 126 31t103.5 84
t70 124.5t25.5 152.5t-25.5 152.5t-70 124.5t-103.5 84t-126 31q-68 0 -127 -31t-103.5 -84t-70 -124.5t-25.5 -152.5t25.5 -152.5t70 -124.5t103.5 -84t127 -31z" />
    <glyph glyph-name="uni2461" unicode="&#x2461;" horiz-adv-x="1000" 
d="M574 590q14 -10 28.5 -26.5t26 -40.5t17 -57t2.5 -76l-1 -21l-142 -187h134v-144h-310v150l177 232q-1 23 -5 35.5t-9 16.5q-7 5 -20 5.5t-27.5 -1.5t-29 -6t-25.5 -9l-59 131q5 3 30.5 12t60.5 14.5t75.5 1t76.5 -29.5zM499 804q90 0 169 -39.5t138 -107t93 -159
t34 -194.5t-34 -194t-93 -159t-138 -107.5t-169 -39.5t-168.5 39.5t-137.5 107.5t-93 159t-34 194t34 194t93 159t137.5 107.5t168.5 39.5zM499 -88q67 0 126.5 31t104 84t70 124.5t25.5 152.5t-25.5 152.5t-70 124.5t-104 84t-126.5 31t-126 -31t-103.5 -84t-70 -124.5
t-25.5 -152.5t25.5 -152.5t70 -124.5t103.5 -84t126 -31z" />
    <glyph glyph-name="uni2462" unicode="&#x2462;" horiz-adv-x="1000" 
d="M662 443q0 -26 -9 -61.5t-35 -68.5q28 -36 37 -73t6 -68q-11 -61 -38.5 -91.5t-53.5 -43.5q-20 -10 -40 -14t-40 -4q-26 0 -50 5t-43 11.5t-32 12.5t-16 8l67 128q11 -6 24 -10.5t26 -7.5t23.5 -3t16.5 3q5 2 8 9.5t5 14.5q-2 8 -7.5 24t-25.5 27h-73v144h73
q19 10 25 25.5t7 24.5q-2 8 -5.5 15t-9.5 10q-8 3 -19.5 2.5t-24 -3.5t-24 -7.5t-18.5 -8.5l-69 126q4 3 25.5 12.5t52 17t66.5 7.5t71 -16q13 -6 27.5 -16t28 -26t25 -38.5t17.5 -52.5zM500 804q90 0 169 -39.5t138 -107t93 -159t34 -194.5t-34 -194t-93 -159t-138 -107.5
t-169 -39.5t-169 39.5t-138 107.5t-93 159t-34 194t34 194t93 159t138 107.5t169 39.5zM500 -88q67 0 126.5 31t104 84t70 124.5t25.5 152.5t-25.5 152.5t-70 124.5t-104 84t-126.5 31q-68 0 -127 -31t-103.5 -84t-70 -124.5t-25.5 -152.5t25.5 -152.5t70 -124.5t103.5 -84
t127 -31z" />
    <glyph glyph-name="uni2463" unicode="&#x2463;" horiz-adv-x="1000" 
d="M604 257h55v-126h-55v-91h-126v91h-199v153l186 325l110 -62l-167 -290h70v120h126v-120zM500 804q90 0 169 -39.5t138 -107t93 -159t34 -194.5t-34 -194t-93 -159t-138 -107.5t-169 -39.5t-169 39.5t-138 107.5t-93 159t-34 194t34 194t93 159t138 107.5t169 39.5z
M500 -88q67 0 126.5 31t104 84t70 124.5t25.5 152.5t-25.5 152.5t-70 124.5t-104 84t-126.5 31q-68 0 -127 -31t-103.5 -84t-70 -124.5t-25.5 -152.5t25.5 -152.5t70 -124.5t103.5 -84t127 -31z" />
    <glyph glyph-name="uni2464" unicode="&#x2464;" horiz-adv-x="1000" 
d="M588 357q21 -13 42.5 -41t27.5 -80q0 -4 0.5 -20.5t-5 -39.5t-18 -49t-37.5 -48q-56 -51 -151 -51q-42 0 -88 9l21 106q106 -20 146 16q10 9 15 20.5t7 21.5q3 11 2 24q-2 23 -8.5 30.5t-9.5 9.5q-8 5 -19.5 6.5t-23.5 0.5t-22.5 -3.5t-17.5 -4.5l-40 -15l-51 77l36 248
v7h235v-108h-140l-14 -94q26 2 56 -1.5t57 -20.5zM499 804q90 0 169 -39.5t138 -107.5t93 -159t34 -194t-34 -194t-93 -159t-138 -107.5t-169 -39.5t-168.5 39.5t-137.5 107.5t-93 159t-34 194t34 194t93 159t137.5 107.5t168.5 39.5zM499 -88q67 0 126.5 31t104 84
t70 124.5t25.5 152.5t-25.5 152.5t-70 124.5t-104 84t-126.5 31t-126 -31t-103.5 -84t-70 -124.5t-25.5 -152.5t25.5 -152.5t70 -124.5t103.5 -84t126 -31z" />
    <glyph glyph-name="uni2465" unicode="&#x2465;" horiz-adv-x="1000" 
d="M609 365q27 -22 40.5 -49.5t19 -54.5t5.5 -48.5t-1 -31.5q-2 -66 -45 -109q-19 -19 -40 -29.5t-40.5 -16t-34 -6.5t-19.5 -1q-55 3 -86 21t-46 36q-26 32 -31.5 63t-3.5 45v120q-3 131 74 210q28 28 58.5 43t57 22t45.5 8t23 1l-1 -72l-1 -71q-15 -1 -29 -5
q-12 -3 -26 -10t-26 -19q-3 -2 -5.5 -5.5t-4.5 -6.5q69 5 117 -34zM528 190q2 17 0 37t-9 26q-2 2 -14 2.5t-35 -5.5v-77q0 -1 3 -4.5t22 -5.5q12 1 22.5 5t10.5 17v5zM500 804q90 0 168.5 -39.5t137.5 -107.5t93 -159t34 -194t-34 -194t-93 -159t-137.5 -107.5
t-168.5 -39.5t-169 39.5t-138 107.5t-93 159t-34 194t34 194t93 159t138 107.5t169 39.5zM500 -88q67 0 126 31t103.5 84t70 124.5t25.5 152.5t-25.5 152.5t-70 124.5t-103.5 84t-126 31q-68 0 -127 -31t-103.5 -84t-70 -124.5t-25.5 -152.5t25.5 -152.5t70 -124.5
t103.5 -84t127 -31z" />
    <glyph glyph-name="uni2466" unicode="&#x2466;" horiz-adv-x="1000" 
d="M370 585h286v-149l-139 -441l-137 43l127 403h-137v144zM500 804q90 0 168.5 -39.5t137.5 -107.5t93 -159t34 -194t-34 -194t-93 -159t-137.5 -107.5t-168.5 -39.5t-169 39.5t-138 107.5t-93 159t-34 194t34 194t93 159t138 107.5t169 39.5zM500 -88q67 0 126 31
t103.5 84t70 124.5t25.5 152.5t-25.5 152.5t-70 124.5t-103.5 84t-126 31q-68 0 -127 -31t-103.5 -84t-70 -124.5t-25.5 -152.5t25.5 -152.5t70 -124.5t103.5 -84t127 -31z" />
    <glyph glyph-name="uni2467" unicode="&#x2467;" horiz-adv-x="1000" 
d="M594 317q36 -22 58.5 -60t22.5 -85q0 -35 -12.5 -65t-34.5 -53t-51 -36t-62 -13t-62 13t-51 36t-34.5 53t-12.5 65q0 47 22.5 85t59.5 60q-31 21 -49.5 55t-18.5 75q0 32 11.5 60.5t31 49.5t46.5 33t57 12t57 -12t46.5 -33t31 -49.5t11.5 -60.5q0 -42 -18.5 -76
t-48.5 -54zM515 494q-15 0 -26.5 -13.5t-11.5 -33.5q0 -19 11.5 -33t26.5 -14q16 0 27 14t11 33t-11 33t-27 14zM515 113q22 0 37 17t15 42q0 24 -15 41.5t-37 17.5q-21 0 -36.5 -17.5t-15.5 -41.5q0 -25 15.5 -42t36.5 -17zM499 804q90 0 169 -39.5t138 -107.5t93 -159
t34 -194t-34 -194t-93 -159t-138 -107.5t-169 -39.5t-168.5 39.5t-137.5 107.5t-93 159t-34 194t34 194t93 159t137.5 107.5t168.5 39.5zM499 -88q67 0 126.5 31t104 84t70 124.5t25.5 152.5t-25.5 152.5t-70 124.5t-104 84t-126.5 31t-126.5 -31t-103.5 -84t-70 -124.5
t-26 -152.5t26 -152.5t70 -124.5t103.5 -84t126.5 -31z" />
    <glyph glyph-name="uni2468" unicode="&#x2468;" horiz-adv-x="1000" 
d="M516 620q39 0 74 -17t61 -46t42 -68.5t17 -84.5q1 -12 3.5 -51t-3 -90t-24 -106t-58.5 -100q-14 -15 -33 -30.5t-44.5 -28t-58 -20.5t-72.5 -8q-8 0 -12 1l4 144q48 -2 77.5 14t47.5 47q-5 -1 -10.5 -1.5t-10.5 -0.5q-41 0 -76.5 17.5t-61.5 48t-41.5 71t-15.5 86.5
t15.5 86.5t41.5 71t61.5 48t76.5 17.5zM465 397q0 -35 16.5 -57t34.5 -22t34 22t16 57t-16 57t-34 22t-34.5 -22t-16.5 -57zM500 804q90 0 168.5 -39.5t137.5 -107.5t93 -159t34 -194t-34 -194t-93 -159t-137.5 -107.5t-168.5 -39.5t-169 39.5t-138 107.5t-93 159t-34 194
t34 194t93 159t138 107.5t169 39.5zM500 -88q67 0 126 31t103.5 84t70 124.5t25.5 152.5t-25.5 152.5t-70 124.5t-103.5 84t-126 31q-68 0 -127 -31t-103.5 -84t-70 -124.5t-25.5 -152.5t25.5 -152.5t70 -124.5t103.5 -84t127 -31z" />
    <glyph glyph-name="uni2469" unicode="&#x2469;" horiz-adv-x="1000" 
d="M500 804q90 0 168.5 -39.5t137.5 -107.5t93 -159t34 -194t-34 -194t-93 -159t-137.5 -107.5t-168.5 -39.5t-169 39.5t-138 107.5t-93 159t-34 194t34 194t93 159t138 107.5t169 39.5zM500 -88q67 0 126 31t103.5 84t70 124.5t25.5 152.5t-25.5 152.5t-70 124.5t-103.5 84
t-126 31q-68 0 -127 -31t-103.5 -84t-70 -124.5t-25.5 -152.5t25.5 -152.5t70 -124.5t103.5 -84t127 -31zM714 304q0 -62 -3.5 -112.5t-15.5 -86.5t-34 -56t-58 -20h-21q-117 0 -117 275q0 143 28 211.5t85 68.5h38q26 -4 44.5 -21.5t30.5 -51.5t17.5 -85t5.5 -122zM337 572
h80v-528h-108v407l-16 -5l-30 104zM592 142q4 14 9 50.5t4 110.5q0 74 -4.5 111.5t-9.5 54.5q-6 -18 -12.5 -57.5t-6.5 -108.5t7 -107t13 -54z" />
    <glyph glyph-name="uni2474" unicode="&#x2474;" horiz-adv-x="1000" 
d="M289 670l209 60h129v-767h-180v565l-108 -31zM151 -146q-57 143 -80 269t-23 231t15.5 188.5t35.5 142t37 91t20 36.5l91 -57q-2 -4 -17 -32.5t-32 -81t-30 -127t-12 -169t22.5 -208t73.5 -243.5zM844 812q2 -4 19.5 -36.5t37.5 -91t35.5 -142t15 -188.5t-23 -231
t-80.5 -269l-100 40q52 131 73 245.5t22 209.5t-13 170t-31 127t-31.5 79.5t-14.5 28.5z" />
    <glyph glyph-name="uni2475" unicode="&#x2475;" horiz-adv-x="1000" 
d="M305 697l22.5 9t43 14t57.5 12t66.5 4t69.5 -10.5t67 -31.5q111 -78 98 -267l-2 -26l-203 -269h201v-180h-417v194l243 320q0 31 -6 52t-17 29q-12 8 -31.5 9t-41 -2t-42 -9t-34.5 -12zM151 -146q-57 143 -80 269t-23 231t15.5 188.5t35.5 142t37 91t20 36.5l91 -57
q-2 -4 -17 -32.5t-32 -81t-30 -127t-12 -169t22 -208t73 -243.5zM844 812q2 -4 19.5 -36.5t37 -91t35.5 -142t15.5 -188.5t-23 -231t-80.5 -269l-100 40q52 130 73.5 243.5t22.5 208t-12.5 169t-30.5 127t-32 81t-17 32.5z" />
    <glyph glyph-name="uni2476" unicode="&#x2476;" horiz-adv-x="1000" 
d="M699 503q1 -34 -12 -82.5t-48 -93.5q35 -45 48 -93t12 -83l-1 -13q-7 -40 -20 -70t-29.5 -51t-35 -35t-35.5 -22q-26 -13 -52.5 -18t-52.5 -5q-35 0 -67 6.5t-57.5 15t-42.5 16.5t-21 11l84 159q13 -7 31 -13.5t36.5 -10t35 -4t26.5 4.5q8 4 13.5 15t7.5 23q0 6 -2.5 16
t-7.5 21t-14.5 22t-24.5 19h-102v179h102q15 8 24 18.5t14.5 21.5t7.5 20.5t3 15.5q-9 33 -25 40q-12 5 -29 4.5t-34.5 -5t-34 -10.5t-26.5 -12l-86 158q6 3 34 16t68.5 23t88.5 10.5t94 -20.5q17 -8 36 -21.5t37 -34.5t32.5 -50.5t22.5 -69.5zM151 -161q-57 143 -80 269
t-23 231t15.5 188.5t35.5 142t37 91t20 36.5l91 -57q-2 -3 -17 -32t-32 -81.5t-30 -127t-12 -169t22.5 -208t73.5 -243.5zM844 797q2 -4 19.5 -36.5t37.5 -91t35.5 -142t15 -188.5t-23 -231t-80.5 -269l-100 40q53 131 74 245.5t21.5 210t-13 170t-31 126.5t-32 80t-14.5 29
z" />
    <glyph glyph-name="uni2477" unicode="&#x2477;" horiz-adv-x="1000" 
d="M508 -62v143h-259v199l272 474l125 -71l-253 -441v-17h115v198h144v-198h62v-144h-62v-143h-144zM248 740q-2 -3 -17 -32t-32 -81.5t-30.5 -127t-12.5 -169t22.5 -208t73.5 -243.5l-100 -40q-58 143 -80.5 269t-23 231t15 188.5t35.5 142t37 91t20 36.5zM749 -121
q52 131 73 245.5t21.5 210t-13 170t-31 126.5t-32 80t-14.5 29l91 57q2 -4 19.5 -36.5t37.5 -91t35.5 -142t15.5 -188.5t-23 -231t-80 -269z" />
    <glyph glyph-name="uni2478" unicode="&#x2478;" horiz-adv-x="1000" 
d="M729 224q0 -5 0.5 -27.5t-6.5 -53.5t-23.5 -65.5t-50.5 -64.5q-74 -68 -202 -68q-56 0 -119 12l28 142q142 -29 196 20q14 13 21 28.5t10 29.5t3 23.5v9.5q-4 31 -12.5 41.5t-12.5 12.5q-11 7 -26.5 8.5t-31.5 0t-30.5 -5t-23.5 -6.5l-53 -19l-68 102l48 331v11h316v-144
h-190l-19 -127q35 4 75.5 -1t78.5 -28q13 -9 28 -22t28 -32.5t22.5 -46t13.5 -61.5zM151 -161q-57 143 -80 269t-23 231t15.5 188.5t35.5 142t37 91t20 36.5l91 -57q-2 -3 -17 -32t-32 -81.5t-30 -127t-12 -169t22 -208t73 -243.5zM748 -121q52 130 73.5 243.5t22.5 208
t-12 169t-30 127t-32 81t-17 32.5l91 57q2 -4 19.5 -36.5t37.5 -91t35.5 -142t15 -188.5t-23 -231t-80.5 -269z" />
    <glyph glyph-name="uni2479" unicode="&#x2479;" horiz-adv-x="1000" 
d="M502 -89q-73 4 -116 28t-65 50q-18 21 -28 43.5t-14.5 42.5t-5 35.5t-0.5 24.5v176q-2 93 24 167t80 128q39 39 82 60t80 31t63 11.5t32 1.5l-2 -180l-13 -1t-32.5 -6t-41.5 -16t-41 -30q-18 -17 -31 -46q114 16 188 -44q37 -30 55.5 -68.5t26 -75.5t6.5 -67.5t-2 -43.5
q-2 -89 -60 -149q-26 -26 -56.5 -40.5t-57.5 -21.5t-46.5 -8.5t-24.5 -1.5zM452 121q0 -2 0.5 -6.5t5.5 -9t15.5 -9t30.5 -5.5q22 1 42.5 10t20.5 36v7q1 12 1.5 27t-1.5 30t-6.5 27.5t-12.5 18.5q-9 7 -32 7.5t-63 -11.5v-120zM152 -161q-58 143 -80.5 269t-23 231
t15 188.5t35.5 142t37 91t20 36.5l91 -57q-2 -3 -17 -32t-32 -81.5t-30 -127t-12 -169t22.5 -208t73.5 -243.5zM844 797q2 -4 19.5 -36.5t37.5 -91t35.5 -142t15.5 -188.5t-23 -231t-80 -269l-100 40q52 130 73 243.5t22 208t-12 169t-30 127t-32 81t-17 32.5z" />
    <glyph glyph-name="uni247A" unicode="&#x247a;" horiz-adv-x="1000" 
d="M523 -89l-172 54l174 552h-221v180h403v-201zM152 -161q-57 144 -80 269.5t-23 231t15.5 188.5t35.5 141.5t37 91t20 36.5l91 -57q-2 -3 -17 -32t-32 -81.5t-30 -127t-12 -169t22 -208t73 -243.5zM749 -121q52 130 73.5 243.5t22.5 208t-12.5 169t-30.5 127t-32 81
t-17 32.5l92 57q2 -4 19.5 -36.5t37 -91t35 -142t15.5 -188.5t-23 -231t-80 -269z" />
    <glyph glyph-name="uni247B" unicode="&#x247b;" horiz-adv-x="1000" 
d="M710 133q0 -45 -16.5 -85t-45 -70t-67 -47t-81.5 -17q-44 0 -82 17t-66.5 47t-45 70t-16.5 85q0 63 31 114.5t82 79.5q-38 26 -61.5 69t-23.5 95q0 40 14 75.5t39 61.5t58 41.5t71 15.5t71.5 -15.5t58 -41.5t39 -61.5t14.5 -75.5q0 -52 -24 -95t-62 -69q51 -28 82 -79.5
t31 -114.5zM500 559q-23 0 -39.5 -20t-16.5 -48q0 -29 16.5 -48.5t39.5 -19.5t40 19.5t17 48.5q0 28 -17 48t-40 20zM434 133q0 -31 19.5 -53t46.5 -22t46.5 22t19.5 53t-19.5 53t-46.5 22t-46.5 -22t-19.5 -53zM151 -161q-57 143 -80 269t-23 231t15.5 188.5t35.5 142
t37 91t20 36.5l91 -57q-2 -3 -17 -32t-32 -81.5t-30 -127t-12 -169t22.5 -208t73.5 -243.5zM749 -121q52 130 73 243.5t22 208t-12 169t-30 127t-32 81t-17 32.5l91 57q2 -4 19.5 -36.5t37.5 -91t35.5 -142t15 -188.5t-23 -231t-80.5 -269z" />
    <glyph glyph-name="uni247C" unicode="&#x247c;" horiz-adv-x="1000" 
d="M628 11q-92 -102 -248 -102h-15l4 144q78 -3 123.5 30.5t68.5 92.5q-15 -5 -30 -7.5t-31 -2.5q-47 0 -88 20.5t-72 56.5t-48.5 84t-17.5 102t17.5 101.5t48.5 83.5t72 56.5t88 20.5q46 0 86.5 -20t71.5 -54.5t49 -81t20 -99.5q1 -8 3 -32t2 -59.5t-4 -78t-15.5 -87
t-32 -88.5t-52.5 -80zM152 -161q-58 143 -80.5 269t-23 231t15 188.5t35.5 142t37 91t20 36.5l91 -57q-2 -3 -17 -32t-32 -81.5t-30 -127t-12 -169t22.5 -208t73.5 -243.5zM844 797q2 -4 19.5 -36.5t37.5 -91t35.5 -142t15.5 -188.5t-23 -231t-80 -269l-100 40
q52 130 73 243.5t22 208t-12 169t-30 127t-32 81t-17 32.5zM500 310q17 0 32 9.5t26.5 26t18 38t6.5 45.5t-6.5 45.5t-18 38t-26.5 26t-32 9.5t-32 -9.5t-26.5 -26t-18 -38t-6.5 -45.5t6.5 -45.5t18 -38t26.5 -26t32 -9.5z" />
    <glyph glyph-name="uni247D" unicode="&#x247d;" horiz-adv-x="1000" 
d="M603 -69q-154 0 -154 378q0 197 36.5 292.5t111.5 95.5h26.5h14.5t6.5 -0.5t3.5 -0.5q67 -9 98 -101t31 -286q0 -81 -5 -148t-18.5 -116.5t-38.5 -79t-64 -34.5h-48zM151 -161q-57 143 -80 269t-23 231t15.5 188.5t35.5 142t37 91t20 36.5l91 -57q-2 -3 -13 -23.5
t-25 -58.5l87 26h98v-741h-126v601l-41 -12l-28 97q-17 -52 -30.5 -126.5t-13 -169t21.5 -209t74 -245.5zM844 797q2 -4 19.5 -36.5t37.5 -91t35.5 -142t15 -188.5t-23 -231t-80.5 -269l-100 40q52 130 73.5 243.5t22.5 208t-12.5 169t-30.5 127t-32 81t-17 32.5zM611 571
q-5 -8 -11 -27t-11.5 -50.5t-9.5 -77t-4 -107.5q0 -60 4 -104t9.5 -74.5t12 -48.5t11.5 -25h13q3 7 7.5 22t8.5 44t7 74.5t3 111.5q0 69 -3.5 116t-8 77t-10 46t-8.5 23h-10z" />
    <glyph glyph-name="uni247E" unicode="&#x247e;" horiz-adv-x="1000" 
d="M231 649l105 30h97v-741h-126v602l-41 -12zM573 -62v602l-41 -12l-35 121l104 30h98v-741h-126zM152 -161q-57 144 -80 269.5t-23 231t15.5 188.5t35 141.5t37 91t19.5 36.5l92 -57q-2 -3 -17 -32t-32 -81.5t-30.5 -127t-12.5 -169t22.5 -208t73.5 -243.5zM749 -121
q52 130 73 243.5t22 208t-12 169t-30 127t-32 81t-17 32.5l91 57q2 -4 19.5 -36.5t37.5 -91t35.5 -142t15.5 -188.5t-23 -231t-80 -269z" />
    <glyph glyph-name="uni247F" unicode="&#x247f;" horiz-adv-x="1000" 
d="M283 -63v601l-41 -12l-35 121l104 31h98v-741h-126zM695 643q46 -36 60 -99t0 -148l-167 -323h184v-126h-311v155l172 333q6 42 2 70t-18 39q-9 7 -24.5 9t-32 0.5t-32.5 -5.5t-26 -8l-48 116q6 3 31.5 11t61 12t75 -2.5t73.5 -33.5zM151 -161q-57 143 -80 269t-23 231
t15.5 188.5t35.5 142t37 91t20 36.5l91 -57q-2 -3 -17 -32t-32 -81.5t-30 -127t-12 -169t22.5 -208t73.5 -243.5zM844 797q2 -4 19.5 -36.5t37.5 -91t35.5 -142t15.5 -188.5t-23 -231t-80 -269l-100 40q52 130 73 243.5t22 208t-12 169t-30 127t-32 81t-17 32.5z" />
    <glyph glyph-name="uni2480" unicode="&#x2480;" horiz-adv-x="1000" 
d="M286 -20v610l-41 -12l-35 121l104 30h98v-749h-126zM769 542v-23t-5 -43t-16.5 -53t-33.5 -53q11 -9 20.5 -19.5t17.5 -23.5q9 -14 16.5 -32t11 -42t1 -53.5t-14.5 -64.5q-6 -21 -22 -46.5t-42 -48t-63 -37.5t-86 -15q-42 0 -88 13l32 121q42 -11 69.5 -7t44.5 15t25 24
t10 21q19 55 1 84q-7 10 -18 17.5t-22.5 12t-21.5 7t-14 2.5l-58 5v133h63q19 0 28 5.5t14 10.5q8 8 13 19.5t7.5 23.5t3.5 22t1 15q-5 47 -28 61q-11 7 -25.5 8t-29 -1t-26 -5.5t-15.5 -5.5l-48 116q4 2 25 9t51 11t64.5 0t67.5 -23q13 -8 27.5 -20.5t27 -32t22 -46
t13.5 -61.5zM152 -117q-58 144 -80.5 269.5t-23 231t15.5 188.5t35.5 141.5t37 91t19.5 36.5l92 -57q-2 -4 -17 -32.5t-32 -81t-30.5 -127t-12.5 -169t22.5 -208t73.5 -243.5zM845 841q2 -4 19.5 -36.5t37 -91t35 -141.5t15.5 -188.5t-23 -231t-80 -269.5l-100 40
q52 130 73.5 243.5t22.5 208t-12.5 169.5t-30.5 127t-32 81t-17 32z" />
    <glyph glyph-name="uni2481" unicode="&#x2481;" horiz-adv-x="1000" 
d="M287 -20v610l-41 -12l-36 121l105 30h98v-749h-126zM151 -117q-57 144 -80 269.5t-23 231t15.5 188.5t35.5 141.5t37 91t20 36.5l91 -57q-2 -3 -17 -32t-32 -81t-30 -127t-12 -169.5t22 -208t73 -243.5zM844 841q2 -4 19.5 -36.5t37 -91t35.5 -141.5t15.5 -188.5
t-23 -231t-80.5 -269.5l-100 40q12 28 21 57h-125v152h-171v175l163 439l118 -44l-62 -168h78v-276h39v-126h-39v-151q43 122 59 228t15 194t-15 157.5t-30 118t-30.5 75.5t-16.5 30zM644 258v148l-45 -122v-26h45z" />
    <glyph glyph-name="uni2482" unicode="&#x2482;" horiz-adv-x="1000" 
d="M299 -20v610l-41 -12l-35 121l104 30h98v-749h-126zM635 582l-19 -126q24 2 50 -3t52 -19q14 -8 29 -21.5t28 -34t23 -49t13 -67.5v-30.5t-7.5 -58t-25 -70t-52.5 -66.5q-62 -53 -156 -53q-44 0 -102 14l35 139q16 -4 34 -6.5t35.5 -2.5t33 4.5t27.5 14.5t19 25.5
t10.5 31t4 28.5t0.5 18q-2 23 -7.5 38.5t-13.5 20.5q-11 6 -30.5 3t-33.5 -9l-62 -27l-60 112l50 336l3 -1v3h253v-144h-131zM248 784q-2 -4 -17 -32.5t-32 -81t-30.5 -127t-12.5 -169t22.5 -208t73.5 -243.5l-100 -40q-57 144 -80 269.5t-23 231t15.5 188.5t35 141.5t37 91
t19.5 36.5zM844 841q2 -4 19.5 -36.5t37.5 -91t35.5 -141.5t15.5 -188.5t-23 -231t-80 -269.5l-100 40q52 130 73 243.5t22 208t-12 169.5t-30 127t-32 81t-17 32z" />
    <glyph glyph-name="uni2483" unicode="&#x2483;" horiz-adv-x="1000" 
d="M292 -20v610l-41 -12l-35 121l105 30h97v-749h-126zM636 -25q-48 0 -80 21t-51.5 52t-27 66.5t-5.5 65.5v177q-3 212 99 314q26 25 52 39t48 20t36.5 7t17.5 1l-2 -72l1 -72q-12 0 -26.5 -7t-28.5 -22.5t-26 -41t-19 -62.5q35 5 61 -3t43 -20q36 -25 53 -66t22 -83
t3 -76.5t-4 -47.5q-8 -57 -27 -93.5t-43 -58t-49.5 -30t-46.5 -8.5zM659 184q3 22 3 44.5t-2 41t-5.5 32t-8.5 18.5q0 -1 -7.5 -2t-22.5 -8v-138q0 -13 2 -24q2 -9 5.5 -17.5t11.5 -10.5q4 2 11.5 15.5t12.5 48.5zM148 -117q-57 144 -80 269.5t-23 231t15.5 188.5t35 141.5
t37 91t19.5 36.5l92 -57q-2 -3 -17 -32t-32 -81t-30.5 -127t-12.5 -169.5t22.5 -208t73.5 -243.5zM848 841q3 -4 20 -36.5t37 -91t35.5 -141.5t15.5 -188.5t-23 -231t-80 -269.5l-100 40q52 130 73 243.5t22 208t-12 169.5t-30 127t-32 81t-17 32z" />
    <glyph glyph-name="uni2484" unicode="&#x2484;" horiz-adv-x="1000" 
d="M302 -20v610l-42 -12l-35 121l105 30h97v-749h-125zM769 537l-126 -580l-141 30l125 573v17h-126v144h270zM154 -117q-58 144 -80.5 269.5t-23 231t15.5 188.5t35.5 141.5t37 91t19.5 36.5l92 -57q-2 -3 -17 -32t-32 -81t-30.5 -127t-12.5 -169.5t22.5 -208t73.5 -243.5z
M843 841q2 -4 19.5 -36.5t37.5 -91t35.5 -141.5t15 -188.5t-23 -231t-80.5 -269.5l-100 40q52 130 73.5 243.5t22.5 208t-12 169.5t-30 127t-32 81t-17 32z" />
    <glyph glyph-name="uni2485" unicode="&#x2485;" horiz-adv-x="1000" 
d="M844 841q2 -4 19.5 -36.5t37.5 -91t35.5 -142t15 -188.5t-23 -231t-80.5 -269l-100 40q17 41 29.5 79t22.5 75q-24 -51 -68.5 -82t-99.5 -31q-39 0 -74 17t-61 47t-41 69.5t-15 84.5q0 63 28.5 114.5t74.5 79.5q-35 26 -56.5 69t-21.5 95q0 40 13 75.5t35.5 61.5t53 41.5
t64.5 15.5t64.5 -15.5t53.5 -41.5t36 -61.5t13 -75.5q0 -52 -21.5 -95t-56.5 -69q46 -28 74 -79.5t28 -114.5v-4q18 92 20 172.5t-5.5 147t-21 118.5t-27.5 88.5t-24.5 56.5t-12.5 23zM406 -20h-126v610l-41 -12l-33 115q-18 -50 -34 -124.5t-16.5 -172t20 -216.5t75.5 -257
l-100 -40q-57 144 -80 269.5t-23 231t15.5 188.5t35.5 141.5t37 91t20 36.5l91 -57q-2 -3 -13.5 -24.5t-25.5 -59.5l101 29h97v-749zM632 108q16 0 32 21t15 53q0 32 -15 53.5t-32 21.5t-32 -21.5t-15 -53.5t15 -53t32 -21zM632 608q-14 0 -27.5 -19.5t-13.5 -48.5
t13.5 -48.5t27.5 -19.5t27.5 19.5t13.5 48.5t-13.5 48.5t-27.5 19.5z" />
    <glyph glyph-name="uni2486" unicode="&#x2486;" horiz-adv-x="1000" 
d="M544 95q38 -1 64 25q17 19 29 47.5t20 63.5q-12 -4 -27 -4q-36 0 -66.5 19.5t-53 53.5t-35 80.5t-12.5 100.5t12.5 100.5t35 80t53 53t66.5 19.5q35 0 65.5 -19t52.5 -52.5t35 -79t13 -98.5q1 -10 2.5 -38t1 -67.5t-5 -86.5t-15.5 -94t-30.5 -90.5t-49.5 -75.5t-68 -47.5
t-82 -15.5h-11zM291 -20v610l-41 -12l-35 121l104 30h98v-749h-126zM844 841q2 -4 19.5 -36.5t37.5 -91t35.5 -141.5t15.5 -188.5t-23 -231t-80 -269.5l-101 40q53 131 74 245.5t21.5 210t-13 170t-31 126.5t-32 80t-14.5 29zM247 784q-2 -4 -17 -32.5t-32 -81t-30 -127
t-12 -169t22.5 -208t73.5 -243.5l-101 -40q-57 144 -80 269.5t-23 231t15.5 188.5t35.5 141.5t37 91t20 36.5zM631 353q3 1 9.5 10.5t13 25.5t11.5 39t5 53q0 29 -5 52t-11.5 39t-13.5 25t-11 11q-3 -2 -10 -11t-13.5 -25t-11.5 -39t-5 -52q0 -30 5 -53t12 -39t14 -25.5
t11 -10.5z" />
    <glyph glyph-name="uni2487" unicode="&#x2487;" horiz-adv-x="1000" 
d="M490 453l-147 -342h154v-126h-271q5 -16 10.5 -31t12.5 -31l-100 -40q-58 144 -80.5 269.5t-23 231t15 188.5t35.5 141.5t37 91t20 36.5l91 -57q-2 -3 -15.5 -29t-29.5 -73t-29.5 -113.5t-16 -151.5t11 -187.5t52.5 -219.5v127l154 359q8 48 3 70t-11 27q-6 4 -17.5 5
t-26 -1t-30 -7t-28.5 -11l-54 113q5 3 30 12.5t59 15.5t72 2t71 -29q85 -64 55 -226zM826 342q0 -81 -5 -148t-18.5 -116.5t-38.5 -79t-64 -34.5h-48q-154 0 -154 378q0 197 36.5 292.5t111.5 95.5h26.5h14t6.5 -0.5t4 -0.5q67 -9 98 -101t31 -286zM848 841q2 -4 19.5 -36.5
t37 -91t35.5 -141.5t15.5 -188.5t-23 -231t-80.5 -269.5l-100 40q52 130 73.5 243.5t22.5 208t-12.5 169.5t-30.5 127t-32 81t-17 32zM674 89q3 7 7.5 22.5t8.5 44.5t7 74.5t3 111.5q0 68 -3.5 115t-8 77.5t-10 46.5t-8.5 23h-10q-5 -8 -11 -27t-11.5 -50.5t-9.5 -77
t-4 -107.5q0 -60 4 -104.5t9.5 -75t12 -48.5t11.5 -25h13z" />
    <glyph glyph-name="uni2488" unicode="&#x2488;" horiz-adv-x="1000" 
d="M147 446l-50 173l209 61h129v-768h-180v566zM723 132h180v-218h-180v218z" />
    <glyph glyph-name="uni2489" unicode="&#x2489;" horiz-adv-x="1000" 
d="M104 95l242 320q0 31 -6 52t-17 29q-12 8 -31.5 9.5t-41 -1.5t-42 -9.5t-34.5 -12.5l-74 164l22.5 9t43.5 14t58 12t66.5 4t69 -10t66.5 -31q113 -79 99 -267l-2 -27l-204 -269h202v-180h-417v194zM719 137h180v-228h-180v228z" />
    <glyph glyph-name="uni248A" unicode="&#x248a;" horiz-adv-x="1000" 
d="M101 633q6 3 34 16t68.5 22.5t88.5 10t94 -20.5q17 -8 36 -21.5t37 -34.5t32.5 -50.5t23.5 -69.5l2 -17q0 -35 -13 -83t-48 -93q35 -45 48.5 -93t12.5 -83l-2 -14q-7 -40 -20 -69.5t-29.5 -50.5t-35 -35t-35.5 -22q-26 -13 -52.5 -18t-52.5 -5q-35 0 -67 6.5t-57.5 15
t-42.5 16.5t-21 11l84 159q13 -7 31 -13.5t36.5 -10.5t35 -4.5t26.5 4.5q9 4 14 15.5t7 22.5q0 6 -2.5 16t-7.5 21.5t-14.5 22t-24.5 18.5h-102v180h102q15 7 24.5 17.5t14.5 21.5t7.5 21t2.5 16q-8 32 -25 40q-12 5 -29 4t-34.5 -5t-34 -10.5t-26.5 -11.5zM718 139h180
v-224h-180v224z" />
    <glyph glyph-name="uni248B" unicode="&#x248b;" horiz-adv-x="1000" 
d="M732 139h180v-224h-180v224zM231 218v-16h115v198h144v-198h61v-144h-61v-143h-144v143h-259v199l272 474l125 -72z" />
    <glyph glyph-name="uni248C" unicode="&#x248c;" horiz-adv-x="1000" 
d="M707 139h179v-224h-179v224zM289 507l-19 -127q35 4 75.5 -1t77.5 -28q14 -9 29 -22t28 -32.5t22.5 -46t13.5 -61.5v-27.5t-6.5 -53.5t-23.5 -66t-50 -65q-76 -68 -203 -68q-27 0 -56.5 3.5t-61.5 9.5l28 141q70 -14 120 -8.5t76 29.5q14 12 20.5 27.5t9.5 29.5
q4 16 3 33q-3 31 -11.5 41.5t-12.5 12.5q-11 7 -26.5 9t-31.5 0.5t-30.5 -5t-23.5 -6.5l-53 -19l-69 102l49 330v12h316v-144h-190z" />
    <glyph glyph-name="uni248D" unicode="&#x248d;" horiz-adv-x="1000" 
d="M722 139h179v-224h-179v224zM326 -114q-36 2 -64 9.5t-50 18.5t-37.5 24t-25.5 25q-18 22 -28.5 44t-15 42t-5 35.5t0.5 24.5v176q-5 186 104 295q39 39 82 60.5t80 31t63 11t32 1.5l-2 -180l-13 -1t-32.5 -6t-42 -15.5t-41.5 -29.5q-9 -10 -17 -21t-13 -25
q114 15 188 -44q36 -30 54.5 -68.5t26 -76t7 -68t-1.5 -43.5q-1 -44 -16.5 -81.5t-44.5 -66.5q-26 -26 -56 -40.5t-57 -21.5t-47 -8.5t-24 -1.5h-4zM395 118q1 12 1.5 27t-2 30t-7 28t-11.5 19q-9 7 -32 7.5t-63 -12.5v-119q-1 -3 -0.5 -8t5 -10t15.5 -9t31 -5
q10 0 21.5 2.5t20.5 7.5t15 13.5t6 22.5v6z" />
    <glyph glyph-name="uni248E" unicode="&#x248e;" horiz-adv-x="1000" 
d="M705 139h180v-224h-180v224zM114 679h404v-200l-185 -585l-171 54l173 551h-221v180z" />
    <glyph glyph-name="uni248F" unicode="&#x248f;" horiz-adv-x="1000" 
d="M712 139h180v-224h-180v224zM135 474q0 40 14.5 75.5t39 61.5t57.5 41.5t71 15.5t71.5 -15.5t58 -41.5t39 -61.5t14.5 -75.5q0 -52 -24 -95t-62 -69q51 -28 82 -79.5t31 -114.5q0 -45 -16.5 -84.5t-45 -69.5t-67 -47t-81.5 -17t-81.5 17t-67 47t-45 69.5t-16.5 84.5
q0 63 31 114.5t82 79.5q-38 26 -61.5 69t-23.5 95zM317 41q27 0 46.5 22t19.5 53t-19.5 53t-46.5 22t-46.5 -22t-19.5 -53t19.5 -53t46.5 -22zM374 474q0 29 -17 48.5t-40 19.5t-39.5 -19.5t-16.5 -48.5t16.5 -48.5t39.5 -19.5t40 19.5t17 48.5z" />
    <glyph glyph-name="uni2490" unicode="&#x2490;" horiz-adv-x="1000" 
d="M325 681q46 0 86.5 -20t71.5 -55t49 -81.5t19 -99.5q1 -8 3 -32t2 -59.5t-4 -78t-15.5 -87t-32 -88.5t-52.5 -80q-92 -102 -247 -102h-16l5 144q78 -3 123.5 30.5t67.5 92.5q-14 -5 -29 -7.5t-31 -2.5q-47 0 -88.5 20.5t-72 56.5t-48.5 84t-18 102t18 102t48.5 84
t72 56.5t88.5 20.5zM721 139h180v-224h-180v224zM325 299q17 0 32 9.5t26 26t17.5 38t6.5 45.5t-6.5 45.5t-17.5 38t-26 26t-32 9.5t-32 -9.5t-26.5 -26t-18 -38t-6.5 -45.5t6.5 -45.5t18 -38t26.5 -26t32 -9.5z" />
    <glyph glyph-name="uni2491" unicode="&#x2491;" horiz-adv-x="1000" 
d="M534 668q67 -9 97.5 -101t31.5 -286q0 -81 -5 -148t-19 -116.5t-38.5 -79t-63.5 -34.5h-48q-154 0 -154 378q0 197 36.5 292.5t111.5 95.5h26h14t7 -0.5t4 -0.5zM154 -85v601l-41 -12l-35 122l104 30h98v-741h-126zM742 139h180v-224h-180v224zM510 29q3 7 8 22t9 44
t7 74.5t3 111.5q0 68 -3.5 115t-8 77.5t-10 46.5t-8.5 23h-11q-5 -8 -11 -27t-11 -50.5t-9 -77t-4 -107.5q0 -60 4 -104.5t9.5 -75t12 -48t11.5 -24.5h12z" />
    <glyph glyph-name="uni2492" unicode="&#x2492;" horiz-adv-x="1000" 
d="M109 504l-35 122l104 30h98v-741h-126v601zM476 656h97v-741h-126v601l-41 -12l-35 122zM745 139h180v-224h-180v224z" />
    <glyph glyph-name="uni2493" unicode="&#x2493;" horiz-adv-x="1000" 
d="M114 504l-35 122l105 30h97v-741h-126v601zM741 139h180v-224h-180v224zM586 621q48 -37 60.5 -98.5t-0.5 -148.5l-167 -323h184v-126h-311v155l172 333q6 42 2 70t-18 39q-9 7 -24.5 9t-32 0.5t-32.5 -5.5t-26 -8l-48 116q6 3 31.5 11t61 12t75 -2.5t73.5 -33.5z" />
    <glyph glyph-name="uni2494" unicode="&#x2494;" horiz-adv-x="1000" 
d="M151 -45v610l-41 -12l-35 121l104 30h98v-749h-126zM744 179h180v-224h-180v224zM371 98q45 -12 74 -7t45.5 17t22.5 25t7 16q19 57 1 85q-7 10 -18 17.5t-22.5 12t-21.5 7t-14 2.5l-57 5v134h62q19 0 28.5 5t14.5 10q8 8 13 19t7.5 22.5t3.5 22t1 16.5q-6 47 -29 61
q-11 7 -25.5 8t-28.5 -1t-25.5 -5.5t-16.5 -5.5l-48 117q4 2 25 9t51 10.5t65 -0.5t68 -23q13 -8 27.5 -21t27.5 -33t22.5 -47t11.5 -62v-22t-5 -42.5t-16.5 -52.5t-32.5 -52q22 -17 38 -42q9 -14 16.5 -32.5t10.5 -42.5t0.5 -53t-14.5 -64q-6 -21 -22 -46.5t-42 -48
t-63 -37.5t-86 -15q-20 0 -42 2.5t-46 9.5z" />
    <glyph glyph-name="uni2495" unicode="&#x2495;" horiz-adv-x="1000" 
d="M278 -45h-126v610l-41 -12l-35 121l104 30h98v-749zM743 179h180v-224h-180v224zM674 107h-39v-151h-126v151h-171v176l164 439l118 -44l-63 -169h78v-276h39v-126zM509 233v148l-45 -121v-27h45z" />
    <glyph glyph-name="uni2496" unicode="&#x2496;" horiz-adv-x="1000" 
d="M77 674l104 30h98v-749h-126v610l-41 -12zM743 179h180v-224h-180v224zM498 557l-19 -125q24 1 50 -4t52 -19q14 -8 29 -21.5t28 -34t23 -49t13 -67.5v-30.5t-7.5 -58t-25 -70t-52.5 -66.5q-62 -53 -155 -53q-46 0 -102 14l34 140q16 -4 34 -7t35.5 -3t33 4.5t27.5 14.5
t19.5 25.5t11 31t4 28.5t-0.5 19q-2 23 -7.5 38t-13.5 20q-6 4 -15 4.5t-18.5 -1t-17.5 -4t-12 -4.5l-62 -29l-61 113l51 336h2v2h254v-144h-132z" />
    <glyph glyph-name="uni2497" unicode="&#x2497;" horiz-adv-x="1000" 
d="M153 -45v610l-41 -12l-35 121l104 30h98v-749h-126zM743 179h180v-224h-180v224zM514 -50q-48 0 -80 21t-51 52t-26.5 66.5t-5.5 65.5v177q-3 213 99 314q25 25 51 38.5t48 20t37 7.5t18 1l-2 -72v-72q-12 0 -26.5 -7t-28 -22.5t-25.5 -41t-19 -62.5q35 5 60.5 -3
t42.5 -20q36 -25 53 -66t22.5 -82.5t3 -76.5t-3.5 -48q-8 -57 -27 -93.5t-43.5 -58t-50 -30t-46.5 -8.5zM524 295q0 -1 -7 -1.5t-22 -8.5l-1 -137q0 -13 2 -24q2 -10 5.5 -18.5t11.5 -10.5q4 2 12 15.5t13 48.5q3 22 3 44.5t-2 41t-6 32t-9 18.5z" />
    <glyph glyph-name="uni2498" unicode="&#x2498;" horiz-adv-x="1000" 
d="M152 -45v610l-41 -12l-35 121l104 30h98v-749h-126zM743 179h180v-224h-180v224zM492 535v17h-125v144h269l-1 -184l-127 -580l-140 30z" />
    <glyph glyph-name="uni2499" unicode="&#x2499;" horiz-adv-x="1000" 
d="M155 -45v610l-41 -12l-35 121l104 30h98v-749h-126zM740 179h180v-224h-180v224zM595 351q46 -27 74.5 -78.5t28.5 -115.5q0 -45 -15 -84.5t-41 -69.5t-61 -47t-74 -17q-40 0 -74.5 17t-60.5 47t-41 69.5t-15 84.5q0 64 28 115.5t74 78.5q-35 26 -56.5 69t-21.5 95
q0 40 13 75.5t36 61.5t53 41.5t65 15.5q34 0 64.5 -15.5t53 -41.5t35.5 -61.5t13 -75.5q0 -52 -21.5 -95t-56.5 -69zM507 583q-14 0 -27.5 -19.5t-13.5 -48.5t13.5 -48.5t27.5 -19.5t27 19.5t13 48.5t-13 48.5t-27 19.5zM507 83q17 0 32 21t15 53t-15 53.5t-32 21.5
t-32.5 -21.5t-15.5 -53.5t15.5 -53t32.5 -21z" />
    <glyph glyph-name="uni249A" unicode="&#x249a;" horiz-adv-x="1000" 
d="M421 71q39 -3 64 24q18 19 29.5 48t19.5 63q-7 -2 -13.5 -3t-13.5 -1q-36 0 -66.5 19.5t-53 53.5t-35 80.5t-12.5 100.5t12.5 100.5t35 80.5t53 53.5t66.5 19.5q35 0 65.5 -19t52.5 -52.5t35 -79t13 -99.5q1 -10 2.5 -38t1 -67.5t-4.5 -86.5t-15 -94t-30.5 -90.5
t-50.5 -75.5q-61 -63 -150 -63h-11zM153 -45v610l-41 -12l-35 121l104 30h98v-749h-126zM742 179h180v-224h-180v224zM508 328q3 1 10 10.5t13.5 25.5t11.5 39t5 53q0 29 -5 52t-12 39.5t-14 25.5t-11 11q-3 -2 -9.5 -11t-13 -25.5t-11.5 -39.5t-5 -52q0 -30 5 -53t11.5 -39
t13.5 -25.5t11 -10.5z" />
    <glyph glyph-name="uni249B" unicode="&#x249b;" horiz-adv-x="1000" 
d="M571 704q67 -9 98 -101t31 -286q0 -81 -5 -148t-18.5 -116.5t-38.5 -79t-64 -34.5h-48q-154 0 -154 378q0 197 36.5 292.5t111.5 95.5h26.5h14t6.5 -0.5t4 -0.5zM75 668q6 3 30.5 12.5t59 15.5t72.5 2t71 -29q84 -63 55 -227l-4 -14l-147 -342h153v-126h-279v153l154 358
q8 48 3 70t-11 27q-6 4 -18 5t-26 -1t-29.5 -7t-28.5 -11zM745 179h180v-224h-180v224zM548 65q3 7 7.5 22t8.5 44t7 74.5t3 111.5q0 68 -3.5 115t-8 77.5t-10 46.5t-8.5 23h-10q-5 -8 -11 -27t-11.5 -50.5t-9.5 -77t-4 -107.5q0 -60 4 -104.5t9.5 -75t12 -48t11.5 -24.5h13
z" />
    <glyph glyph-name="uni3001" unicode="&#x3001;" horiz-adv-x="1000" 
d="M103 95l101 103l240 -236l-101 -103z" />
    <glyph glyph-name="uni3002" unicode="&#x3002;" horiz-adv-x="1000" 
d="M300 -154q-35 0 -65.5 13t-53.5 36t-36.5 54t-13.5 66t13.5 65.5t36.5 53.5t53.5 36t65.5 13t65.5 -13t53.5 -36t36.5 -53.5t13.5 -65.5t-13.5 -66t-36.5 -54t-53.5 -36t-65.5 -13zM319 75q-26 0 -43.5 -17.5t-17.5 -42.5q0 -26 17.5 -43.5t43.5 -17.5t43.5 17.5
t17.5 43.5q0 25 -17.5 42.5t-43.5 17.5z" />
    <glyph glyph-name="uni3008" unicode="&#x3008;" horiz-adv-x="1000" 
d="M705 -211l-179 507l165 513l164 -53l-147 -457l160 -453z" />
    <glyph glyph-name="uni3009" unicode="&#x3009;" horiz-adv-x="1000" 
d="M124 -154l160 453l-148 457l165 53l165 -513l-180 -507z" />
    <glyph glyph-name="uni300A" unicode="&#x300a;" horiz-adv-x="1000" 
d="M488 -112l-174 506l168 507l144 -47l-153 -459l157 -458zM705 395l157 -458l-142 -49l-174 506l168 507l144 -47z" />
    <glyph glyph-name="uni300B" unicode="&#x300b;" horiz-adv-x="1000" 
d="M366 859l143 47l169 -507l-174 -506l-143 49l157 458zM129 -58l158 458l-153 459l143 47l169 -507l-174 -506z" />
    <glyph glyph-name="uni300C" unicode="&#x300c;" horiz-adv-x="1000" 
d="M374 785h252v-169h-82v-456h-170v625z" />
    <glyph glyph-name="uni300D" unicode="&#x300d;" horiz-adv-x="1000" 
d="M625 -195h-251v169h82v462h169v-631z" />
    <glyph glyph-name="uni300E" unicode="&#x300e;" horiz-adv-x="1000" 
d="M338 781h324v-220h-107v-433l-217 -1v654zM413 203h67v433h107v69h-174v-502z" />
    <glyph glyph-name="uni300F" unicode="&#x300f;" horiz-adv-x="1000" 
d="M446 32v443h215v-661h-322v218h107zM521 -44h-106v-66h171v509h-65v-443z" />
    <glyph glyph-name="uni3010" unicode="&#x3010;" horiz-adv-x="1000" 
d="M785 852q-59 -100 -87 -222.5t-28 -250.5q0 -143 29.5 -262t86.5 -211h-262v946h261z" />
    <glyph glyph-name="uni3011" unicode="&#x3011;" horiz-adv-x="1000" 
d="M113 -94q56 92 86 211t30 262q0 128 -27.5 250.5t-87.5 222.5h261v-946h-262v0z" />
    <glyph glyph-name="uni3014" unicode="&#x3014;" horiz-adv-x="1000" 
d="M537 785l241 93l63 -161l-132 -51v-575l131 -49l-61 -162l-242 92v813z" />
    <glyph glyph-name="uni3015" unicode="&#x3015;" horiz-adv-x="1000" 
d="M282 667l-131 50l62 162l242 -94v-812l-243 -92l-61 162l131 49v575z" />
    <glyph glyph-name="uni3220" unicode="&#x3220;" horiz-adv-x="1000" 
d="M152 -99q-57 144 -80 269.5t-23 231t15.5 188.5t35 141.5t37 91t19.5 36.5l92 -57q-2 -3 -17 -32t-32 -81t-30.5 -127t-12.5 -169.5t22.5 -208t73.5 -243.5zM845 859q2 -4 19.5 -36.5t37 -91t35 -141.5t15.5 -188.5t-23 -231t-80 -269.5l-100 40q52 130 73.5 243.5
t22.5 208t-12.5 169.5t-30.5 127t-32 81t-17 32zM229 485h564v-162h-564v162z" />
    <glyph glyph-name="uni3221" unicode="&#x3221;" horiz-adv-x="1000" 
d="M152 -99q-57 144 -80 269.5t-23 231t15.5 188.5t35 141.5t37 91t19.5 36.5l92 -57q-2 -3 -17 -32t-32 -81t-30.5 -127t-12.5 -169.5t22.5 -208t73.5 -243.5zM845 859q2 -4 19.5 -36.5t37 -91t35 -141.5t15.5 -188.5t-23 -231t-80 -269.5l-100 40q52 130 73.5 243.5
t22.5 208t-12.5 169.5t-30.5 127t-32 81t-17 32zM291 667h428v-144h-428v144zM237 196h542v-144h-542v144z" />
    <glyph glyph-name="uni3222" unicode="&#x3222;" horiz-adv-x="1000" 
d="M139 -99q-57 144 -80 269.5t-23 231t15.5 188.5t35 141.5t37 91t19.5 36.5l92 -57q-2 -3 -17 -32t-32 -81.5t-30.5 -127t-12.5 -169t22.5 -208t73.5 -243.5zM857 859q2 -4 19.5 -36.5t37 -91t35 -141.5t15.5 -188.5t-23 -231t-80 -269.5l-100 40q52 130 73.5 243.5
t22.5 208t-12.5 169t-30.5 127t-32 81t-17 32.5zM263 712h465v-126h-465v126zM295 460h405v-126h-405v126zM222 192h545v-125h-545v125z" />
    <glyph glyph-name="uni3223" unicode="&#x3223;" horiz-adv-x="1000" 
d="M787 55h-108v1h-462v654h108v-1h462v-654zM139 -99q-57 144 -80 269.5t-23 231t15.5 188.5t35 141.5t37 91t19.5 36.5l92 -57q-2 -3 -17 -32t-32 -81.5t-30 -127t-12 -169t22 -208t73 -243.5zM857 859q2 -4 19.5 -36.5t37 -91t35 -141.5t15.5 -188.5t-23 -231t-80 -269.5
l-100 40q52 130 73.5 243.5t22.5 208t-12.5 169t-30.5 127t-32 81t-17 32.5zM679 164v112h-173v325h-21l-65 -378l-95 16v-75h354zM679 601h-65v-217h65v217zM325 601v-297l50 297h-50z" />
    <glyph glyph-name="uni3224" unicode="&#x3224;" horiz-adv-x="1000" 
d="M139 -99q-57 144 -80 269.5t-23 231t15.5 188.5t35.5 141.5t37 91t20 36.5l91 -57q-2 -3 -17 -32t-32 -81.5t-30 -127t-12 -169t22.5 -208t73.5 -243.5zM857 859q2 -4 19.5 -36.5t37.5 -91t35.5 -141.5t15.5 -188.5t-23 -231t-80 -269.5l-100 40q52 130 73 243.5t22 208
t-12 169.5t-30 127t-32 81t-17 32zM512 592l-18 -109h206v-321h80v-126h-563v126h113l33 195h-98v126h119l19 109h-149v126h496v-126h-238zM473 357l-33 -195h134v195h-101z" />
    <glyph glyph-name="uni3225" unicode="&#x3225;" horiz-adv-x="1000" 
d="M140 -99q-58 144 -80.5 269.5t-23 231t15 188.5t35.5 141.5t37 91t20 36.5l92 -57q-2 -3 -15 -27t-28 -67.5t-29 -105.5t-18.5 -140.5t5 -174t40.5 -204.5l148 334l132 -58l-154 -347l-121 54q9 -31 20 -62t24 -63zM858 859q2 -4 19.5 -36.5t37 -91t35 -141.5
t15.5 -188.5t-23 -231t-80 -269.5l-100 40q12 30 22 59t19 58l-100 -48l-167 347l129 63l152 -314q28 106 35.5 198t2.5 168.5t-19 136t-29 101.5t-27 65.5t-14 26.5zM212 600h213v151h144v-151h217v-144h-574v144z" />
    <glyph glyph-name="uni3226" unicode="&#x3226;" horiz-adv-x="1000" 
d="M139 -99q-57 144 -80 269.5t-23 231t15.5 188.5t35 141.5t37 91t19.5 36.5l92 -57q-2 -3 -17 -32t-32 -81t-30.5 -127t-12.5 -169.5t22.5 -208t73.5 -243.5zM857 859q2 -4 19.5 -36.5t37 -91t35 -141.5t15.5 -188.5t-23 -231t-80 -269.5l-100 40q52 130 73.5 243.5
t22.5 208t-12.5 169.5t-30.5 127t-32 81t-17 32zM497 395v-249h110l31 138l140 -31l-55 -251h-370v367l-150 -28l-26 142l176 32v216h144v-190l265 48l25 -142z" />
    <glyph glyph-name="uni3227" unicode="&#x3227;" horiz-adv-x="1000" 
d="M139 -99q-57 144 -80 269.5t-23 231t15.5 188.5t35.5 141.5t37 91t20 36.5l91 -57q-2 -3 -15 -27.5t-28.5 -68.5t-29 -106.5t-17.5 -142.5t6 -176t42 -206l162 655l105 -26l-166 -669l-96 24q8 -29 18.5 -58t22.5 -60zM857 859q2 -4 19.5 -36.5t37.5 -91t35.5 -141.5
t15 -188.5t-23 -231t-80.5 -269.5l-100 40q52 130 73.5 243.5t22.5 208t-12 169.5t-30 127t-32 81t-17 32zM498 701l103 32l205 -657l-103 -32z" />
    <glyph glyph-name="uni3228" unicode="&#x3228;" horiz-adv-x="1000" 
d="M140 -99q-58 144 -80.5 269.5t-23 231t15 188.5t35.5 141.5t37 91t20 36.5l92 -57q-2 -3 -15.5 -29.5t-30 -74t-30 -115t-15.5 -153.5t12.5 -189.5t54.5 -222.5l75 465h-77v144h101l22 140l142 -23l-19 -117h184l26 -428l55 62l108 -95l-174 -197l-123 76l-27 438h-72
l-81 -497l-137 22l25 -67zM858 859q2 -4 19.5 -36.5t37 -91t35 -141.5t15.5 -188.5t-23 -231t-80 -269.5l-100 40q52 130 73.5 243.5t22.5 208t-12.5 169.5t-30.5 127t-32 81t-17 32z" />
    <glyph glyph-name="uni3229" unicode="&#x3229;" horiz-adv-x="1000" 
d="M152 -99q-58 144 -80.5 269.5t-23 231t15 188.5t35.5 141.5t37 91t20 36.5l92 -57q-2 -3 -17 -32t-32 -81t-30.5 -127t-12.5 -169.5t22.5 -208t73.5 -243.5zM844 859q2 -4 19.5 -36.5t37.5 -91t35.5 -141.5t15.5 -188.5t-23 -231t-80 -269.5l-100 40q52 130 73 243.5
t22 208t-12 169.5t-30 127t-32 81t-17 32zM432 -1v357h-230v144h230v251h144v-251h230v-144h-230v-357h-144z" />
    <glyph glyph-name="uni4E00" unicode="&#x4e00;" 
d="M56 461h813v-202h-813v202z" />
    <glyph glyph-name="uni4E01" unicode="&#x4e01;" 
d="M395 659h-342v179h819v-179h-310v-778h-292v183h125v595z" />
    <glyph glyph-name="uni4E03" unicode="&#x4e03;" 
d="M76 302l-30 153l241 48v338h147v-308l414 82l31 -153l-445 -89v-325h186l85 178l157 -76l-130 -271h-445v465z" />
    <glyph glyph-name="uni4E07" unicode="&#x4e07;" 
d="M220 639h-166v173h813v-173h-473l-13 -97h405v-643h-297v189h137v276h-269l-66 -490l-172 22z" />
    <glyph glyph-name="uni4E08" unicode="&#x4e08;" 
d="M40 -24l282 282l-168 144l101 118l177 -152l39 39v142h-388v167h388v144h156v-144h233v-167h-233v-218l-70 -70l328 -281l-101 -118l-337 289l-291 -291z" />
    <glyph glyph-name="uni4E09" unicode="&#x4e09;" 
d="M110 803h708v-185h-708v185zM149 463h630v-185h-630v185zM49 107h828v-190h-828v190z" />
    <glyph glyph-name="uni4E0A" unicode="&#x4e0a;" 
d="M873 -119h-821v176h294v781h165v-265h300v-176h-300v-340h362v-176z" />
    <glyph glyph-name="uni4E0B" unicode="&#x4e0b;" 
d="M343 661h-291v176h822v-176h-364v-164l56 64l278 -247l-117 -131l-217 192v-492h-167v778z" />
    <glyph glyph-name="uni4E0C" unicode="&#x4e0c;" 
d="M226 653h-169v178h811v-178h-150v-743h-159v743h-152l-147 -765l-174 33z" />
    <glyph glyph-name="uni4E0D" unicode="&#x4e0d;" 
d="M146 103l-126 105l375 450h-312v177h749v-177h-225l-154 -186h81v-45l73 79l299 -281l-121 -129l-251 235v-446h-155v499z" />
    <glyph glyph-name="uni4E0E" unicode="&#x4e0e;" 
d="M313 594l-9 -96h524v-638h-292v167h132v303h-531l13 168l32 362l153 -13l-7 -88h530v-165h-545zM68 248h557v-174h-557v174z" />
    <glyph glyph-name="uni4E10" unicode="&#x4e10;" 
d="M383 673h-323v167h806v-167h-335v-71h294v-158h-294v-71h290v-494h-339v165h179v167h-567l34 411l153 -13l-19 -236h121v300z" />
    <glyph glyph-name="uni4E11" unicode="&#x4e11;" 
d="M878 62v-174h-830v174h163l22 226h-122v172h138l19 195h-157v177h701l-30 -770h96zM629 288h-234l-22 -226h247zM644 655h-214l-19 -195h225z" />
    <glyph glyph-name="uni4E13" unicode="&#x4e13;" 
d="M179 408h-130v159h197l27 64h-179v148h241l38 90l171 -72l-7 -18h298v-148h-360l-27 -64h429v-159h-496l-27 -64h453v-173h-1l-165 -112l138 -39l-47 -169l-592 166l48 169l289 -81l133 90h-469v123z" />
    <glyph glyph-name="uni4E14" unicode="&#x4e14;" 
d="M785 51h94v-170h-832v170h91v787h647v-787zM634 145h-338v-94h338v94zM634 409h-338v-97h338v97zM634 668h-338v-93h338v93z" />
    <glyph glyph-name="uni4E15" unicode="&#x4e15;" 
d="M65 54h796v-166h-796v166zM136 184l-118 131l378 341h-307v176h752v-176h-181l-119 -107v-92l71 91l296 -230l-104 -134l-263 204v-291h-157v311z" />
    <glyph glyph-name="uni4E16" unicode="&#x4e16;" 
d="M366 134v335h-89v-427h565v-169h-716v596h-78v174h78v191h151v-191h88v203h149v-203h111v203h149v-203h104v-174h-104v-335h-408zM514 298h111v171h-111v-171z" />
    <glyph glyph-name="uni4E18" unicode="&#x4e18;" 
d="M686 56h191v-177h-828v177h107v721h5l-1 1l624 62l19 -190l-487 -48v-116h520v-177h-150v-253zM525 309h-209v-253h209v253z" />
    <glyph glyph-name="uni4E19" unicode="&#x4e19;" 
d="M600 671l-34 -75h267v-719h-239v169h99v143l-80 -105l-205 157l-79 -177l-96 43v-230h-142v719h293l33 75h-360v171h811v-171h-268zM310 430h-77v-173zM493 430l-16 -34l216 -165v199h-200z" />
    <glyph glyph-name="uni4E1A" unicode="&#x4e1a;" 
d="M194 198l-149 397l146 55l86 -229v417h152v-780h65l3 781l156 -1l-2 -402l85 216l145 -57l-154 -394l-76 30l-1 -173h224v-177h-825v177h228v172z" />
    <glyph glyph-name="uni4E1B" unicode="&#x4e1b;" 
d="M190 133l-151 42l187 674l150 -42l-32 -118l118 -147l85 307l151 -42l-47 -169l236 -449l-135 -71l-160 305l-87 -312l-150 42l76 276l-45 -36l-92 115zM48 55h811v-185h-811v185z" />
    <glyph glyph-name="uni4E1C" unicode="&#x4e1c;" 
d="M417 30v211h-310v162h13l-7 4l88 165h-128v168h219l68 126l131 -70l-30 -56h389v-168h-480l-91 -169h138v132h147v-132h261v-162h-261v-388h-224v177h77zM31 -16l195 252l128 -99l-195 -252zM567 134l126 102l202 -248l-126 -102z" />
    <glyph glyph-name="uni4E1D" unicode="&#x4e1d;" 
d="M226 396l-179 96l194 362l135 -73l-103 -192l44 -23l74 136l103 -56l112 208l135 -73l-103 -192l44 -23l60 111l125 -67l-171 -318l123 17l23 -170l-359 -48l-23 169l63 9l68 127l-158 85l-102 -189l93 12l23 -169l-329 -44l-23 169l63 9zM48 42h830v-177h-830v177z" />
    <glyph glyph-name="uni4E1E" unicode="&#x4e1e;" 
d="M80 46h774v-166h-774v166zM887 180l-125 -93l-203 275v-274h-227v158h81v353h3l-1 2l124 84h-386v154h622v-154l-174 -119l43 -58l146 101l87 -127l-142 -97zM39 172l188 271h-147v156h289v-205l-210 -305z" />
    <glyph glyph-name="uni4E22" unicode="&#x4e22;" 
d="M879 360v-169h-169l156 -229l-138 -93l-40 58l-575 -39l-12 170l43 2l102 131h-199v169h333l2 3v71h-263v156h263v78l-266 -13l-8 161l705 34l8 -161l-279 -14v-85h265v-157h-265v-73h337zM534 153l54 37h-152l-92 -117l233 16z" />
    <glyph glyph-name="uni4E24" unicode="&#x4e24;" 
d="M654 684l-15 -89h194v-716h-215v157h74v95l-30 -30l-94 94l-36 -212l-135 23l25 151l-3 -4l-59 59l-33 -189l-95 17v-161h-142v717h198l16 88h-253v157h823v-157h-220zM232 436v-369l70 369h-70zM386 436l-6 -34l12 -11l74 -75l21 120h-101zM442 684l-15 -89h72l15 89
h-72zM598 366l94 -94v164h-82z" />
    <glyph glyph-name="uni4E25" unicode="&#x4e25;" 
d="M213 -130l-173 33l103 539v12h177v67l-99 -62l-105 167l110 70l94 -149v153h-227v150h793v-150h-222v-174l81 169l118 -57l-88 -183l-111 54v-56h208v-149h-576zM463 454h58v246h-58v-246z" />
    <glyph glyph-name="uni4E27" unicode="&#x4e27;" 
d="M49 442h170l-88 122l93 68h-135v147h310v82h146v-82h303v-147h-137l98 -76l-89 -114h157v-147h-122l74 -91l-108 -87l156 -155l-104 -104l-437 437h-33v-237l168 42l36 -143l-352 -87l-35 143l38 10v272h-109v147zM545 442h116l-79 61l99 129h-136v-190zM544 295l69 -70
l86 70h-155zM399 631h-136l93 -127l-86 -62h129v189z" />
    <glyph glyph-name="uni4E28" unicode="&#x4e28;" 
d="M379 854h168v-989h-168v989z" />
    <glyph glyph-name="uni4E2A" unicode="&#x4e2a;" 
d="M382 467h159v-606h-159v606zM535 859v-1l384 -400l-131 -125l-322 336l-327 -327l-133 133l383 384h146z" />
    <glyph glyph-name="uni4E2B" unicode="&#x4e2b;" 
d="M382 453h159v-592h-159v592zM51 738l136 120l245 -278l-136 -119zM484 567l251 277l139 -126l-250 -277z" />
    <glyph glyph-name="uni4E2C" unicode="&#x4e2c;" 
d="M527 353v89l-120 -58l-147 306l157 75l110 -230v325h157v-1001h-157v254l-181 -105l-104 181z" />
    <glyph glyph-name="uni4E2D" unicode="&#x4e2d;" 
d="M85 97v583h304v152h150v-150h301v-583h-301v-212h-150v210h-304zM696 277v223h-155v-223h155zM389 277v223h-157v-223h157z" />
    <glyph glyph-name="uni4E30" unicode="&#x4e30;" 
d="M381 212v93h-255v176h255v90h-289v175h289v115h162v-115h288v-175h-288v-90h256v-176h-256v-93h327v-181h-327v-172h-162v172h-326v181h326z" />
    <glyph glyph-name="uni4E32" unicode="&#x4e32;" 
d="M387 423h-279v351h279v87h151v-87h277v-352h-277v-62h303v-370h-303v-131h-151v131h-303v370h303v63zM387 221h-159v-86h159v86zM538 135h157v86h-157v-86zM387 556v84h-143v-84h143zM538 556h141v84h-141v-84z" />
    <glyph glyph-name="uni4E34" unicode="&#x4e34;" 
d="M63 775h120v-851h-120v851zM863 761v-169h-173l86 -125l-77 -53h141v-550h-437v550h220l-77 111l97 67h-98l-59 -158l-121 45v-626h-137v996h137v-283l112 301l150 -56l-19 -50h255zM576 264h-49v-250h49v250zM661 264v-250h47v250h-47z" />
    <glyph glyph-name="uni4E36" unicode="&#x4e36;" 
d="M203 501l165 139l355 -422l-164 -139z" />
    <glyph glyph-name="uni4E38" unicode="&#x4e38;" 
d="M40 -91l91 333l-93 54l98 170l49 -28l26 91h-141v184h191l41 149l191 -53l-27 -96h206l9 2l74 -532l93 13l40 -288l-288 -40l-46 330l-87 -150l-159 92l-78 -283zM362 336l187 -108l-42 301h-91z" />
    <glyph glyph-name="uni4E39" unicode="&#x4e39;" 
d="M790 846v-438h89v-172h-89v-347h-266v172h117v175h-336l-17 -362l-175 9l17 353h-84v172h92l21 438h631zM314 408h168l-131 166l122 96l135 -171l-115 -91h148v280h-314z" />
    <glyph glyph-name="uni4E3A" unicode="&#x4e3a;" 
d="M76 476v173h148l-98 116l110 93l107 -128l36 134l170 -46l-46 -169h347v-769h-315v176h151v420h-230l-166 -620l-170 46l154 574h-198zM267 649h54l15 58zM417 304l121 102l145 -174l-121 -101z" />
    <glyph glyph-name="uni4E3B" unicode="&#x4e3b;" 
d="M874 -135h-823v169h329v164h-267v170h267v143h-295v173h289l-28 136l176 35l34 -171h281v-173h-291v-143h264v-170h-264v-164h328v-169z" />
    <glyph glyph-name="uni4E3D" unicode="&#x4e3d;" 
d="M61 842h804v-161h-804v161zM320 36v113l-47 -27l-70 121v-366h-115v737h347v-737h-159v159h44zM320 278v173h-117v-91l53 30zM676 37h44v114l-50 -29l-67 116v-361h-115v737h347v-737h-159v160zM720 274v177h-117v-90l49 29z" />
    <glyph glyph-name="uni4E3E" unicode="&#x4e3e;" 
d="M683 512l235 -203l-85 -99l-120 104v-100h-181v-70h300v-161h-300v-129h-147v129h-298v161h298v70h-178v84l-103 -103l-96 96l222 221h-163v156h105l-42 146l145 41l48 -166l-69 -20h154l-45 159l131 38l50 -175l-78 -22h119l72 191l127 -48l-54 -143h121v-157h-168z
M658 361l-175 151h-61l-151 -151h114v87h147v-87h126z" />
    <glyph glyph-name="uni4E3F" unicode="&#x4e3f;" 
d="M667 275l-284 -412l-125 87l246 356v550h163v-581z" />
    <glyph glyph-name="uni4E43" unicode="&#x4e43;" 
d="M82 850h682v-171l-90 -168h169v-610h-311v181h144v267h-168v162h3l91 168h-205l-120 -810l-175 26l116 784h-136v171z" />
    <glyph glyph-name="uni4E45" unicode="&#x4e45;" 
d="M177 -150l-152 128l493 584h-181l-143 -227l-164 103l271 432l165 -104l-19 -30h257v-262h-2l2 -1l-113 -133l310 -359l-143 -124l-291 337z" />
    <glyph glyph-name="uni4E47" unicode="&#x4e47;" 
d="M468 282v-227h202l41 160l159 -41l-76 -296h-484v391l-246 -21l-15 178l261 22v159l-180 -22l-21 173l674 83l22 -173l-337 -41v-166l395 33l14 -178z" />
    <glyph glyph-name="uni4E48" unicode="&#x4e48;" 
d="M24 407l330 441l148 -112l-330 -440zM154 57l461 703l146 -96l-381 -581l264 31l-94 163l123 71l229 -397l-123 -70l-35 61l-616 -71l-21 181z" />
    <glyph glyph-name="uni4E49" unicode="&#x4e49;" 
d="M338 799l149 64l104 -240l-150 -65zM51 -28l317 359l-259 331l137 107l239 -306l259 294l130 -114l-281 -319l281 -360l-137 -107l-261 335l-295 -335z" />
    <glyph glyph-name="uni4E4B" unicode="&#x4e4b;" 
d="M19 42l611 496h-486v174h259v120h173v-120h268v-223l-424 -344l486 -88l-30 -170l-633 114l-115 -93z" />
    <glyph glyph-name="uni4E4C" unicode="&#x4e4c;" 
d="M523 799l-12 -27h265v-340h-284v123h134v68h-308v-237h532v-59h1v-472h-280v149h127v226h-527v542h168l42 92zM74 179h573v-151h-573v151z" />
    <glyph glyph-name="uni4E4D" unicode="&#x4e4d;" 
d="M184 323l-156 80l239 465l156 -80l-28 -54h503v-173h-418v-102h349v-171h-349v-103h375v-172h-375v-161h-161v709h-12z" />
    <glyph glyph-name="uni4E4E" unicode="&#x4e4e;" 
d="M50 369h197l-133 195l120 82l138 -201l-110 -76h133v290l-290 -12l-7 175l722 30l8 -175l-271 -11v-297h126l-110 71l133 207l125 -80l-126 -198h171v-175h-319v-326h-285v182h123v144h-345v175z" />
    <glyph glyph-name="uni4E4F" unicode="&#x4e4f;" 
d="M87 792l743 54l13 -175l-743 -54zM42 5l562 352h-481v163h271v100h164v-100h266v-208h-1v-1l-367 -230l427 -33l-12 -163l-650 49l-97 -61z" />
    <glyph glyph-name="uni4E50" unicode="&#x4e50;" 
d="M23 -35l185 321l134 -77l-185 -321zM596 207l135 74l171 -310l-136 -74zM847 300h-279v-432h-238v178h83v254h-316l32 503l670 49l13 -179l-534 -39l-11 -171h146v147h155v-147h279v-163z" />
    <glyph glyph-name="uni4E52" unicode="&#x4e52;" 
d="M164 296v523l623 45l12 -174l-486 -36v-75h525v-160h-138v-123h179v-161h-470l60 -105l-302 -174l-79 136l249 143h-290v161h117zM313 296h238v123h-238v-123z" />
    <glyph glyph-name="uni4E53" unicode="&#x4e53;" 
d="M700 417v-122h179v-161h-290l242 -149l-78 -128l-296 182l58 95h-468v161h117v522l622 46l13 -175l-487 -35v-75h526v-161h-138zM551 417h-239v-122h239v122z" />
    <glyph glyph-name="uni4E54" unicode="&#x4e54;" 
d="M141 113l-126 100l176 221h-120v161h248l64 80l-246 -10l-7 164l674 28l6 -164l-214 -9l-71 -89h344v-161h-224l266 -199l-96 -129l-112 84v-319h-152v400h44l-205 154l-105 -132l113 -23l-84 -407l-157 32l65 320z" />
    <glyph glyph-name="uni4E56" unicode="&#x4e56;" 
d="M538 -131h-152v622h-337v139h337v53l-258 -11l-7 151l664 28l6 -151l-253 -11v-59h335v-139h-335v-622zM215 190v70h-134v148h134v54h130v-493h-130v49l-137 -21l-26 169zM574 -31v493h131v-73l104 50l64 -135l-168 -81v-95h62l8 75l101 -10l-24 -224h-278z" />
    <glyph glyph-name="uni4E58" unicode="&#x4e58;" 
d="M890 -4l-87 -126l-276 189v-190h-145v178l-264 -167l-82 130l253 159h-76v26l-125 -19l-19 124l144 22v35h-120v111h120v33h127v-299l42 26v288h-310v134h310v51l-246 -10l-6 132l663 28l6 -133l-272 -11v-57h323v-134h-323v-270l44 -31v287h117v-51l120 46l38 -97
l-158 -62v-49h63l15 60l98 -25l-40 -157h-182z" />
    <glyph glyph-name="uni4E59" unicode="&#x4e59;" 
d="M817 -104h-749v207l460 548h-409v172h654v-196h-2l2 -2l-466 -557h359l21 186l171 -20l-39 -336h-2v-2z" />
    <glyph glyph-name="uni4E5C" unicode="&#x4e5c;" 
d="M722 169l159 -35l-58 -263h-636v537l-100 -24l-43 181l143 33v250h152v-214l461 108v-553h-149v1h-137v173h137v154l-312 -74v-405h355z" />
    <glyph glyph-name="uni4E5D" unicode="&#x4e5d;" 
d="M40 -105l158 611h-127v179h173l48 183l169 -44l-36 -139h233l84 -493l94 16l49 -294l-277 -47l-108 639h-122l-169 -655z" />
    <glyph glyph-name="uni4E5E" unicode="&#x4e5e;" 
d="M42 527l238 330l128 -92h455v-166h-572l-57 -79h519v-157l-342 -342h283l33 166l156 -31l-59 -293l-3 1v-1h-684v110l390 390h-315v126l-40 -55z" />
    <glyph glyph-name="uni4E5F" unicode="&#x4e5f;" 
d="M620 177v174h59v153l-123 -28v-358h-148v324l-109 -25v-381h402l28 125l158 -34l-56 -257v-1h-684v514l-66 -15l-43 180l109 25v201h152v-167l109 25v218h148v-184l272 63v-552h-208z" />
    <glyph glyph-name="uni4E60" unicode="&#x4e60;" 
d="M682 71v583h-379l224 -196l-114 -131l-230 201l112 126h-180v178h733v-945h-307v184h141zM78 149l509 267l89 -171l-509 -267z" />
    <glyph glyph-name="uni4E61" unicode="&#x4e61;" 
d="M721 514l137 -115l-462 -548l-137 115l197 234l-192 -15l-2 -2l-1 2l-159 -12l-12 167l101 8l153 144l-270 -13l-7 147l64 3l240 240l109 -109l-120 -120l147 7l162 154l116 -122l-328 -311l151 11z" />
    <glyph glyph-name="uni4E66" unicode="&#x4e66;" 
d="M886 640l-95 -89l-64 69v-224h105v-483h-274v176h123v137h-271v-371h-153v371h-218v170h218v157h-174v171h174v136h153v-137h220l-50 53l96 89zM574 553h-164v-157h164v157z" />
    <glyph glyph-name="uni4E69" unicode="&#x4e69;" 
d="M306 739h161v-172h-161v-128h145v-549h-384v1h-11v548h111v417h139v-117zM186 268v-206h130v206h-130zM739 175l131 -17l-37 -295h-323v989h144v-810h68z" />
    <glyph glyph-name="uni4E70" unicode="&#x4e70;" 
d="M768 -113l-295 245l-290 -247l-108 128l181 154h-206v148h124l-104 89l90 108l190 -159l-31 -38h99v145l-40 -47l-189 159l81 97h-192v166h769v-166l-41 -223l-134 25l36 198h-417l127 -106v66h166v-314h274v-148h-165l182 -151z" />
    <glyph glyph-name="uni4E71" unicode="&#x4e71;" 
d="M343 577h146v-172h-146v-85h124v-436h-390v436h124v85h-162v172h162v81l-128 -7l-10 165l405 24l10 -164l-135 -9v-90zM332 155h-120v-106h120v106zM756 178l131 -17l-37 -295h-327v988h145v-813h70z" />
    <glyph glyph-name="uni4E73" unicode="&#x4e73;" 
d="M217 287l89 69h-240v129h38l-63 137l102 48l-82 -7l-13 150l432 36l12 -150l-348 -29l64 -140l-98 -45h319l-82 35l69 162l103 -44l-66 -153h31v-129h-1l2 -2l-112 -87l115 9l13 -156l-138 -11v-244h-233v143h87v89l-168 -15l-13 157l181 15v33zM201 645l114 32l39 -136
l-114 -33zM760 185l130 -17l-37 -293h-324v980h146v-805h68z" />
    <glyph glyph-name="uni4E7E" unicode="&#x4e7e;" 
d="M648 355h-155v151h61l-119 45l120 316l132 -51l-21 -58h196v-163h-258l-34 -89h246v-151h-1l-154 -321h72l16 105l134 -21l-39 -249h-380v104zM319 -147h-132v124h-145v151h145v46h-113v424h113v31h-129v162h129v59h137v-59h124v-162h-124v-31h109v-424h-114v-47h129
v-150h-129v-124zM193 450h125v30h-125v-30zM193 304h125v29h-125v-29z" />
    <glyph glyph-name="uni4E86" unicode="&#x4e86;" 
d="M832 657l-275 -210v-568h-282v186h120v455h1v1l190 145h-493v174h739v-183z" />
    <glyph glyph-name="uni4E88" unicode="&#x4e88;" 
d="M67 469h278l-139 126l85 95h-174v156h692v-163l-249 -214h299v-175l-112 -240l-137 65l86 183h-160v-428h-259v170h108v258h-318v167zM461 573l137 117h-268z" />
    <glyph glyph-name="uni4E89" unicode="&#x4e89;" 
d="M878 401v-138h-69v-201h-281v-210h-250v145h103v65h-269v143h269v58h-333v138h332v64h-255v92l-71 58l207 253l74 -60h397v-146l-49 -60h126v-201h69zM553 662h-254l-49 -60h254zM665 264h-137v-59h137v59zM665 465h-137v-64h137v64z" />
    <glyph glyph-name="uni4E8B" unicode="&#x4e8b;" 
d="M395 282v33h-292v97h292v37h-287v207h287v35h-335v117h335v52h146v-52h326v-117h-327v-34h278v-208h-277v-36h286v-120h41v-130h-41v-135h-5v-1h-281v-167h-245v132h99v35h-297v110h297v37h-337v108h337zM541 537h144v36h-144v-36zM541 282h153v33h-153v-33zM541 137h153
v37h-153v-37zM395 537v36h-147v-36h147z" />
    <glyph glyph-name="uni4E8C" unicode="&#x4e8c;" 
d="M119 795h687v-184h-687v184zM48 115h829v-191h-829v191z" />
    <glyph glyph-name="uni4E8D" unicode="&#x4e8d;" 
d="M127 837h688v-174h-688v174zM401 63v294h-345v176h814v-176h-296v-475h-295v181h122z" />
    <glyph glyph-name="uni4E8E" unicode="&#x4e8e;" 
d="M390 491v169h-276v177h695v-177h-248v-169h306v-178h-306v-431h-302v186h131v245h-331v178h331z" />
    <glyph glyph-name="uni4E8F" unicode="&#x4e8f;" 
d="M129 842h668v-163h-668v163zM46 595h833v-165h-526l-12 -80h445l-19 -472h-334v181h164l5 130h-457l36 241h-135v165z" />
    <glyph glyph-name="uni4E91" unicode="&#x4e91;" 
d="M119 841h675v-173h-675v173zM487 366l-146 -254l241 16l-76 119l143 91l233 -369l-143 -91l-50 79l-597 -39l-12 177l57 4l155 267h-249v172h830v-172h-386z" />
    <glyph glyph-name="uni4E92" unicode="&#x4e92;" 
d="M46 61h549l4 85h-455l63 513h-118v167h753v-167h-484l-10 -79h424l-21 -519h128v-167h-833v167zM606 314l4 98h-282l-12 -98h290z" />
    <glyph glyph-name="uni4E93" unicode="&#x4e93;" 
d="M136 847h654v-177h-654v177zM56 -66l162 425h-162v174h813v-174h-154v-468h-173v468h-138l-185 -487z" />
    <glyph glyph-name="uni4E94" unicode="&#x4e94;" 
d="M220 68l43 253h-148v159h174l29 172h-220v169h751v-169h-371l-29 -172h336l-13 -412h102v-170h-822v170h168zM381 68h233l8 253h-199z" />
    <glyph glyph-name="uni4E95" unicode="&#x4e95;" 
d="M719 -147h-158v311h-238l-35 -311l-168 19l33 292h-104v170h123l22 195h-117v170h136l19 168l169 -19l-17 -149h177v155h158v-155h133v-170h-133v-195h158v-170h-158v-311zM561 334v195h-196l-22 -195h218z" />
    <glyph glyph-name="uni4E98" unicode="&#x4e98;" 
d="M86 828h756v-162h-756v162zM53 53h819v-162h-819v162zM780 613v-505h-631v505h631zM639 296h-349v-61h349v61zM639 476h-349v-60h349v60z" />
    <glyph glyph-name="uni4E9A" unicode="&#x4e9a;" 
d="M647 203v-151h229v-167h-830v167h226v153l-67 -33l-160 328l138 67l89 -182v283h-185v167h749v-167h-189v-298l98 197l135 -67l-164 -331zM493 668h-68v-616h68v616z" />
    <glyph glyph-name="uni4E9B" unicode="&#x4e9b;" 
d="M128 232h663v-144h-663v144zM62 35h799v-160h-799v160zM578 281h-82v563h142v-132l154 67l66 -154l-220 -95v-102h96l15 97l136 -20l-34 -227h-273v3zM64 256l-23 180l46 6v319h123v-303l50 7v376h136v-121h69v-154h-69v-84l57 8l24 -181z" />
    <glyph glyph-name="uni4E9F" unicode="&#x4e9f;" 
d="M54 42h794v-165h-794v165zM871 162l-105 -87l-97 117l-81 -141l-77 44v-20h-209v64h-233v477h257v-375h43v370l-1 1l156 75h-424v156h705v-156l-158 -77h183v-135l2 -1l-90 -156zM225 462h-49v-163h49v163zM695 474h-150v87l-34 -16v-390l78 134l-74 89l105 87l41 -50z
" />
    <glyph glyph-name="uni4EA0" unicode="&#x4ea0;" 
d="M536 850v-171h331v-191h-809v191h296v171h182z" />
    <glyph glyph-name="uni4EA1" unicode="&#x4ea1;" 
d="M545 842v-166h326v-173h-569v-447h509v-179h-665v626h-91v173h315v166h175z" />
    <glyph glyph-name="uni4EA2" unicode="&#x4ea2;" 
d="M522 865v-114h315v-160h-781v160h300v114h166zM511 -117v448h-193l-62 -476l-164 22l81 621h485v-443h63l23 125l125 -23l-50 -274h-308z" />
    <glyph glyph-name="uni4EA4" unicode="&#x4ea4;" 
d="M41 405l236 193h-203v174h286v88h184v-88h304v-174h-215l231 -188l-97 -119l-261 212l77 95h-251l88 -108l-269 -220zM628 157l266 -167l-82 -130l-334 210l-359 -207l-87 151l280 161l-94 60l82 129l162 -102l172 99l87 -151z" />
    <glyph glyph-name="uni4EA5" unicode="&#x4ea5;" 
d="M145 69l-91 137l185 123l-128 128l159 159h-215v152h315v101h183v-101h318v-152h-203l91 -136zM333 486l56 -56l277 186h-203zM835 282l-213 -142l236 -117l-78 -158l-328 161l-262 -176l-92 136l646 433z" />
    <glyph glyph-name="uni4EA6" unicode="&#x4ea6;" 
d="M19 185l134 340l123 -49l-133 -339zM906 137l-158 -59l-95 252v-448h-230v183h81v537h-19l-157 -769l-175 36l149 733h-232v170h312v114h179v-114h304v-170h-212v-101l101 38z" />
    <glyph glyph-name="uni4EA7" unicode="&#x4ea7;" 
d="M754 622l-34 -145h133v-166h-560l-74 -454l-177 29l96 586v5h125l-34 145h-148v163h308v78h179v-78h315v-163h-129zM590 622h-197l34 -145h129z" />
    <glyph glyph-name="uni4EA8" unicode="&#x4ea8;" 
d="M59 775h313v85h179v-85h316v-127h-808v127zM777 368h-622v250h622v-250zM300 468h323v55h-323v-55zM406 145l140 60h-445v122h721v-122l-271 -116v-229h-275v143h130v142z" />
    <glyph glyph-name="uni4EA9" unicode="&#x4ea9;" 
d="M810 523v-657h-691v657h691zM392 131h-129v-109h129v109zM392 379h-129v-92h129v92zM661 131h-128v-109h128v109zM661 379h-128v-92h128v92zM874 586h-823v160h313v107h185v-107h325v-160z" />
    <glyph glyph-name="uni4EAB" unicode="&#x4eab;" 
d="M399 -13v76h-340v126h340v21h4l125 46h-407v122h680v-122l-183 -67h250v-126h-313v-204h-271v128h115zM864 663h-807v137h299v60h186v-60h322v-137zM771 631v-219h-620v219h620zM630 545h-333v-47h333v47z" />
    <glyph glyph-name="uni4EAC" unicode="&#x4eac;" 
d="M868 637h-807v154h302v69h185v-69h320v-154zM903 -23l-126 -100l-195 246l114 92h-142v-356h-240v172h87v184h-159l112 -97l-210 -242l-121 105l203 234h-89v369h653v-369h-76zM642 437h-357v-80h357v80z" />
    <glyph glyph-name="uni4EAD" unicode="&#x4ead;" 
d="M403 1v96h-259v80h-77v200h797v-200h-74v-80h-229v-237h-271v141h113zM716 216v41h-510v-41h510zM773 631v-218h-619v218h619zM627 541h-328v-39h328v39zM864 664h-802v130h311v65h170v-65h321v-130z" />
    <glyph glyph-name="uni4EAE" unicode="&#x4eae;" 
d="M211 -142l-125 73l157 273h401v-195h70l17 93l137 -25l-37 -208h-334v219h-153zM760 617v-221h-622v221h622zM207 154h-143v209h629v2h147v-211h-147v93h-486v-93zM844 656h-786v131h295v75h177v-75h314v-131zM617 528h-335v-43h335v43z" />
    <glyph glyph-name="uni4EB2" unicode="&#x4eb2;" 
d="M896 3l-93 -120l-238 183l78 100h-93v-305h-236v166h79v139h-117l76 -83l-218 -202l-104 113l186 172h-137v152h315v61h-336v149h187l-32 113h-115v149h273v69h176v-69h283v-149h-115l-39 -113h193v-149h-319v-61h299v-152h-165zM557 641h-190l32 -113h121l-2 1z" />
    <glyph glyph-name="uni4EB3" unicode="&#x4eb3;" 
d="M788 648v-194h-651v194h651zM643 569h-359v-36h359v36zM854 680h-783v124h297v54h177v-54h309v-124zM336 -139v148l-276 -11l-5 125l281 11v40l-184 -7l-3 60h-77v187h782v-186h-108l1 -38l-258 -10v-40l377 14l4 -103l-381 -15v-47h231l9 53l134 -22l-27 -159h-500z
M705 284v35h-490v-54z" />
    <glyph glyph-name="uni4EB5" unicode="&#x4eb5;" 
d="M539 863v-39h321v-130h-794v130h297v39h176zM896 13l-76 -131l-296 171l28 -128l-319 -69l-31 145l56 11v42l-167 -76l-62 134l266 121h-195v87h92v53l-126 -4l-4 111l129 5v53h-113v101h113v41h138v-41h70v-101h-70v-49l70 2l4 -112l-74 -2v-128l87 39l21 84l-30 11
l40 110l19 -8l8 31h-44v115h74l14 54l130 -33l-5 -21h146l19 -215l49 4l16 -186l-139 -12l47 -69l-58 -40zM502 65l-96 56l-15 -7v-73zM701 272l-21 244h-66l-20 -77l93 -34l-40 -109l-82 29l-20 -75l-77 19l6 -12l110 -64z" />
    <glyph glyph-name="uni4EBA" unicode="&#x4eba;" 
d="M879 -21l-152 -107l-333 471l-173 -494l-175 62l337 960l176 -61l-89 -252z" />
    <glyph glyph-name="uni4EBB" unicode="&#x4ebb;" 
d="M255 -140v436l-30 -63l-144 69l264 557l144 -69l-92 -195v-735h-142z" />
    <glyph glyph-name="uni4EBF" unicode="&#x4ebf;" 
d="M154 272l-147 60l218 532l148 -60l-75 -182h12v-767h-141v451zM374 -121v125l293 631h-259v165h444v-165h-4l4 -2l-273 -588h159l29 167l152 -26l-52 -307h-493z" />
    <glyph glyph-name="uni4EC0" unicode="&#x4ec0;" 
d="M546 -145v471h-179v194h179v325h162v-325h197v-194h-197v-471h-162zM169 272l-148 60l219 532l147 -60l-75 -182h13v-767h-142v451z" />
    <glyph glyph-name="uni4EC1" unicode="&#x4ec1;" 
d="M415 761h457v-177h-457v177zM375 91h543v-185h-543v185zM8 342l243 521l145 -67l-81 -173h8v-767h-142v479l-28 -60z" />
    <glyph glyph-name="uni4EC2" unicode="&#x4ec2;" 
d="M171 275l-144 68l243 521l144 -67l-80 -173h7v-768h-136v491zM378 -120l91 635h-69v178h95l24 166l158 -22l-21 -144h243v-821h-273v174h110v469h-106l-95 -658z" />
    <glyph glyph-name="uni4EC3" unicode="&#x4ec3;" 
d="M911 625h-109v-760h-277v179h121v581h-198v185h463v-185zM176 247l-162 76l252 538l162 -75l-79 -169v-759h-150v437z" />
    <glyph glyph-name="uni4EC4" unicode="&#x4ec4;" 
d="M186 -122l-169 18l103 946h721v-167h-568zM648 589l-40 -102l301 -521l-148 -86l-233 405l-159 -398l-158 63l279 702z" />
    <glyph glyph-name="uni4EC5" unicode="&#x4ec5;" 
d="M167 276l-145 59l218 532l148 -60l-79 -191v-764h-142v424zM354 -67l167 327l-172 253l128 86l124 -183l112 221h-318v178h471v-218l-167 -326l205 -304l-127 -87l-158 234l-128 -251z" />
    <glyph glyph-name="uni4EC6" unicode="&#x4ec6;" 
d="M651 573l264 -264l-120 -120l-144 143v-471h-156v996h156v-284zM280 868l143 -71l-88 -174v-771h-149v474l-33 -66l-143 71z" />
    <glyph glyph-name="uni4EC7" unicode="&#x4ec7;" 
d="M921 -104l-223 -18l-50 614h-90l-68 -635l-150 16l67 619h-54v183h73l21 188l149 -16l-18 -172h200v-1h1l43 -535l79 6zM142 255l-138 60l236 547l139 -60l-77 -178v-762h-137v445z" />
    <glyph glyph-name="uni4EC9" unicode="&#x4ec9;" 
d="M347 -136l60 966h376l37 -653l73 4l17 -304l-223 -12l-44 782h-97l-49 -793zM155 258l-139 60l237 547l138 -60l-81 -187v-757h-137v439z" />
    <glyph glyph-name="uni4ECA" unicode="&#x4eca;" 
d="M268 355v-2h197l-124 124l109 110l154 -155l-79 -79h286v-168h-3l3 -3l-271 -331l-125 103l189 231h-493v168h2v2h155zM909 558l-117 -136l-321 278l-346 -268l-109 142l379 293v1h155z" />
    <glyph glyph-name="uni4ECB" unicode="&#x4ecb;" 
d="M922 497l-129 -140l-104 97v-583h-155v589h148l-231 215l-195 -210l133 -26l-112 -583l-143 27l109 568l-109 -118l-131 122l379 408h145z" />
    <glyph glyph-name="uni4ECD" unicode="&#x4ecd;" 
d="M911 -137h-276v184h115v291h-96v132l63 181h-103l-112 -797l-158 22l109 775h-46v171h454v-171l3 -1l-57 -163h104v-624zM158 277l-144 67l243 522l145 -68l-81 -173h7v-767h-139v485z" />
    <glyph glyph-name="uni4ECE" unicode="&#x4ece;" 
d="M347 -116l79 409l-62 -39l-72 116l-96 -494l-161 31l186 960l161 -32l-42 -214l115 -183l82 429l162 -32l-36 -182l228 -734l-166 -51l-132 423l-85 -438z" />
    <glyph glyph-name="uni4ED1" unicode="&#x4ed1;" 
d="M122 391l-118 144l384 316v2h147v-1l387 -316l-118 -144l-342 279l-228 -187h89v-124l340 133l68 -173l-408 -160v-118h327l20 136l158 -23l-41 -288h-618v563z" />
    <glyph glyph-name="uni4ED3" unicode="&#x4ed3;" 
d="M526 850l388 -336l-116 -135l-90 79v-297l119 -22l-48 -270h-635v523l-10 -9l-122 130l360 337h154zM661 124h-240v159h137v97h-264v-334h353zM612 541l-160 138l-149 -138h309z" />
    <glyph glyph-name="uni4ED4" unicode="&#x4ed4;" 
d="M167 280l-145 59l214 523l146 -60l-73 -179v-765h-142v422zM717 476v-39h187v-187h-187v-392h-268v178h109v214h-204v187h204v76h-1l1 1l116 134h-263v176h455v-176h-1z" />
    <glyph glyph-name="uni4ED5" unicode="&#x4ed5;" 
d="M173 -142v453l-11 -27l-134 55l214 523l134 -55l-61 -147v-802h-142zM701 398v-326h167v-175h-493v175h170v326h-189v181h189v276h156v-276h196v-181h-196z" />
    <glyph glyph-name="uni4ED6" unicode="&#x4ed6;" 
d="M357 407l-19 -5l-43 172l62 15v187h140v-151l45 11v222h140v-186l181 46v-530h-165v171h42v145l-58 -14v-391h-140v355l-45 -11v-402h262l17 105l145 -24l-42 -251h-522v536zM138 284l-134 55l213 523l134 -55l-60 -147v-802h-134v474z" />
    <glyph glyph-name="uni4ED7" unicode="&#x4ed7;" 
d="M15 346l214 523l134 -55l-62 -152v-804h-138v466l-14 -33zM911 -55l-110 -95l-194 225l-62 -220l-140 40l89 311l-160 185l109 94l98 -113l46 162h-248v160h293l47 165l139 -40l-35 -125h102v-160h-148l-83 -293z" />
    <glyph glyph-name="uni4ED8" unicode="&#x4ed8;" 
d="M810 856v-181h95v-176h-95v-636h-268v172h113v464h-290v176h290v181h155zM363 368l122 70l138 -239l-122 -70zM152 296l-131 61l233 500l131 -61l-59 -127v-806h-150v484z" />
    <glyph glyph-name="uni4ED9" unicode="&#x4ed9;" 
d="M374 -136v809h138v-629h59v803h143v-803h60v629h138v-809h-538zM150 270l-136 57l225 538l136 -57l-56 -133v-820h-141v481z" />
    <glyph glyph-name="uni4EDD" unicode="&#x4edd;" 
d="M537 841l382 -335l-136 -155l-43 38v-142h-199v-196h306v-173h-767v173h307v196h-202v142l-48 -45l-130 139l383 358h146v-1zM713 413l-259 228l-243 -228h502z" />
    <glyph glyph-name="uni4EDE" unicode="&#x4ede;" 
d="M744 59v577h-31l-181 -784l-143 33l173 751h-151v177h503v-933h-278v179h108zM155 274l-144 67l245 527l144 -67l-75 -162v-780h-137v486zM334 249l69 300l110 -26l-69 -299z" />
    <glyph glyph-name="uni4EDF" unicode="&#x4edf;" 
d="M723 420h188v-176h-188v-389h-155v389h-186v176h186v201l-122 -16l-22 166l434 57l22 -166l-157 -20v-222zM159 271l-144 67l245 527l144 -67l-73 -157v-785h-140v483z" />
    <glyph glyph-name="uni4EE1" unicode="&#x4ee1;" 
d="M158 -145v417l-145 59l214 523l147 -60l-73 -179v-760h-143zM756 164l156 -28l-49 -269h-514v210l240 265h-197v161h33l-106 49l146 313l143 -67l-21 -46h292v-166h-370l-38 -83h351v-161h-1l-285 -315h196z" />
    <glyph glyph-name="uni4EE3" unicode="&#x4ee3;" 
d="M172 -134v417l-145 59l213 523l147 -60l-73 -179v-760h-142zM361 345l-24 172l146 20l-55 284l183 35l23 -123l93 93l142 -142l-94 -95l-140 140l32 -166l205 28l24 -173l-196 -26l51 -264l101 19l46 -237l-284 -55l-98 511z" />
    <glyph glyph-name="uni4EE4" unicode="&#x4ee4;" 
d="M903 541l-112 -131h33v-190l1 -1l-179 -151l106 -29l-47 -172l-579 159l47 171l286 -78l144 121h-506v170h324l-83 100l122 103l129 -154l-58 -49h249l-315 272l-333 -258l-110 142l367 284v1h155z" />
    <glyph glyph-name="uni4EE5" unicode="&#x4ee5;" 
d="M228 861v-615l118 149l136 -107l-322 -407l-136 107l57 73v800h147zM276 744l130 75l164 -284l-130 -75zM697 258l204 -283l-135 -97l-130 179l-62 -203l-171 52l293 960l171 -52z" />
    <glyph glyph-name="uni4EE8" unicode="&#x4ee8;" 
d="M400 783h471v-186h-471v186zM407 454h450v-186h-450v186zM356 89h547v-186h-547v186zM370 810l-58 -144v-812h-142v466l-13 -33l-134 55l213 523z" />
    <glyph glyph-name="uni4EEA" unicode="&#x4eea;" 
d="M806 730l120 -77l-236 -368l233 -351l-118 -79l-198 299l-176 -274l-119 76l209 328l-221 333l118 79l187 -281zM463 795l136 57l107 -254l-136 -58zM347 810l-58 -144v-812h-142v466l-13 -33l-134 55l213 523z" />
    <glyph glyph-name="uni4EEB" unicode="&#x4eeb;" 
d="M299 625v-173l194 406l143 -69l-214 -449l-123 58v-538h-142v416l-145 60l214 523l145 -60zM913 -89l-147 -51l-26 78l-389 -46l-20 177l46 5l329 690l143 -68l-188 -396l107 37zM701 113l-54 158l-83 -175z" />
    <glyph glyph-name="uni4EEC" unicode="&#x4eec;" 
d="M169 278l-145 60l214 523l145 -60l-14 -33l102 87l121 -142v100h310v-955h-228v173h88v615h-170v22l-80 -67h3v-743h-141v743h120l-130 153l-53 -127v-765h-133v438z" />
    <glyph glyph-name="uni4EF0" unicode="&#x4ef0;" 
d="M887 819v-832h-170v195h36v452h-56v-774h-133v812l-74 -28v-434l13 4l55 -169l-206 -66l-55 168l52 18v633l158 61l57 -149v109h323zM346 812l-54 -164v-785h-134v444l-120 40l170 511z" />
    <glyph glyph-name="uni4EF2" unicode="&#x4ef2;" 
d="M694 699h207v-583h-207v-261h-145v261h-203v583h203v158h145v-158zM549 518h-74v-222h74v222zM771 518h-77v-222h77v222zM356 813l-56 -167v-784h-136v426l-140 48l180 529z" />
    <glyph glyph-name="uni4EF3" unicode="&#x4ef3;" 
d="M726 353v-294h64l14 145l110 -11l-32 -325h-307v63l-230 -64l-52 187l55 16v775h146v-257h58v-178h-58v-300l37 11l44 -157v95h5v797h146v-277l85 69l111 -136zM336 809l-58 -172v-778h-146v429l-128 44l180 529z" />
    <glyph glyph-name="uni4EF5" unicode="&#x4ef5;" 
d="M696 371h208v-177h-208v-341h-152v341h-208v177h208v210h-36l-56 -157l-134 48l141 394l135 -48l-25 -67h305v-170h-178v-210zM382 802l-80 -196v-743h-143v427l-137 56l211 517z" />
    <glyph glyph-name="uni4EF6" unicode="&#x4ef6;" 
d="M721 333h191v-170h-191v-308h-152v308h-243v170h243v176h-80l-26 -137l-134 27l80 410l134 -26l-21 -104h47v180h152v-180h167v-170h-167v-176zM374 803l-80 -196v-752h-141v435l-139 57l211 517z" />
    <glyph glyph-name="uni4EF7" unicode="&#x4ef7;" 
d="M656 856l275 -375l-129 -95l-21 28v-560h-143v601h113l-166 225l-158 -221l137 -12l-50 -590l-160 14l47 552l-16 -22l-109 79v-605h-135v415l-146 59l212 517l148 -61l-79 -195v-86l239 334l1 -1v1h140v-2z" />
    <glyph glyph-name="uni4EFB" unicode="&#x4efb;" 
d="M703 435h209v-175h-209v-204h185v-171h-533v171h187v204h-201v175h201v177l-163 -15l-15 174l494 45l16 -174l-171 -15v-192zM370 796l-68 -167v-765h-144v417l-144 59l210 515z" />
    <glyph glyph-name="uni4EFD" unicode="&#x4efd;" 
d="M741 867l190 -411l-97 -45v-537h-279v184h128v262h-98l-152 -467l-137 45l138 422h-74v100l-78 40v-586h-143v417l-145 59l211 515l145 -59l-68 -167v-175l186 368l128 -65l-138 -272h288l-143 308z" />
    <glyph glyph-name="uni4EFF" unicode="&#x4eff;" 
d="M718 745h196v-175h-293l-16 -101h263v-598h-259v180h109v238h-141l-68 -439l-168 26l107 694h-78v175h177v110h171v-110zM371 811l-71 -175v-765h-144v417l-144 59l214 523z" />
    <glyph glyph-name="uni4F01" unicode="&#x4f01;" 
d="M570 55h311v-186h-820v186h100v342h151v-342h107v496h151v-173h228v-177h-228v-146zM550 850l355 -313l-135 -154l-309 271l-324 -247l-116 152l381 290v1h147v-1z" />
    <glyph glyph-name="uni4F09" unicode="&#x4f09;" 
d="M154 295l-153 70l230 498l152 -70l-26 -58h162v122h175v-122h203v-168h-548v151l-64 -139h9v-722h-139v441zM847 118l78 -9l-27 -241h-257v456h-89l-63 -466l-164 22l82 611h378v-167h-4v-302h55z" />
    <glyph glyph-name="uni4F0A" unicode="&#x4f0a;" 
d="M155 297l-153 70l230 498l138 -64v21h500v-249h53v-170h-53v-258h-301l-49 -290l-166 28l44 262h-47v171h76l15 87h-113v170h142l14 82h-115v108l-84 -182h9v-722h-139v441zM642 573h83v82h-69zM598 316h127v87h-112z" />
    <glyph glyph-name="uni4F0D" unicode="&#x4f0d;" 
d="M152 298l-142 56l202 510l151 -60v10h526v-171h-250l-19 -165h239v-418h56v-167h-586v167h82l30 254h-78v164h97l19 165h-116v146l-83 -211h11v-722h-139v442zM572 60h126v255h-96z" />
    <glyph glyph-name="uni4F0E" unicode="&#x4f0e;" 
d="M143 305l-135 54l202 510l156 -62l-17 -42h175v99h155v-99h213v-175h-213v-82h168v-169l-141 -184l211 -185l-102 -117l-204 179l-139 -181l-123 95l145 188l-142 125l70 80h-77v169h179v82h-190v136l-45 -114v-755h-146v448zM651 339h-155l93 -81z" />
    <glyph glyph-name="uni4F0F" unicode="&#x4f0f;" 
d="M165 301l-141 56l202 510l156 -62l-77 -195v-755h-140v446zM473 591l50 275l165 -31l-12 -67l104 67l104 -163l-107 -69l-102 159l-31 -171h246v-176h-217l229 -494l-149 -69l-175 378l-68 -371l-166 30l97 526h-91v176h123z" />
    <glyph glyph-name="uni4F10" unicode="&#x4f10;" 
d="M170 298l-141 56l202 510l157 -62l-78 -195v-747h-140v438zM466 595l-32 244l166 22l33 -244l97 12l-98 130l114 85l111 -148l-81 -60l100 13l21 -167l-242 -32l13 -100l122 92l101 -135l-198 -148l10 -75l161 21l27 -207l-328 -43l-24 188l-122 -92l-101 135l197 148
l-25 194l-125 -16l-22 166z" />
    <glyph glyph-name="uni4F11" unicode="&#x4f11;" 
d="M135 297l-141 56l202 510l151 -60l-77 -195v-505l199 410h-150v185h190v159h149v-159h214v-185h-190l249 -431l-134 -77l-139 241v-389h-149v386l-132 -272l-107 52v-166h-135v440z" />
    <glyph glyph-name="uni4F17" unicode="&#x4f17;" 
d="M141 402l-110 109l351 351h147l345 -344l-110 -110l-308 309l-201 -200l114 -34l-17 -59l115 -139l73 242l147 -44l-27 -94l235 -454l-147 -77l-157 303l-91 -304l-148 45l96 319l-84 -70l-69 83l-113 -377l-148 45l169 562z" />
    <glyph glyph-name="uni4F18" unicode="&#x4f18;" 
d="M442 643l34 214l152 -24l-30 -190h138l-101 116l99 87l114 -130l-83 -73h101v-175h-295l-96 -612l-153 24l93 588h-80v175h107zM149 298l-141 56l202 510l151 -60l-78 -195v-751h-134v440zM918 160l-45 -289h-294v533h134v-375h56l23 151z" />
    <glyph glyph-name="uni4F19" unicode="&#x4f19;" 
d="M137 300l-140 56l201 510l151 -60l-67 -169l130 55l65 -156l60 319l146 -28l-43 -229l41 -97l80 202l135 -53l-125 -316l-24 10l181 -432l-137 -58l-200 477l-89 -475l-147 27l87 464l-37 -15l-125 298l-3 -5v-771h-140v446z" />
    <glyph glyph-name="uni4F1A" unicode="&#x4f1a;" 
d="M857 338v-159h-185l183 -231l-112 -89l-40 52l-583 -47l-14 170l50 4l104 142h-207v158h323l4 5l7 -5h470zM529 130l62 50h-146l-92 -126l222 18zM903 588l-100 -136l-81 60v-103h-534v83l-62 -49l-104 132l361 285h149zM661 557l-202 149l-189 -149h391z" />
    <glyph glyph-name="uni4F1B" unicode="&#x4f1b;" 
d="M515 142v-105h381v-162h-536v908l-62 -171v-756h-138v443l-136 49l187 516l149 -54v14h536v-161h-381v-109l103 64l70 -112l64 118l134 -73l-105 -195l120 -194l-130 -80l-74 120l-66 -122zM515 496v-310l90 165z" />
    <glyph glyph-name="uni4F1E" unicode="&#x4f1e;" 
d="M66 200h331v382h153v-382h324v-177h-324v-163h-153v163h-331v177zM805 458l-337 240l-357 -225l-93 148l379 239h145l365 -260zM140 419l120 93l128 -164l-120 -93zM556 346l121 169l124 -88l-121 -170z" />
    <glyph glyph-name="uni4F1F" unicode="&#x4f1f;" 
d="M387 805l-21 -51h129v101h158v-101h228v-162h-228v-65h207v-154h-207v-65h243v-393h-203v157h62v73h-102v-292h-158v292h-158v163h158v65h-127v154h127v65h-132v153l-53 -132v-760h-137v447l-143 57l202 510z" />
    <glyph glyph-name="uni4F20" unicode="&#x4f20;" 
d="M913 394h-339l-15 -64h293v-137l-92 -151l100 -45l-72 -162l-462 206l73 162v128l15 63h-81v153h119l16 64h-105v153h143l29 120l151 -37l-20 -83h215v-153h-253l-16 -64h301v-153zM685 193h-266l209 -93zM157 314l-144 57l202 509l155 -61l-76 -192v-761h-137v448z" />
    <glyph glyph-name="uni4F22" unicode="&#x4f22;" 
d="M301 10l201 308h-133v294h169v-135h136v172h-296v163h509v-163h-71v-172h89v-159h-89v-465h-246v173h104v251l-250 -384l-123 80v-120h-137v448l-143 57l201 509l156 -61l-77 -192v-604z" />
    <glyph glyph-name="uni4F24" unicode="&#x4f24;" 
d="M342 -110l97 387h-80v166h121l17 67l-12 -25l-151 71l149 313l150 -72l-19 -41h287v-170h-368l-10 -22l150 -37l-21 -84h67v4h153v-578h-251v166h98v242h-109l-106 -427zM163 302l-138 55l201 509l156 -61l-77 -192v-761h-142v450z" />
    <glyph glyph-name="uni4F25" unicode="&#x4f25;" 
d="M544 642v-161h346v-171h-132l152 -374l-146 -59l-176 433h-44v-234l75 18l42 -179l-264 -63l-42 179l45 10v269h-66v171h66v368h144v-207l227 176l102 -132l-227 -176zM161 -146v447l-146 58l201 509l156 -61l-77 -192v-761h-134z" />
    <glyph glyph-name="uni4F26" unicode="&#x4f26;" 
d="M928 452l-112 -73l-209 320l-169 -215h92v-103l178 89l78 -158l-256 -128v-153h144l25 120l164 -34l-53 -252h-433v541l-5 -6l-93 73v-620h-143v450l-138 55l202 509l155 -61l-76 -192v-61l237 302h149z" />
    <glyph glyph-name="uni4F27" unicode="&#x4f27;" 
d="M640 851l291 -341l-122 -104l-48 56v-337h-53l135 -18l-32 -239h-470v532l-79 57v-600h-139v444l-128 46l186 516l152 -55l-71 -195v-65l225 307h153v-4zM623 262v119h-143v-354h196l13 97h-155v138h89zM699 534l-133 156l-114 -156h247z" />
    <glyph glyph-name="uni4F2A" unicode="&#x4f2a;" 
d="M749 40v160l-88 -68l-101 130l-68 -407l-151 25l98 587h-105v174h79l-73 111l-41 -114v-780h-139v444l-129 46l186 516l138 -50l64 42l68 -103l18 109l151 -26l-33 -195h272v-783h-254v182h108zM468 641l6 35l-54 -35h48zM749 272v195h-155l-27 -165l98 77z" />
    <glyph glyph-name="uni4F2B" unicode="&#x4f2b;" 
d="M694 858v-137h183v-289h-151v140h-241v-140h-139v289h177v137h171zM330 82h574v-175h-574v175zM209 863l143 -52l-62 -174v-780h-139v443l-129 47z" />
    <glyph glyph-name="uni4F2F" unicode="&#x4f2f;" 
d="M40 345l186 516l144 -52l-58 -162v-792h-139v442zM716 824l-29 -113h198v-842h-501v842h131l39 154zM735 228h-201v-198h201v198zM735 544h-201v-159h201v159z" />
    <glyph glyph-name="uni4F30" unicode="&#x4f30;" 
d="M159 -143v442l-133 48l186 516l144 -52l-58 -162v-792h-139zM695 856v-135h205v-172h-205v-145h167v-533h-497v533h169v145h-181v172h181v135h161zM713 231h-198v-194h198v194z" />
    <glyph glyph-name="uni4F32" unicode="&#x4f32;" 
d="M498 453l-38 -598l-150 9l61 969h496v-380h-369zM738 601v71h-227l-4 -71h231zM18 349l186 516l144 -52l-59 -162v-792h-138v442zM890 -132h-372v550h139v-103l154 89l77 -132l-231 -134v-93h115l6 98l129 -8z" />
    <glyph glyph-name="uni4F34" unicode="&#x4f34;" 
d="M332 810l-59 -161v-792h-138v442l-133 48l187 516zM679 229h219v-157h-219v-215h-147v215h-221v157h221v80h-189v158h189v200l-143 -171l-103 86l160 189l86 -71v149h147v-147l62 67l183 -169l-91 -98l-154 144v-179h180v-158h-180v-80z" />
    <glyph glyph-name="uni4F36" unicode="&#x4f36;" 
d="M144 309l-141 61l219 503l140 -61l-73 -168v-64l235 286h150l1 1l1 -1l246 -293l-117 -98l-205 243l-202 -246l-109 90v-693h-139v455zM570 123l102 124h-335v153h236l-85 101l110 93l121 -145l-58 -49h187v-153l-163 -198l127 -83l-78 -120l-383 249l78 120z" />
    <glyph glyph-name="uni4F38" unicode="&#x4f38;" 
d="M702 853v-121h205v-668h-205v-206h-139v206h-205v668h205v121h139zM497 476h66v98h-66v-98zM563 221v98h-66v-98h66zM768 319h-66v-98h66v98zM702 574v-98h66v98h-66zM159 298l-140 61l219 503l140 -61l-73 -168v-775h-139v455z" />
    <glyph glyph-name="uni4F3A" unicode="&#x4f3a;" 
d="M895 813v-957h-237v115h-301v404h340v-336h55v616h-380v158h523zM571 120v102h-83v-102h83zM344 589h365v-149h-365v149zM220 864l141 -51l-61 -168v-790h-137v441l-132 48z" />
    <glyph glyph-name="uni4F3C" unicode="&#x4f3c;" 
d="M942 -43l-128 -89l-106 150l-106 -150l-127 89l159 225v659h149v-659zM615 232l-237 -334l-117 82v-120h-138v476l-14 -36l-126 53l212 507l113 -47v15h140v-572l44 64zM263 663v-672l47 66v716zM497 415l-38 252l128 19l38 -252z" />
    <glyph glyph-name="uni4F3D" unicode="&#x4f3d;" 
d="M897 792v-922h-271v922h271zM785 35v593h-43v-593h43zM122 -140v500l-93 29l144 472l130 -40l-50 -162v-708l61 558h-33v175h52l18 164l119 -13l-17 -151h145v-824h-178v179h50v470h-36l-71 -650l-110 12v-11h-131z" />
    <glyph glyph-name="uni4F43" unicode="&#x4f43;" 
d="M162 298l-141 61l219 503l124 -54h540v-935h-543v885l-54 -125v-775h-139v456zM570 44v230h-63v-230h63zM758 274h-61v-230h61v230zM697 631v-193h61v193h-61zM507 631v-193h63v193h-63z" />
    <glyph glyph-name="uni4F46" unicode="&#x4f46;" 
d="M327 61h589v-171h-589v171zM151 298l-141 61l219 503l140 -61v22h501v-685h-501v662l-73 -167v-775h-139v456zM718 402h-197v-100h197v100zM521 659v-102h197v102h-197z" />
    <glyph glyph-name="uni4F4D" unicode="&#x4f4d;" 
d="M696 857v-134h186v-165h-517v165h170v134h161zM909 -103h-572v160h243l29 93l-139 -34l-91 365l149 37l87 -349l104 344l147 -44l-126 -412h169v-160zM16 359l218 503l140 -61l-72 -168v-775h-139v456l-7 -16z" />
    <glyph glyph-name="uni4F4E" unicode="&#x4f4e;" 
d="M888 147l39 -256l-201 -30l-70 464h-155v-174l45 30l79 -118l-59 -40l66 -99l-108 -74l-67 100l-69 -47l-80 117l47 32v736l495 49l16 -159l-117 -11l27 -182h119v-160h-95l28 -186zM632 485l-25 167l-106 -10v-157h131zM139 305l-140 61l219 503l140 -61l-73 -168v-775
h-139v456z" />
    <glyph glyph-name="uni4F4F" unicode="&#x4f4f;" 
d="M911 -120h-574v163h196v162h-156v163h156v154h-177v163h194l-40 133l145 45l54 -178h175v-163h-189v-154h168v-163h-168v-162h216v-163zM154 296l-140 61l218 503l140 -61l-72 -168v-775h-140v456z" />
    <glyph glyph-name="uni4F50" unicode="&#x4f50;" 
d="M570 255h-88l-61 -189l-119 39v-253h-139v456l-7 -16l-140 61l218 503l141 -61l-73 -168v-433l117 365h-65v174h122l43 135l146 -47l-29 -88h267v-174h-323l-43 -133h331v-171h-138v-208h179v-171h-536v171h197v208z" />
    <glyph glyph-name="uni4F51" unicode="&#x4f51;" 
d="M633 741h271v-178h-335l-42 -114h332v-584h-464v220l-10 -28l-100 37v-239h-137v444l-126 45l189 521l141 -51l-68 -185v-411l126 345h-80v178h145l45 124l140 -51zM552 270v-233h150v233h-150z" />
    <glyph glyph-name="uni4F53" unicode="&#x4f53;" 
d="M665 552l265 -418l-126 -80l-57 90v-153h-109v-132h-150v132h-107v155l-54 -115l-66 30v-202h-141v435l-125 46l189 521l141 -51l-64 -174v-394l146 310h-104v178h185v129h150v-129h218v-178h-191zM488 157v216l-101 -216h101zM738 157l-100 159v-159h100z" />
    <glyph glyph-name="uni4F55" unicode="&#x4f55;" 
d="M910 652h-52v-781h-256v160h112v621h-373v148l-59 -164v-777h-135v433l-131 48l189 521l136 -50v7h569v-166zM338 569h326v-474h-326v474zM461 248h80v173h-80v-173z" />
    <glyph glyph-name="uni4F57" unicode="&#x4f57;" 
d="M165 291l-132 48l189 521l141 -51l-63 -174v-777h-135v433zM352 771h186v90h151v-90h204v-286h-108l74 -144l-310 -161v-139h179l15 114l150 -19l-33 -257h-311v-3h-147v610h-51v123zM498 609v-72h51v-170l228 119h-31v123h-248z" />
    <glyph glyph-name="uni4F58" unicode="&#x4f58;" 
d="M547 858l346 -257l-101 -135l-77 56v-71h-501v76l-80 -56l-98 138l352 249h159zM467 707l-149 -106h291zM543 215v-353h-219v166h74v187h-323v169h783v-169h-315zM29 -3l211 212l113 -113l-211 -211zM561 79l96 128l239 -180l-96 -127z" />
    <glyph glyph-name="uni4F59" unicode="&#x4f59;" 
d="M544 -138h-219v166h74v187h-323v169h323v67h-185v76l-79 -56l-98 138l352 249h158l347 -257l-101 -135l-77 56v-71h-172v-67h315v-170h-315v-352zM319 601h291l-142 105zM29 -3l212 212l113 -113l-212 -212zM562 79l96 128l238 -180l-96 -127z" />
    <glyph glyph-name="uni4F5A" unicode="&#x4f5a;" 
d="M686 259l237 -313l-119 -91l-216 284l-55 -281l-150 30l73 371h-127v173h160l21 106h-42l-15 -72l-123 26l67 321l123 -26l-17 -81h40l31 158l150 -30l-25 -128h145v-168h-178l-21 -106h220v-173h-179zM288 631v-775h-136v463l-10 -23l-140 61l218 503l140 -61z" />
    <glyph glyph-name="uni4F5B" unicode="&#x4f5b;" 
d="M149 298l-141 59l210 506l141 -58l-17 -42h107l4 90l136 -6l-3 -84h34v95h127v-95h145v-372h-104v3h-41v-63h170v-407h-145v172h34v73h-59v-310h-127v310h-60l-13 -312l-137 6l13 306h-95v376h111l3 59h-104v149l-44 -106v-788h-137v459zM430 331l3 63h-14v-63h11z
M620 394h-50l-3 -63h53v63zM747 604v-59h41v59h-41zM579 604l-3 -59h44v59h-41z" />
    <glyph glyph-name="uni4F5C" unicode="&#x4f5c;" 
d="M654 566v-106h204v-171h-204v-104h225v-171h-225v-156h-162v626l-57 -138l-130 54v-542h-137v458l-8 -18l-141 58l211 506l141 -58l-66 -158v-213l179 429l141 -58l-29 -69h310v-169h-252z" />
    <glyph glyph-name="uni4F5D" unicode="&#x4f5d;" 
d="M161 288l-141 59l211 506l141 -59l-66 -157v-130l152 364l141 -59l-20 -49h326v-914h-251v180h97v559h-245l-30 -72h218v-483h-330v433l-58 24v-641h-137v458zM494 364v-176h75v176h-75z" />
    <glyph glyph-name="uni4F5E" unicode="&#x4f5e;" 
d="M370 836h496v-147h-496v147zM139 -133v441l-124 44l186 523l140 -50l-66 -184v-774h-136zM694 108l216 -124l-80 -139l-241 140l-120 -140l-113 97l102 118l-118 68l46 127h-73v153h127l24 66h-142v157h572v-157h-261l-23 -66h288v-153h-78zM555 255l-19 -55l27 -16
l61 71h-69z" />
    <glyph glyph-name="uni4F5F" unicode="&#x4f5f;" 
d="M277 629v-33l216 274l107 -84h241v-176l-145 -129l212 -145l-74 -109l-240 163l-101 -89l283 -69l-35 -144l-329 80l19 79l-50 -45l-88 99l188 166l-75 51l-22 -28l-106 83v-718h-137v441l-124 44l186 523l140 -49zM583 558l87 77h-173l-9 -12zM326 -36l40 164l472 -114
l-40 -165z" />
    <glyph glyph-name="uni4F60" unicode="&#x4f60;" 
d="M462 -144v186h53v489h147v-675h-200zM198 864l140 -50l-65 -184v-617l95 378l144 -37l-105 -417l-134 34v-115h-136v441l-125 44zM667 359l145 36l102 -418l-144 -36zM680 464l37 134h-221l-66 -186l-147 53l142 399l147 -52l-16 -45h312v-169l-47 -173z" />
    <glyph glyph-name="uni4F63" unicode="&#x4f63;" 
d="M345 824h554v-961h-179v167h38v110h-75v-258h-137v258h-94l-15 -282l-143 8zM473 549h73v101h-67zM546 300v90h-81l-5 -90h86zM758 390h-75v-90h75v90zM758 650h-75v-101h75v101zM27 345l183 517l134 -48l-63 -178v-773h-136v440z" />
    <glyph glyph-name="uni4F64" unicode="&#x4f64;" 
d="M150 -139v445l-2 -5l-132 51l199 511l132 -51l-61 -155v-796h-136zM836 161l74 -7l-25 -288h-235v302l-71 -35l-66 132l-17 -200l86 23l42 -162l-266 -70l-42 161l32 9l55 630h-45v166h518v-166h-328l-6 -68h253v-554h30zM650 263v167h-122l-9 -97l77 38z" />
    <glyph glyph-name="uni4F65" unicode="&#x4f65;" 
d="M893 555l-113 -133l-44 38v-57h-237l92 -232l101 214l143 -67l-128 -270h164v-178h-803v178h465l50 107l-130 -52l-97 245l136 54h-290v72l-59 -47l-110 137l354 285h160zM613 564l-146 123l-153 -123h299zM108 322l152 61l106 -268l-152 -61z" />
    <glyph glyph-name="uni4F67" unicode="&#x4f67;" 
d="M629 856v-101h200v-166h-200v-93h257v-174h-257v-133l67 75l201 -178l-102 -114l-166 147v-259h-147v462h-141v174h141v360h147zM247 860l130 -56l-70 -160v-784h-136v472l-13 -31l-130 57z" />
    <glyph glyph-name="uni4F69" unicode="&#x4f69;" 
d="M617 506v-43h96v-516h-79v377h-26v-447h-85v447h-23v-377h-79v516h91v43h-88v130h289v-130h-96zM116 302l-115 43l194 513l105 -40v6h546v-696h78v-266h-193v817h-314l-20 -798l-121 3l23 903l-48 -126v-786h-118v473z" />
    <glyph glyph-name="uni4F6C" unicode="&#x4f6c;" 
d="M153 297l-141 59l211 506l141 -59l-66 -157v-504l181 245h-145v152h134v88h-88v144h88v85h153v-85h86v-76l84 114l123 -91l-132 -179h121v-152h-234l-83 -112v-35l240 98l58 -141l-298 -122v-51h137l14 91l152 -22l-34 -228h-430v191l-11 -15l-116 85v-268h-134v464z
M621 627v-48l35 48h-35z" />
    <glyph glyph-name="uni4F6F" unicode="&#x4f6f;" 
d="M150 291l-125 45l186 523l140 -50l-65 -185v-773h-136v440zM529 210v95h-158v144h158v88h-174v166h80l-37 121l138 43l52 -164h39l59 166l136 -49l-41 -117h90v-166h-184v-88h166v-144h-166v-95h214v-160h-214v-194h-158v194h-210v160h210z" />
    <glyph glyph-name="uni4F70" unicode="&#x4f70;" 
d="M672 655l-14 -77h198v-703h-488v703h139l14 77h-169v161h543v-161h-223zM699 157h-177v-127h177v127zM699 420h-177v-111h177v111zM203 865l141 -46l-54 -168v-796h-136v442l-123 40z" />
    <glyph glyph-name="uni4F73" unicode="&#x4f73;" 
d="M676 856v-98h180v-157h-180v-76h210v-163h-560v163h211v76h-179v157h179v98h139zM679 38h219v-162h-575v162h211v87h-177v153h177v64h145v-64h176v-153h-176v-87zM286 651v-796h-139v444l-120 39l172 527l141 -46z" />
    <glyph glyph-name="uni4F74" unicode="&#x4f74;" 
d="M146 -145v445l-114 38l172 527l141 -46l-55 -168v-796h-144zM835 647v-519l40 2l9 -160l-49 -2v-113h-144v105l-359 -19l-9 160l57 3v543h-36v162h549v-162h-58zM691 424h-161v-73h161v73zM691 121v80h-161v-89zM691 647h-161v-73h161v73z" />
    <glyph glyph-name="uni4F76" unicode="&#x4f76;" 
d="M689 604v-76h188v-161h-526v161h186v76h-204v162h204v94h152v-94h212v-162h-212zM139 -145v445l-115 37l172 528l142 -46l-55 -168v-796h-144zM360 -123v424h506v-424h-506zM719 28v123h-207v-123h207z" />
    <glyph glyph-name="uni4F7B" unicode="&#x4f7b;" 
d="M734 857v-244l56 130l113 -49l-99 -227l-70 31v-109l79 37l94 -200l-118 -56l-55 118v-245h38l12 74l126 -20l-37 -226l-4 1v-2h-283v987h148zM564 854l-47 -568l8 -13l-9 -5l-34 -411l-133 11l26 319l-20 -12l-80 139v-460h-134v441l-125 41l172 527l141 -46l-32 -99
l84 24l30 -106l19 229zM392 396l5 66l-49 -14l-65 228l-8 -26v-322z" />
    <glyph glyph-name="uni4F7C" unicode="&#x4f7c;" 
d="M764 306l-81 -139l166 -216l-118 -90l-128 167l-99 -171l-129 74l130 225l-103 134l-21 -28l-107 83v-490h-140v443l-119 39l172 528l142 -46l-55 -168v-284l173 224h-116v170h171v101h170v-101h188v-170h-127l177 -231l-118 -91zM666 434l-70 91l86 66h-199l95 -74
l-82 -106l89 -116z" />
    <glyph glyph-name="uni4F7E" unicode="&#x4f7e;" 
d="M699 861l220 -307l-102 -73v-625h-214v148h61v60h-184v-208h-154v651l-69 43v-694h-136v442l-114 37l171 528l142 -46l-64 -194v-60l182 294l126 -79l-99 -161h226l-113 157zM664 262h-184v-57h184v57zM664 403v65h-184v-65h184z" />
    <glyph glyph-name="uni4F7F" unicode="&#x4f7f;" 
d="M336 822l-10 -31h263l14 75l146 -29l-9 -46h162v-153h-192l-11 -57h181v-359h-253l-22 -113l297 -120l-56 -138l-271 110l-19 -98l-146 29l25 126l-127 51l56 138l100 -41l12 56h-143v359h214l11 57h-233v148l-52 -158v-767h-136v442l-114 37l172 528zM503 360l15 77h-50
v-77h35zM670 437l-15 -77h90v77h-75z" />
    <glyph glyph-name="uni4F83" unicode="&#x4f83;" 
d="M836 392h-535v429h535v-429zM454 552h229v110h-229v-110zM492 362h125v-481h-125v481zM120 293l-101 25l135 546l143 -35l-42 -168v-804h-135v436zM287 -133l45 508l142 -13l-45 -507zM907 140l-24 -272h-227v494h129v-322h38l10 106z" />
    <glyph glyph-name="uni4F84" unicode="&#x4f84;" 
d="M141 -145v438l-109 34l164 538l140 -43l-60 -197v-770h-135zM318 -116v154h207v94h-178v154h178v57h158v-57h172v-154h-172v-94h201v-154h-566zM894 412l-127 -74l-32 55l-394 -34l-12 147l28 3l104 158h-104v158h518v-158h-238l-93 -142l110 9l-28 49l127 73z" />
    <glyph glyph-name="uni4F88" unicode="&#x4f88;" 
d="M195 859l141 -43l-60 -197v-771h-136v439l-109 33zM627 425l61 -69h207v-186l-419 -327l-83 107l115 90l-55 58l-32 -28l-97 110l231 203l-182 -105l-74 128l159 92l-43 45l-28 -27l-101 108l269 252l96 -102h224v-206zM625 131l129 101h-148l-42 -37zM589 573l132 76
h-193l-6 -5z" />
    <glyph glyph-name="uni4F89" unicode="&#x4f89;" 
d="M368 233h-74v144h108l-114 59l104 199h-76v153h156l41 79l121 -63l-8 -16h245v-153h-130l167 -168l-91 -90h67v-144h-363l-7 -49h312v-119h-1v-213h-306v149h148v64h-321zM546 635l-44 -85h131l-85 85h-2zM412 377h395l-45 44h-327zM127 -148v439l-109 33l164 539
l141 -43l-60 -197v-771h-136z" />
    <glyph glyph-name="uni4F8B" unicode="&#x4f8b;" 
d="M403 162l-41 52l-4 -14l-87 25v-366h-135v439l-109 33l161 531l130 -40l-47 -155v-336l94 326h-35v173h267v-173h-108l-22 -76h127v-155l-156 -568l-110 30zM446 318l30 108h-53l-17 -58zM627 773h107v-660h-107v660zM671 -127v165h97v809h130v-974h-227z" />
    <glyph glyph-name="uni4F8D" unicode="&#x4f8d;" 
d="M537 550v75h-175v144h175v87h150v-87h174v-144h-174v-75h225v-162h-584v162h209zM154 290l-141 55l199 518l143 -55l-65 -167v-784h-136v433zM335 92l85 67h-83v154h318v39h150v-39h79v-154h-79v-302h-247v165h97v137h-166l83 -105l-128 -101z" />
    <glyph glyph-name="uni4F8F" unicode="&#x4f8f;" 
d="M717 287l216 -272l-112 -88l-147 185v-255h-151v263l-148 -208l-106 76v-131h-136v433l-141 55l199 518l142 -55l-64 -167v-633l199 279h-167v157h222v113h-73l-16 -90l-132 24l57 323l132 -24l-13 -76h45v142h151v-142h186v-157h-186v-113h209v-157h-166z" />
    <glyph glyph-name="uni4F91" unicode="&#x4f91;" 
d="M155 290l-141 55l199 518l143 -55l-7 -16h124l27 71l143 -55l-7 -17h275v-164h-338l-23 -61h316v-709h-215v131h67v58h-179v-189h-152v323l-96 37v-360h-136v433zM719 234h-180v-56h180v56zM719 427h-180v-61h180v61zM342 627v145l-51 -131v-322l119 308h-68z" />
    <glyph glyph-name="uni4F94" unicode="&#x4f94;" 
d="M222 854l143 -55l-77 -198v-750h-136v435l-129 50zM629 795l-82 -132l130 13l-34 65l122 65l137 -259l-123 -65l-30 58l-392 -43l-16 143l31 4l140 224zM499 468l-11 -48h55v69h154v-69h173v-158h-173v-78h203v-165h-203v-168h-154v168h-221v165h221v78h-91l-12 -53
l-119 27l59 259z" />
    <glyph glyph-name="uni4F97" unicode="&#x4f97;" 
d="M324 801l-50 -169v-773h-136v443l-99 29l158 532l127 -37v3h562v-972h-211v135h-176v413h212v-385h36v649h-284v-812h-139v944zM635 139v122h-56v-122h56zM497 609h216v-147h-216v147z" />
    <glyph glyph-name="uni4F9B" unicode="&#x4f9b;" 
d="M126 -143v437l-100 25l135 546l143 -35l-42 -168v-805h-136zM877 186h-582v166h96v181h-73v158h73v159h152v-159h98v159h149v-159h71v-158h-71v-181h87v-166zM543 352h98v181h-98v-181zM280 -55l182 232l115 -91l-182 -232zM597 85l112 95l190 -225l-112 -95z" />
    <glyph glyph-name="uni4F9D" unicode="&#x4f9d;" 
d="M744 289l171 -296l-123 -71l-272 472v-311l61 23l58 -158l-253 -94l-59 158l50 18v181l-69 -94l-55 40v-298h-136v435l-107 30l151 542l142 -39l-50 -176v-360l209 285h-161v170h176v114h170v-114h208v-170h-211l-37 -50l63 -108l105 88l94 -112z" />
    <glyph glyph-name="uni4FA0" unicode="&#x4fa0;" 
d="M330 830l-64 -185v-773h-137v433l-122 42l184 531zM795 -142l-199 315l-156 -331l-135 62l151 320h-148v160h70l-70 171l123 52l73 -175l-114 -48h131v228h-191v165h191v89h148v-89h188v-165h-188v-228h113l-105 47l78 174l122 -56l-73 -165h75v-160h-140l180 -287z" />
    <glyph glyph-name="uni4FA3" unicode="&#x4fa3;" 
d="M158 286l-134 53l208 523l136 -54l-69 -175v-776h-141v429zM859 827v-421h-473v421h473zM527 674v-109h196v109h-196zM363 323h539v-452h-539v452zM505 158v-127h256v127h-256z" />
    <glyph glyph-name="uni4FA5" unicode="&#x4fa5;" 
d="M306 -91l106 239h-82v159h271l-36 103l-192 -58l-40 133l187 56l-26 77l-133 -14l-16 146l100 10l-21 62l132 45l31 -92l287 31l15 -147l-253 -26l17 -51l176 53l40 -133l-57 -18l101 -82l-78 -95h64v-159h-163v-132h49l11 79l113 -16l-29 -212h-285v281h-31l-130 -296z
M149 288l-137 54l207 523l137 -54l-67 -167v-784h-136v439zM698 450l24 -69l84 102z" />
    <glyph glyph-name="uni4FA6" unicode="&#x4fa6;" 
d="M366 815l-65 -167v-786h-138v440l-4 -10l-136 53l208 524zM657 661v-64h210v-468h-111l147 -174l-123 -102l-163 195l-153 -197l-127 97l138 181h-115v468h149v269h148v-61h246v-144h-246zM496 273h-2v-119l46 62v229h140v-232l45 -50v290h-229v-180z" />
    <glyph glyph-name="uni4FA7" unicode="&#x4fa7;" 
d="M753 117h-95v661h95v-661zM908 850v-973h-191v172h72v801h119zM503 181l170 -261l-79 -51l-120 184l-94 -203l-99 47l135 294v445h87v-455zM310 795l-42 -125v-807h-123v428l-127 40l171 539l121 -41h301v-663h-85v502h-129v-508h-87v635z" />
    <glyph glyph-name="uni4FA8" unicode="&#x4fa8;" 
d="M142 -143v424l-142 58l215 526l142 -58l-83 -201v-749h-132zM926 233l-105 -112l-50 48v-312h-140v389h57l-148 138l-70 -140l86 -7l-30 -382l-153 12l23 284l-115 58l111 221h-72v153h148l42 83l-140 -4l-5 153l468 15l5 -153l-154 -5l-45 -89h220v-153h-143z" />
    <glyph glyph-name="uni4FA9" unicode="&#x4fa9;" 
d="M365 20l76 157h-120v145h563v-145h-120l127 -268l-127 -59l-30 64l-393 -36l-13 139zM528 35l142 13l-41 88l86 41h-118zM917 479l-116 -78l-21 31v-38h-367v42l-23 -35l-107 72v-611h-133v424l-142 58l216 526l141 -58l-82 -201v-119l243 364h140v-1zM713 533l-117 175
l-118 -175h235z" />
    <glyph glyph-name="uni4FAA" unicode="&#x4faa;" 
d="M136 285l-129 46l189 535l144 -51l-61 -173v-788h-143v431zM918 296l-115 -120l-9 9v-331h-143v387h85l-147 141l-149 -136l124 -20l-60 -373l-149 23l54 342l-21 -20l-93 101l195 178l-141 135h-17v160h187v82h153v-82h214v-160h-45l-129 -118zM513 612l87 -83l90 83
h-177z" />
    <glyph glyph-name="uni4FAC" unicode="&#x4fac;" 
d="M136 292l-136 58l222 518l135 -58l-27 -63h241l56 114l132 -65l-24 -49h138v-253h-140v97h-75l-17 -34l69 -146l90 76l103 -120l-124 -105l146 -310l-134 -62l-231 493v-306l75 25l55 -162l-263 -89l-56 162l49 16v77l-13 -27l-118 57v-279h-140v467zM453 591v-83l41 83
h-41zM330 746l-41 -94v-479l150 306h-109v267z" />
    <glyph glyph-name="uni4FAE" unicode="&#x4fae;" 
d="M142 319l-135 58l208 487l135 -58l-67 -158v-795h-131v489zM575 802l-5 -10h322v-147h-395l-28 -57h395v-224h55v-144h-55v-93h36v-140h-36v-134h-244v91h107v43h-411l24 233h-29v144h44l18 169l-77 39l147 295zM487 364h105l-57 54l40 43h-78zM462 127h119l-62 59l33 35
h-80zM727 221h-108l49 -46l-45 -48h104v94zM727 461h-100l57 -54l-40 -43h83v97z" />
    <glyph glyph-name="uni4FAF" unicode="&#x4faf;" 
d="M147 326l-136 58l206 482l135 -58l-62 -145v-803h-139v477zM312 311l77 181h-59v150h340v55h-288v139h441v-194h91v-150h-365l-21 -50h350v-130h-179l-24 -57h233v-146h-225l230 -107l-62 -133l-285 132l-64 -148l-135 58l85 198h-130v146h121zM472 312l-24 -57h66l25 57
h-67z" />
    <glyph glyph-name="uni4FB5" unicode="&#x4fb5;" 
d="M724 586v35h-367v76h367v34h-378v104h517v-346h-522v97h383zM145 330l-131 49l187 490l137 -52l-60 -157v-795h-133v465zM611 -35l-262 -115l-55 126l143 62l-76 33l40 95h-50v70h-37v213h575v-213h-34v-164l-83 -37l139 -58l-50 -118zM442 335v-48h317v48h-317zM598 108
l115 51v7h-250z" />
    <glyph glyph-name="uni4FBF" unicode="&#x4fbf;" 
d="M909 -6l-45 -139l-259 84l-13 -84l-145 22l17 108l-144 47l46 140l120 -40l10 61h-155v446h223l9 55h-240v100l-53 -139v-795h-138v466l-126 48l186 490l131 -49v22h560v-143h-171l-8 -54h150v-447h-219l-17 -107zM728 361h-57l-8 -51h65v51zM695 518l-8 -51h41v51h-33z
M477 518v-51h61l8 51h-69zM514 310l8 51h-45v-51h37z" />
    <glyph glyph-name="uni4FC3" unicode="&#x4fc3;" 
d="M701 144v-79l215 -43l-31 -154l-454 92l-21 -105l-136 27v-22h-138v466l-126 48l186 490l138 -52l-60 -157v-727l90 445l144 -29l-46 -231l91 -18v308h-206v422h514v-422h-160v-93h175v-166h-175zM493 569h223v90h-223v-90z" />
    <glyph glyph-name="uni4FC4" unicode="&#x4fc4;" 
d="M142 323l-130 48l180 492l138 -51l-2 -4l224 24l17 -155l-49 -6v-82h89l-17 260l132 9l4 -75l99 49l81 -164l-111 -55l-67 135l10 -159h158v-166h-147l5 -87l51 60l106 -91l-144 -169l5 -91l124 8l11 -180l-255 -16l-8 135l-52 -62l-74 63v-135h-197v173h66v115l-67 -12
l-30 172l97 17v100h-83v166h83v68l-51 -6l-15 142l-50 -136v-799h-131v465zM520 423v-77l51 9l30 -172l-81 -14v-110l113 133l-14 231h-99z" />
    <glyph glyph-name="uni4FC5" unicode="&#x4fc5;" 
d="M512 13v129l-175 -167l-62 65v-185h-140v473l-122 45l181 492l138 -51l-57 -155v-538l237 226v186h-198v166h198v152h140v-152h63l-28 111l122 31l34 -142h42v-166h-233v-20l45 -95l91 107l113 -96l-134 -158l145 -307l-123 -58l-137 288v-329h-206v148h66zM283 441
l111 80l106 -148l-111 -80z" />
    <glyph glyph-name="uni4FCA" unicode="&#x4fca;" 
d="M130 323l-127 47l181 492l138 -51l-57 -155v-233l203 117l-145 -9l-8 138l19 1l172 208l98 -82l-96 -115l128 9l-27 29l89 82l201 -217l-89 -82l-52 57l-80 -5l244 -141l-62 -108l-35 20v-220l-78 -45l154 -89l-70 -121l-223 129l-240 -138l-80 139l159 92l-55 32
l-38 -40l-89 83v-295h-135v471zM587 152l116 68h-203l-11 -12zM499 542l57 -98l-48 -28l80 -74h208l-192 111l58 100zM265 405v-239l221 238l-165 -96z" />
    <glyph glyph-name="uni4FCE" unicode="&#x4fce;" 
d="M37 -103l138 459l-126 37l142 469l131 -39l-28 -95l106 -113v222h433v-787h56v-173h-565v173h75v129l-90 -112l-62 51l-79 -260zM692 146h-152v-95h152v95zM692 408h-152v-97h152v97zM540 669v-96h152v96h-152zM241 552l-44 -146l125 -38l-26 -86l104 -83v321l-69 -65z
" />
    <glyph glyph-name="uni4FCF" unicode="&#x4fcf;" 
d="M919 555l-101 -74v-624h-216v148h61v59h-185v-207h-151v651l-71 42v-693h-135v442l-114 37l169 527l142 -46l-63 -195v-59l181 294l76 -47v43h116v-43l71 52zM512 752l-83 -133h83v133zM478 262v-56h185v56h-185zM478 471v-66h185v66h-185zM628 756v-137h103z" />
    <glyph glyph-name="uni4FD0" unicode="&#x4fd0;" 
d="M895 -138h-218v170h87v811h131v-981zM337 817l234 25l17 -157l-59 -6v-92h66v-163h-66v-101l45 26l46 -79v498h114v-666h-114v37l-50 -28l-41 72v-321h-135v290l-48 -138l-63 22v-181h-129v471l-124 44l173 494zM327 790l-44 -126v-503l92 263h-52v162h72v78l-53 -5z" />
    <glyph glyph-name="uni4FD1" unicode="&#x4fd1;" 
d="M216 865l135 -49v16h539v-138h-3l3 -4l-169 -131h159v-701h-167v148h29v74h-67v-207h-128v207h-62v-222h-138v701h142l-94 83l45 52h-89v110l-54 -145v-805h-138v474l-123 45zM485 369h62v67h-62v-67zM547 192v64h-62v-64h62zM742 256h-67v-64h67v64zM742 436h-67v-67h67
v67zM715 694h-198l93 -82z" />
    <glyph glyph-name="uni4FD7" unicode="&#x4fd7;" 
d="M642 620l293 -309l-106 -100l-28 29v-372h-459v347l-11 -12l-79 69v-418h-138v474l-123 45l180 492l138 -51l-57 -155v-323l248 284h142zM661 165h-180v-141h180v141zM573 480l-139 -159h290zM261 627l193 220l111 -97l-193 -220zM582 747l104 104l215 -216l-104 -104z
" />
    <glyph glyph-name="uni4FD8" unicode="&#x4fd8;" 
d="M907 108h-216v-246h-243v153h84v93h-216v151h216v13l126 73h-302v137h39l-65 127l110 56l-93 -7l-11 151l-55 -150v-805h-138v474l-124 45l181 492l138 -51l-2 -5l535 41l12 -151l-435 -34l72 -141l-81 -42h317l-67 33l83 167l117 -58l-70 -142h30v-137l-149 -86h207
v-151zM520 633l122 46l53 -142l-122 -46z" />
    <glyph glyph-name="uni4FDA" unicode="&#x4fda;" 
d="M335 233h203v62h-191v535h511v-535h-182v-62h194v-140h-194v-62h232v-148h-596v148h226v62h-203v140zM720 500h-53v-62h53v62zM667 669v-61h53v61h-53zM485 608h61v61h-61v-61zM485 438h61v62h-61v-62zM198 865l138 -51l-57 -155v-805h-138v474l-124 45z" />
    <glyph glyph-name="uni4FDC" unicode="&#x4fdc;" 
d="M142 328l-124 45l180 492l138 -51l-56 -155v-805h-138v474zM667 858v-66h203v-417h-534v417h203v66h128zM465 620h74v52h-74v-52zM539 481v52h-74v-52h74zM745 533h-77v-52h77v52zM668 672v-52h77v52h-77zM537 204l-5 -43h320v-302h-300v124h143v69h-324l15 152h-72v128
h85l1 6l54 -6h453v-128h-370z" />
    <glyph glyph-name="uni4FDD" unicode="&#x4fdd;" 
d="M124 328l-124 45l180 492l138 -50l-56 -156v-642l197 198h-158v147h219v75h-182v389h500v-389h-183v-75h225v-147h-182l228 -208l-98 -109l-173 156v-199h-135v212l-158 -158l-100 100v-154h-138v473zM483 587h214v84h-214v-84z" />
    <glyph glyph-name="uni4FDE" unicode="&#x4fde;" 
d="M523 468h125v-393h-125v393zM606 -137v148h91v481h126v-629h-217zM350 -4v71h-107v-207h-129v633h361v-633h-180v136h55zM242 318h108v58h-108v-58zM350 159v60h-108v-60h108zM893 632l-89 -129l-126 86v-51h-417v71l-151 -88l-78 137l350 202h177zM583 654l-98 66h-30
l-116 -66h244z" />
    <glyph glyph-name="uni4FDF" unicode="&#x4fdf;" 
d="M16 371l181 492l138 -51l-57 -155v-805h-143v475zM909 -13l-93 -135l-270 187l-95 -188l-124 63l110 218h-130v158h210l32 63h-109l-31 -60l-116 58l93 183l-54 -3l-10 156l17 1l162 180l104 -95l-65 -72l126 8l-38 46l98 81l182 -221l-98 -81l-21 25l-253 -16l-21 -42
h334v-148h-144l-32 -63h208v-158h-182z" />
    <glyph glyph-name="uni4FE1" unicode="&#x4fe1;" 
d="M680 857v-82h226v-156h-589v156h200v82h163zM351 574h490v-118h-490v118zM351 410h491v-122h-491v122zM337 244h520v-370h-520v370zM486 106v-83h220v83h-220zM193 864l134 -47l-54 -153v-809h-136v473l-117 42z" />
    <glyph glyph-name="uni4FE3" unicode="&#x4fe3;" 
d="M842 831v-338h-496v338h496zM701 695h-207v-66h207v66zM133 -143v473l-117 42l174 494l133 -47l-53 -153v-809h-137zM909 -8l-77 -135l-270 155l-56 -159l-153 54l75 211h-123v147h174l17 48h-171v136h533v-136h-190l-17 -48h228v-147h-189z" />
    <glyph glyph-name="uni4FE6" unicode="&#x4fe6;" 
d="M818 301v-56h65v-139h-65v-247h-232v145h91v102h-149l66 -75l-109 -95l-40 46l-10 -40l-145 39l85 320h-56v139h93l12 47h-68v113h99l12 47h-129v137h165l22 82l145 -38l-12 -44h218v-137h-254l-13 -47h253v-113h-283l-12 -47h332v-139h-81zM677 301h-147l-15 -56h162v56
zM144 -147v473l-118 42l174 494l134 -47l-54 -153v-809h-136z" />
    <glyph glyph-name="uni4FE8" unicode="&#x4fe8;" 
d="M194 861l126 -44l-50 -145v-795l70 553h111v42l-63 -32l-86 168l94 48l55 -107v137h-116v145h550v-145h-135v-124l57 99l95 -55l-94 -163l-58 33v-46h140v-148h-427l-54 -423l-139 18v-18h-133v475l-113 40zM576 686v-256h48v256h-48z" />
    <glyph glyph-name="uni4FE9" unicode="&#x4fe9;" 
d="M129 335l-109 34l155 492l127 -40l-44 -139v-823h-129v476zM759 667l-14 -89h130v-719h-175v162h55v114l-39 -28l-41 56l-29 -177l-105 18l27 160l-14 -10l-17 23l-20 -163l-93 12v-167h-116v719h171l11 89h-182v160h597v-160h-146zM424 129l36 293h-36v-293zM591 305
l20 117h-44l-9 -72zM755 421h-37l-19 -114l12 9l44 -60v165zM652 667h-55l-11 -89h51z" />
    <glyph glyph-name="uni4FEA" unicode="&#x4fea;" 
d="M303 824h603v-164h-603v164zM299 595h277v-737h-133v170h33v90l-34 -12l-39 110v-358h-104v737zM403 428v-85l43 15l30 -83v153h-73zM174 861l127 -40l-43 -139v-824h-124v475l-115 36zM782 28v90l-34 -12l-39 110v-358h-104v737h277v-737h-133v170h33zM782 275v153h-74
v-85l44 15z" />
    <glyph glyph-name="uni4FED" unicode="&#x4fed;" 
d="M652 858l274 -316l-118 -103l-33 38v-68h-378v61l-23 -28l-98 82v-668h-142v469l-135 61l215 478l140 -63l-78 -174v-55l236 286h140zM584 696l-104 -126h214zM313 54h307l28 87l-77 -21l-66 248l117 31l49 -185l57 174l127 -41l-95 -293h115v-172h-562v172zM322 351
l125 36l80 -274l-125 -37z" />
    <glyph glyph-name="uni4FEE" unicode="&#x4fee;" 
d="M409 140l384 173l44 -99l-384 -172zM742 573l178 -95l-56 -108l-118 62l37 -83l-320 -144l-41 93l312 140l-84 44l-173 -145l-80 95l134 113l-59 30l-21 -29l-64 47v-625l466 210l52 -116l-473 -213l-50 111h-105v777l-31 -91v-792h-126v470l-114 39l169 496l128 -44
l-24 -72h108v-61l137 189l93 -67h239v-136zM545 676l99 -52l72 59h-166z" />
    <glyph glyph-name="uni4FEF" unicode="&#x4fef;" 
d="M141 -143v471l-114 39l169 496l135 -46l-58 -169v-791h-132zM899 531v-157h-43v-508h-187v157h69v105l-77 -26l-52 155v-400h-118v397l-45 16l-19 -410l-136 7l42 918h208v66h167v-66h188v-152h-368l122 -41l-40 -118v-170l79 26l49 -147v191h-97v157h97v83h118v-83h43z
M453 414l74 219h-64z" />
    <glyph glyph-name="uni4FF1" unicode="&#x4ff1;" 
d="M12 372l175 494l146 -51l-61 -171v-791h-132v474zM913 -24l-69 -119l-230 133l59 102h-137l56 -115l-239 -117l-63 129l213 103h-195v138h49v601h488v-601h59v-138h-192zM497 648h201v50h-201v-50zM497 508h201v47h-201v-47zM497 371h201v46h-201v-46zM497 230h201v50
h-201v-50z" />
    <glyph glyph-name="uni4FF3" unicode="&#x4ff3;" 
d="M433 -143v178h-125v173h125v93h-114v163h114v90h-114v170h114v126h136v-993h-136zM758 850v-123h128v-170h-128v-93h114v-163h-114v-93h150v-173h-150v-178h-136v993h136zM18 372l175 494l146 -51l-61 -171v-791h-136v475z" />
    <glyph glyph-name="uni4FF8" unicode="&#x4ff8;" 
d="M812 346l114 -141l-115 -92l-52 64v-43h-107v-44h208v-131h-208v-111h-132v111h-221v131h81l-122 49v-291h-133v473l-125 47l185 490l137 -52l-5 -14h196l31 80l137 -55l-10 -25h189v-127h-239l-17 -43h237v-102h-278l-17 -43h332v-131h-66zM258 151l77 195h-43v130h95
l17 43h-78v103h119l17 43h-150v114l-54 -144v-484zM520 134h-111l-17 -44h128v44zM623 346h-129l-38 -95h64v55h132v-55h48z" />
    <glyph glyph-name="uni4FFA" unicode="&#x4ffa;" 
d="M739 624l187 -211l-102 -91l-4 5v-228l69 -16l-51 -223h-213v-1h-117v178h-201v321l-56 33v-538h-138v469l-113 35l158 500l146 -46l-52 -167v-196l101 176h-53v150h140l52 92l118 -69l-13 -23h258v-150h-116zM432 319h76v52h-76v-52zM508 156v63h-76v-63h76zM625 -8h101
l10 45h-111v-45zM695 219h-70v-63h70v63zM695 319v52h-70v-52h70zM625 547v-67h59zM557 624h-47l-83 -144h81v87h99z" />
    <glyph glyph-name="uni4FFE" unicode="&#x4ffe;" 
d="M143 -147v474l-120 44l182 492l144 -54l-64 -171v-785h-142zM902 150v-156h-184v-142h-146v142h-257v156h81l38 99h-92v539h150l29 79l160 -60l-7 -19h186v-539h-299l-37 -99h48v63h146v-63h184zM724 455h-69v-64h69v64zM724 643h-69v-65h69v65zM479 578h69v65h-69v-65z
M479 391h69v64h-69v-64z" />
    <glyph glyph-name="uni500C" unicode="&#x500c;" 
d="M900 786v-258h-54v-266h-325v-52h340v-342h-485v660h-39v245l-49 -133v-786h-142v475l-121 44l183 492l144 -54l-10 -25h190v50h167v-50h201zM521 83v-80h195v80h-195zM705 436h-184v-57h184v57zM754 630h-267v-65h267v65z" />
    <glyph glyph-name="uni500D" unicode="&#x500d;" 
d="M801 510h99v-158h-575v158h98l-25 116h-44v155h165v60h177v-60h174v-155h-47zM581 510h62l22 116h-109zM362 -123v410h492v-410h-492zM512 34h191v102h-191v-102zM208 865l144 -54l-64 -171v-785h-142v474l-121 44z" />
    <glyph glyph-name="uni500F" unicode="&#x500f;" 
d="M289 737h102v-66l142 201l105 -74h227v-184l-93 -70l144 -83l-67 -116l-194 111l-188 -141l-76 101v-462h-102v783zM555 669l94 -54l78 58h-169zM391 596v-174l141 105l-54 32l-11 -16zM179 852l128 -43l-57 -170v-792h-125v470l-115 39zM386 -96l93 230h-58v145h118
l44 109l139 -56l-21 -53h41l-17 47l94 35l31 -82h34v-145h-180l199 -163l-102 -124l-207 169l-69 -169z" />
    <glyph glyph-name="uni5012" unicode="&#x5012;" 
d="M132 328l-109 31l145 504l137 -39l-47 -162v-806h-126v472zM690 34h90v818h122v-990h-212v172zM297 507l57 162h-44v162h292v-162h-122l-49 -142l75 12l-28 60l96 44l63 -139v273h106v-677h-106v294l-54 -25l-13 29l-51 -8v-92h81v-157h-81v-71l94 9l16 -160l-334 -32
l-15 160l110 11v83h-91v157h91v72l-98 -15l-23 148z" />
    <glyph glyph-name="uni5014" unicode="&#x5014;" 
d="M739 490v-143h41v98h105v-246h-146v-177h55v134h109v-286h-425v287h101v-135h43v177h-134v246h99v-97h35v143h-149l-34 -637l-140 8l53 958h541v-329h-138zM480 616h275v58h-272zM23 372l175 494l146 -51l-56 -157v-805h-137v474z" />
    <glyph glyph-name="uni5018" unicode="&#x5018;" 
d="M139 328l-129 44l176 494l146 -51l-21 -59l-4 -8l-30 -89v-4l143 159l90 -81l-138 -153h162v102l2 4v174h142v-278h140l-133 174l96 74l134 -176l-95 -72h65v-720h-186v112h-204v398h219v-345h36v400h-293v-565h-131v718h24l-73 66v-793h-138v475zM576 224v-102h53v102
h-53z" />
    <glyph glyph-name="uni5019" unicode="&#x5019;" 
d="M293 736h102v-780h-102v780zM738 119l170 -143l-98 -118l-177 148l-42 -148l-121 34l64 227h-110v138h149l16 54h-54l-19 -44l-116 49l75 177h-51v148h251v48h-240v142h390v-190h54v-148h-302l29 -12l-15 -38h265v-132h-136l-16 -54h175v-138h-141zM133 327l-115 39
l169 496l129 -43l-58 -170v-792h-125v470z" />
    <glyph glyph-name="uni501A" unicode="&#x501a;" 
d="M209 858l137 -52l-64 -172v-787h-141v476l-117 44zM682 803l-7 -12h187v-148h-134l147 -108l-49 -66h76v-154h-57v-451h-206v74h-300v328h317v-245h49v294h-393v154h111l-67 35l74 139h-87v148h166l43 81zM549 78v66h-99v-66h99zM716 469l-152 111l-59 -111h211z" />
    <glyph glyph-name="uni501C" unicode="&#x501c;" 
d="M688 -137v93h-191v311h218v-240h46v659h-85v-62h58v-123h-58v-57h68v-134h-262v134h62v57h-55v123h55v62h-72l-42 -823l-135 6l49 969h547v-976h-130zM631 88v68h-51v-68h51zM194 862l140 -45l-51 -159v-800h-137v469l-112 36z" />
    <glyph glyph-name="uni501F" unicode="&#x501f;" 
d="M138 327l-113 36l161 499l140 -45l-46 -141v-818h-142v469zM349 -126v493h494v-493h-494zM494 174h207v68h-207v-68zM494 2h207v69h-207v-69zM900 568v-152h-589v152h95v67h-73v146h73v78h142v-78h101v78h136v-78h84v-146h-84v-67h115zM548 568h101v67h-101v-67z" />
    <glyph glyph-name="uni5021" unicode="&#x5021;" 
d="M373 389v439h478v-439h-478zM511 659h203v43h-203v-43zM511 515h203v41h-203v-41zM347 355h542v-482h-542v482zM742 53h-243v-45h243v45zM499 223v-47h243v47h-243zM196 862l156 -49l-61 -190v-765h-142v469l-113 36z" />
    <glyph glyph-name="uni5025" unicode="&#x5025;" 
d="M316 786h191v65h161v-65h199v-245h-136v80h-278v-80h-137v245zM665 166v-119h221v-164h-578v164h208v119h-176v159h8l-61 117l238 123l66 -128l-217 -112h417l-204 127l80 128l246 -153l-72 -114v-147h-176zM13 363l160 499l148 -47l-53 -164v-793h-142v469z" />
    <glyph glyph-name="uni5026" unicode="&#x5026;" 
d="M122 315l-123 42l176 505l147 -51l-28 -80l112 123l89 -81l-76 -85h70l70 183l119 -45l-51 -138h125l-72 93l97 75l134 -174l-47 -34v-85h-284l-17 -46h320v-138h-106l149 -149l-91 -91l-64 64v-57h2v-87l112 -43l-61 -161h-456v218l-95 37l101 271h-78v138h132l16 46
h-127v75l-42 38l-15 -43v-786h-138v466zM574 37v109h72v59h-138v-225h199l21 57h-154zM652 324l-55 55h-85l-21 -55h161z" />
    <glyph glyph-name="uni5028" unicode="&#x5028;" 
d="M738 295v-57h128v-370h-403v370h139v57h-137l-37 -438l-145 12v-15h-141v467l-119 41l175 504l147 -51l-61 -176v-729l77 914h520v-332h-143v-58h165v-139h-165zM729 101h-134v-94h134v94zM738 679h-241l-5 -58h246v58zM602 434v58h-121l-5 -58h126z" />
    <glyph glyph-name="uni5029" unicode="&#x5029;" 
d="M150 -139v394l-135 46l192 565l140 -47l-55 -161v-797h-142zM910 402h-598v115h219v34h-177v103h177v38h-186v108h186v55h149v-55h205v-108h-205v-38h195v-103h-195v-34h230v-115zM707 -24v37h-203v-159h-145v513h493v-512h-214v121h69zM504 226h203v35h-203v-35z
M707 104v31h-203v-31h203z" />
    <glyph glyph-name="uni502A" unicode="&#x502a;" 
d="M133 -137v393l-132 44l192 566l140 -48l-63 -183v-772h-137zM810 130l115 -20l-42 -241h-280v385h-38l-136 -400l-135 47l120 353h-85v551l206 50l41 -169l-109 -26v-55h96v-136h-96v-60h241v60h-100v136h100v57h-100v159h241v-567h-105v-214h51z" />
    <glyph glyph-name="uni502C" unicode="&#x502c;" 
d="M140 -136v463l-112 36l160 499l155 -50l-66 -205v-743h-137zM672 143h226v-159h-225v-127h-157v127h-202v159h202v54h-176v416h158v245h155v-51h217v-139h-217v-55h196v-416h-177v-54zM492 452h209v34h-209v-34zM492 314h209v34h-209v-34z" />
    <glyph glyph-name="uni502D" unicode="&#x502d;" 
d="M904 400l-64 -96h59v-132h-6l-175 -121l175 -80l-55 -120l-246 113l-157 -108l-69 100l97 68l-118 54l54 94h-91v132h41l-69 102l159 106h-126v127h217v56l-175 -6l-5 139l495 16l5 -139l-193 -6v-60h227v-127h-149zM365 304h111l30 53l92 -53h212l-153 102v-55h-127v64z
M678 172h-127l-19 -35l58 -27zM271 613v-755h-138v475l-112 36l160 499l156 -50z" />
    <glyph glyph-name="uni502E" unicode="&#x502e;" 
d="M862 179h-155l211 -154l-96 -132l-176 128v-166h-137v174l-165 -165l-87 88v-97h-143v477l-107 34l160 499l156 -49l-66 -206v-603l171 172h-138v148h219v47h-185v453h508v-453h-186v-47h216v-148zM695 550h-49v-47h49v47zM646 693v-48h49v48h-49zM460 645h49v48h-49v-48
zM509 503v47h-49v-47h49z" />
    <glyph glyph-name="uni503A" unicode="&#x503a;" 
d="M890 519v-119h-575v119h214v38h-173v108h173v30h-188v101l-55 -178v-756h-144v479l-107 34l159 500l157 -51l-4 -11h182v53h140v-53h206v-118h-206v-30h180v-108h-180v-38h221zM712 95v125h-221v-134h-133v271h483v-262h-129zM657 114l231 -146l-70 -111l-217 136
l-188 -148l-83 106l212 167v83h115v-87z" />
    <glyph glyph-name="uni503C" unicode="&#x503c;" 
d="M855 30h46v-160h-592v160h34v574h181v49h-190v146l-61 -189v-755h-136v475l-113 36l160 499l155 -50l-4 -13h189v57h148v-57h201v-149h-201v-49h183v-574zM490 431h213v52h-213v-52zM490 295h213v49h-213v-49zM490 165h213v43h-213v-43zM490 30h213v48h-213v-48z" />
    <glyph glyph-name="uni503E" unicode="&#x503e;" 
d="M302 828l-44 -159v-812h-123v465l-110 29l140 515zM525 12l-193 -93l-72 150l57 26v752h125v-231h43v-178h-43v-282l11 7zM756 678l-19 -58h135v-510h-82l106 -210l-83 -43l-125 253l-112 -257l-85 38l97 221h-76v511h102l19 57h-134v150h401v-152h-144zM603 148l39 87
v220h93v-235l42 -81v340h-174v-331z" />
    <glyph glyph-name="uni5043" unicode="&#x5043;" 
d="M843 26h61v-145h-597v911l-43 -138v-797h-132v463l-111 35l159 508l127 -39h587v-146h-458v-652h64l-14 15l103 99l-97 51l30 65h-62v86h102l14 30h-103v277h392v-277h-181l-14 -30h220v-86h-52l-93 -89l135 -71zM585 536h166v29h-166v-29zM585 446h166v29h-166v-29z
M663 211l47 45h-80l-10 -22zM597 26h206l-132 70z" />
    <glyph glyph-name="uni5047" unicode="&#x5047;" 
d="M777 124l163 -171l-98 -93l-137 144l-90 -149l-105 62l108 179l-50 52v-104h-123v-184h-141v942l-49 -145v-797h-132v416l-138 46l185 543l134 -46v21h260v-368h-120v-65h121v-150h-121v-62h124v-11l80 76l66 -70l47 79h-160v146h263v-146zM430 618h61v69h-61v-69z
M601 472v146h124v69h-124v153h261v-368h-261z" />
    <glyph glyph-name="uni5048" unicode="&#x5048;" 
d="M900 387v-530h-216v48h-329v293l-60 45v-386h-138v418l-132 45l185 543l139 -48l-54 -160v-391l129 172h-60v398h510v-398h-283l11 -8l-31 -41h329zM474 257l-37 -49h56v-82l76 131h-95zM516 676h205v40h-205v-40zM516 545h205v35h-205v-35zM691 9h61v98l-53 -52l-75 75
l-46 -79l-85 49v-56h198v-35zM752 257h-55l-20 -34l75 -75v109z" />
    <glyph glyph-name="uni504C" unicode="&#x504c;" 
d="M809 794h101v-166h-101v-81h-136v81h-110v-28l84 -41l-21 -44h276v-159h-353l-26 -54h342v-431h-465v175l-10 -22l-105 50v-217h-138v418l-132 45l185 543l140 -48l-55 -160v-509l101 210h-64v159h140l20 41h-55v72h-85v166h85v61h136v-61h110v61h136v-61zM542 141v-111
h172v111h-172z" />
    <glyph glyph-name="uni504E" unicode="&#x504e;" 
d="M343 414v422h508v-423h-203zM713 577h-65v-54h65v54zM648 714v-57h65v57h-65zM478 657h68v57h-68v-57zM546 523v54h-68v-54h68zM807 76l115 -102l-93 -104l-338 300v-112l90 24l42 -157l-267 -72l-42 157l47 13v203h-65v141h586v-141h-83l76 -97zM795 226h-156l73 -65z
M273 659v-798h-138v418l-131 45l184 543l140 -48z" />
    <glyph glyph-name="uni504F" unicode="&#x504f;" 
d="M903 440v-579h-117v227h-37v-191h-81v191h-37v-191h-81v191h-36v-227h-115v112l-106 13v-129h-138v418l-132 45l185 543l140 -48l-55 -160v-428l70 562h174v70h176v-70h47v1h130v-295h-408l-7 -55h428zM760 672h-256l-8 -62h264v62zM550 216v93h-36v-93h36zM668 216v93
h-38v-93h38zM786 309h-37v-93h37v93z" />
    <glyph glyph-name="uni5055" unicode="&#x5055;" 
d="M285 656v-801h-146v424l-124 42l185 543l140 -48zM577 429l-227 -59l-37 142l43 12v329h137v-75h71v-142h-71v-77l47 12zM861 345v-473h-502v473h155l13 66l146 -26l-7 -40h195zM718 1v66h-215v-66h215zM718 175v58h-215v-58h215zM800 612l110 -7l-13 -206h-298v454h136
v-83l117 48l55 -137l-172 -71v-74h60z" />
    <glyph glyph-name="uni505A" unicode="&#x505a;" 
d="M252 653v-800h-130v418l-139 48l185 542l139 -47zM826 -148l-97 210l-69 -204l-122 41l3 8h-254v511h81v122h-86v174h86v139h122v-139h84v-100l73 253l128 -37l-28 -96h150v-178l-108 -318l153 -332zM696 556l-21 -71l36 -78l51 149h-66zM490 540v-122h28l35 122h-63z
M454 72v176h-53v-176h53zM652 231l-75 162l-15 4v-431z" />
    <glyph glyph-name="uni505C" unicode="&#x505c;" 
d="M533 802v37h177v-37h199v-140h-576v140h200zM17 330l191 539l131 -47l-52 -149v-815h-134v511l-27 -78zM316 388h578v-215h-47v-99h-143v-223h-249v147h90v76h-180v99h-49v215zM455 253v-44h296v44h-296zM859 424h-501v204h501v-204zM708 503v45h-195v-45h195z" />
    <glyph glyph-name="uni5065" unicode="&#x5065;" 
d="M113 320l-92 25l143 524l126 -34l-41 -147v-628l24 88l23 -6l68 269h-85v133l84 144h-72v153h210v-153l-84 -145h79v-132l-76 -303l185 -50v28h-99v117h99v44h-85v107h85v43h-75v102h75v42h-93v119h93v43h-75v121h75v48h131v-48h141v-151h27v-145h-27v-131h-141v-43h147
v-107h-147v-43h165v-118h-165v-64l160 -43l-36 -132l-454 123l-25 -99l-124 31l26 102l-34 9v-141h-124v494zM736 703v-51h50v51h-50zM736 499h50v49h-50v-49z" />
    <glyph glyph-name="uni506C" unicode="&#x506c;" 
d="M6 314l167 544l139 -43l-58 -187v-609l53 208l109 -28v52h107l-55 26l49 103l-38 14l-78 -167l-119 55l75 159l-46 18l33 84l-76 44l165 287l104 -60l-14 -24h336v-530h-177v121l-22 -57l-42 17l-52 -109l74 33l66 -142l-115 -53l-47 102v-162h78l15 71l113 -25l-44 151
l124 36l90 -309l-124 -36l-44 154l-43 -195h-293v318l-67 -264l-94 24v-90h-132v515l-23 -74zM743 420v211h-9l-74 -158l51 -19l-13 -34h45zM431 631l-33 -57l47 -18l35 75h-49zM576 505l58 125h-44l-52 -110zM544 242v-21l22 10z" />
    <glyph glyph-name="uni5076" unicode="&#x5076;" 
d="M24 305l187 562l135 -45l-62 -188v-776h-136v491l-26 -77zM347 374v462h519v-462h-196v-44h231v-477h-181v84l-36 -3l-4 41l-194 -16l-12 145l70 5v75h-82v-326h-135v472h217v44h-197zM765 4v180h-114v-81l28 2l-5 51l70 6l13 -158h8zM730 547h-60v-51h60v51zM730 701
h-60v-56h60v56zM483 645h61v56h-61v-56zM483 496h61v51h-61v-51z" />
    <glyph glyph-name="uni5077" unicode="&#x5077;" 
d="M622 476h91v-412h-91v412zM660 -145v161h87v479h110v-640h-197zM470 -5v69h-65v-209h-115v640h296v-640h-158v140h42zM405 374v-62h65v62h-65zM470 159v58h-65v-58h65zM104 284l-99 33l183 547l135 -45l-58 -175l239 213h145l272 -242l-100 -113l-93 83v-50h-315v44
l-79 -69l-76 86v-741h-133v491zM573 722l-81 -73h163z" />
    <glyph glyph-name="uni507B" unicode="&#x507b;" 
d="M394 696l-55 119l111 51l62 -133l-79 -37h95v171h137v-171h87l-71 41l73 127l107 -62l-61 -106h86v-138h-160l185 -107l-70 -121l-176 101v-47h-137v45l-167 -96l-70 122l180 103h-146v138h69zM296 -40l123 100l-64 31l44 86h-88v152h164l30 61l120 -61h268v-152h-51
l-128 -103l183 -86l-59 -125l-279 131l-175 -142zM591 132l80 65h-106l-21 -42zM14 321l183 547l135 -45l-58 -176v-783h-140v486l-20 -62z" />
    <glyph glyph-name="uni507E" unicode="&#x507e;" 
d="M527 662h-193v142h193v64h128v-64h205v-142h-205v-61h-128v61zM688 397v39h-193v-39h-129v39h-71v145h71v54h129v-54h193v54h128v-54h77v-145h-77v-39h-128zM111 286l-99 33l183 548l135 -45l-60 -181h5v-683l153 143h-99v276h525v-273h-137v143h-253v-112l117 110
l96 -103l-13 -12l249 -161l-76 -117l-277 180l-191 -179l-94 99v-93h-137v509z" />
    <glyph glyph-name="uni507F" unicode="&#x507f;" 
d="M789 144l118 -236l-127 -63l-36 70l-231 -24l-187 -17l-15 153l51 6l58 113h-125v146h610v-148h-116zM634 133l27 13h-82l-56 -109l151 15zM303 637l-34 30l-8 -23v-780h-132v508l-27 -82l-100 34l182 551l136 -47l-28 -84l100 110l89 -81l-57 -63h108v154h129v-157h98
l-66 87l98 75l133 -174l-34 -26v-256h-72v-62h-439v64h-76v222zM750 487v70h-318v-70h318z" />
    <glyph glyph-name="uni5080" unicode="&#x5080;" 
d="M829 43l85 -25l-45 -149h-334v220l-162 -241l-98 65v-56h-138v492l-17 -46l-109 39l192 525l131 -48l-59 -163v-683l193 289h-139v527h164l15 82l162 -30l-10 -52h192v-526h-49l-15 -36l33 13l68 -172zM731 136l43 3l-20 51zM703 467h-58v-68h58v68zM703 649h-58v-60h58
v60zM470 589h58v60h-58v-60zM470 399h58v68h-58v-68zM610 203h63l24 59h-47zM684 14h87l11 39l-98 -8v-31z" />
    <glyph glyph-name="uni5085" unicode="&#x5085;" 
d="M815 197h95v-132h-95v-212h-223v138h88v74h-169l70 -71l-107 -107l-115 115l63 63h-115v132h373v27h135v-27zM15 344l201 521l131 -50l-12 -31h205v74h134v-74h66l-15 46l109 37l29 -83h35v-129h-224v-34h192v-388h-131v37h-61v-29h-134v29h-66v-49h-129v400h195v33h-209
v119l-48 -123v-794h-138v503l-22 -57zM474 530v-39h66v39h-66zM540 362v41h-66v-41h66zM735 362v41h-61v-41h61zM674 530v-39h61v39h-61z" />
    <glyph glyph-name="uni5088" unicode="&#x5088;" 
d="M888 285v-138h-159l185 -158l-91 -108l-161 137v-162h-133v162l-164 -147l-89 100v-115h-138v507l-25 -71l-102 35l186 537l122 -42v9h562v-150h-129v-61h113v-277h-203v-58h226zM624 445v68h-56v-68h56zM431 513v-68h52v68h-52zM758 513h-50v-68h50v68zM624 681h-56v-61
h56v61zM453 146h-141v139h217v57h-207v278h117v61h-120v107l-45 -130h2v-670z" />
    <glyph glyph-name="uni508D" unicode="&#x508d;" 
d="M587 244l-21 -47h278v-327h-234v136h98v65h-198l-98 -222l-128 57l150 338h-120v142h224v50h145v-50h224v-142h-320zM276 -137h-136v489l-18 -53l-103 35l186 537l132 -46l-6 -17h202v56h154v-56h212v-143h-82l-23 -69h86v-172h-132v36h-284v-36h-134v172h93l-25 69h-78
v110l-44 -128v-784zM668 665h-120l24 -69h72z" />
    <glyph glyph-name="uni50A3" unicode="&#x50a3;" 
d="M101 261l-96 32l188 563l135 -45l-7 -21h246l32 81l115 -44l-14 -37h173v-126h-222l-15 -39h219v-110h-261l-15 -39h305v-136h-102l139 -155l-92 -83l-37 40l-37 -47l164 -101l-74 -120l-191 117v-143h-192v94l-123 -71l-73 126l162 94l-23 34l-11 -31l-122 47l77 200
h-48v135h145l15 39h-129v110h172l15 39h-199v123l-58 -175v-764h-134v496zM614 341h-125l-32 -84l70 -104l-56 -38l46 -81h16v258h122v-264l55 89l-51 41l56 70z" />
    <glyph glyph-name="uni50A5" unicode="&#x50a5;" 
d="M815 93l101 -22l-44 -207h-269v292h-38l-113 -309l-140 51l98 258h-45v278h-49v193l-42 38l-6 -17h2v-784h-134v468l-21 -63l-112 38l188 566l136 -47l-23 -72l89 97l89 -80l-49 -53h89v144h140v-142h89l-59 76l97 75l134 -174l-49 -38v-223h-51v-280h-83v-148h56z
M501 370v-76h180v76h-180zM442 572v-64h294v64h-294z" />
    <glyph glyph-name="uni50A7" unicode="&#x50a7;" 
d="M682 75h-161l59 -105l-208 -116l-69 124l175 97h-165v135h64v344h-43v243l-53 -143v-800h-138v493l-17 -47l-108 40l191 525l132 -48l-6 -16h191v56h163v-55h192v-238h-64l6 -71l-309 -26v-42h344v-136h-92v-79h141v-135h-184l181 -98l-65 -121l-214 115zM738 664h-263
v-68l263 22v46zM514 210h117v79h-117v-79z" />
    <glyph glyph-name="uni50A8" unicode="&#x50a8;" 
d="M824 564h74v-148h-157l-31 -59h150v-488h-333v140l-163 -136l-97 119l61 51v354h-47v176h172v-422l11 9l63 -79v91l-61 34l116 212h-101v148h101v66h-65v140h65v83h121v-83h47v-114l76 137l96 -55zM639 56v-55h104v55h-104zM639 231v-44h104v53h-99zM686 632v-66h13
l36 66h-49zM260 632v-778h-131v492l-17 -47l-108 41l190 525l134 -49zM287 633l97 191l116 -59l-97 -190z" />
    <glyph glyph-name="uni50A9" unicode="&#x50a9;" 
d="M542 -10l-91 -33l-46 127l-38 -199l-104 20v-52h-130v503l-18 -55l-96 30l166 534l134 -42l-11 -33h200v-170l-59 -309l93 -260v315l-71 17l118 484l105 -25l-29 -123h58l-15 98l113 18l18 -116h51v-160h-56v-75h44v-145h-44v-76h44v-142h-44v-77h73v-165h-365v111z
M263 -95l72 376l-72 203v-579zM378 508l22 112h-102v137l-36 -113v-115l96 34zM722 121h-60v-77h60v77zM722 339h-60v-76h60v76zM722 559h-60v-76h60v76z" />
    <glyph glyph-name="uni50AC" unicode="&#x50ac;" 
d="M117 281l-103 35l188 546l139 -48v5h130v-82h69v121h143v-121h69v82h129v-220h-540v210l-45 -132v-317l116 237l108 -52l-12 -24h96l36 73l108 -53l-10 -20h153v-122h-142v-50h128v-120h-128v-51h128v-118h-128v-49h163v-137h-541v364l-24 -47l-51 25v-358h-143v529z
M620 61h-116v-50h116v50zM620 229h-116v-51h116v51zM620 399h-116v-50h116v50z" />
    <glyph glyph-name="uni50B2" unicode="&#x50b2;" 
d="M1 345l161 518l130 -40l-44 -142v-760l74 366h-52v142h99v33h-86v129h86v28h-90v154h90v81h130v-81h81v-154l76 246l119 -37l-28 -90h141v-178l-106 -319l142 -320l-124 -55l-81 185l-64 -190l-81 27v-21h-172v146h65v93h-54l-51 -251l-114 23v-20h-132v527l-21 -69z
M449 287l-5 -24h129v-280l78 234l-58 130l-6 2v-62h-138zM692 560l-27 -88l41 -91l59 179h-73zM559 551l21 68h-81v-28h60v-40zM499 429h42l10 33h-52v-33z" />
    <glyph glyph-name="uni50BA" unicode="&#x50ba;" 
d="M839 155h-167v-82l108 69l128 -202l-112 -71l-124 194v-215h-214v163l-90 -143l-107 68v-85h-139v501l-22 -70l-95 30l170 551l142 -44l-57 -185v-59l133 295l111 -50l-8 -17h60l-11 26l101 42l27 -66h196v-198l-50 -102l101 -244l-81 -33v-73zM611 612l-79 -142h137z
M738 580l38 79h-71zM438 531l-43 49l-16 -37l40 -46zM260 472v-205l92 169l-28 33l-10 -21zM433 288h312l-42 101v-52h-206v68zM437 673l-2 -5l47 -54l33 59h-78zM527 155h-184v57l-12 -23l-71 38v-274l122 193l115 -72l-38 -60h68v141z" />
    <glyph glyph-name="uni50BB" unicode="&#x50bb;" 
d="M854 408h-105l171 -89l-49 -94l-32 17v-74l-130 -107l182 -99l-66 -120l-266 146l-177 -146l-85 103l128 106l-30 17l-38 -37l-81 85l156 149l-104 -61l-55 95l187 109h-136v393h166l24 76l136 -43l-11 -33h215v-393zM727 679h-33l28 -48l-55 -31l49 -31l-27 -43h38v153z
M594 557l-54 -31h104zM660 679h-121l59 -36zM452 679v-153h28l-21 37l65 37l-57 36l27 43h-42zM667 168h-167l-6 -6l100 -55zM774 275l-148 77l29 56h-132l39 -68l-33 -19l43 -46h202zM264 660v-805h-135v521l-30 -88l-94 33l184 539l128 -43z" />
    <glyph glyph-name="uni50CF" unicode="&#x50cf;" 
d="M793 244l131 -275l-115 -55l-123 255l-15 -11l56 -269l-248 -51l-27 133l-150 -84l-42 75v-104h-130v507l-27 -75l-102 37l198 543l127 -46l-55 -153l198 211l63 -60h268v-115l-52 -55h116v-260h-63l67 -95zM737 551h-85v-56h85v56zM289 293l177 99h-144v144l-10 -10
l-52 49v-439l249 139l-6 26l-167 -93zM445 495h87v56h-87v-56zM644 707h-135l-52 -55h135zM535 147l-5 27l-222 -124l-48 86v-142zM566 -6l-7 37l-107 -60zM643 295l138 97h-115l-39 -21z" />
    <glyph glyph-name="uni50D6" unicode="&#x50d6;" 
d="M327 109h550v-239h-550v239zM484 25v-58h235v58h-235zM915 148h-607v117h102l-22 47h-49v198h527v-198h-48l-22 -47h119v-117zM494 386h213v46h-213v-46zM565 265h79l22 47h-123zM326 822l-4 -14h197v48h167v-48h214v-119h-214v-40h191v-102h-541v102h183v40h-205v97
l-40 -122h9v-810h-137v512l-28 -84l-108 36l184 548z" />
    <glyph glyph-name="uni50DA" unicode="&#x50da;" 
d="M814 503l111 -111l-91 -91l-16 15v-194h-74l169 -159l-90 -95l-162 152v-166h-220v153h73v115h-125l87 -63l-143 -195l-76 55v-65h-137v494l-22 -66l-98 33l184 548l128 -43l-55 -162v-291l87 125l-71 87l89 73h-54v145h248l49 69l99 -69h173v-145h-87l87 -82zM783 652
h-118l61 -61zM517 485h132l-78 78zM478 346h199v37h-199v-37zM419 598l37 54h-81zM359 122h-19v170l-83 57v-366zM737 122h-76v-80zM677 260h-199v-36h199v36z" />
    <glyph glyph-name="uni50E6" unicode="&#x50e6;" 
d="M95 306l-91 28l167 534l128 -40l-12 -40h87v71h137v-71h88v-157h-313v153l-39 -126h1v-566l44 140l96 -30l-59 -187h59v252h-97v320h296v-320h-78v-55l57 28l31 -63l46 273h-30v176h31l40 239l116 -19l-7 -39l54 19l56 -161l-90 -32l-33 95l-17 -102h134v-177h-135
l-9 -54h65v-371h34l10 124l60 -5l-23 -278h-184v300l-53 -312l-116 19l34 203l-38 -19l-32 66v-270h-189v138l-11 -36l-62 19v-117h-130v524zM408 392h60v71h-60v-71z" />
    <glyph glyph-name="uni50E7" unicode="&#x50e7;" 
d="M338 634v132h91l-20 41l128 61l49 -102h62l49 103l128 -61l-20 -42h90v-418h-556v286h-1zM361 -137v446h505v-446h-505zM136 296l-105 37l184 527l133 -46l-57 -163h6v-801h-140v505zM508 147h208v44h-208v-44zM508 -12h208v43h-208v-43zM669 460h113v108l-41 -96l-72 30
v-42zM451 459h105v40l-72 -25l-33 94v-109zM556 634h-105v-26l66 23l39 -112v115zM720 634h-51v-121zM782 634h-62l62 -27v27z" />
    <glyph glyph-name="uni50EC" unicode="&#x50ec;" 
d="M461 96l109 4l9 -224l-109 -4zM599 95l109 12l22 -216l-109 -11zM733 97l115 34l70 -241l-115 -33zM113 297l-106 35l179 530l138 -47l-57 -169v-195l127 413l124 -37l-20 -66h76l33 108l130 -40l-21 -68h156v-127h-159v-46h145v-114h-145v-44h145v-113h-145v-42h171
v-130h-546v250l-15 -49l-56 17v-472l60 236l119 -30l-60 -240l-119 30v-36h-136v498zM588 316h-120v-41h120v41zM588 474h-120v-44h120v44zM588 634h-120v-47h120v47z" />
    <glyph glyph-name="uni50ED" unicode="&#x50ed;" 
d="M109 300l-100 33l178 530l127 -42v5h265v-118h-41l-25 -61h63v-118h-94l-9 -22h82v-42l37 17l25 -54l41 101h-55v118l5 45l71 -7l-4 -38h33l25 61h-126v118h275v-118h-42l-26 -61h76v-118h-116l-9 -21h42v-65h38l9 46l62 -11l-28 -141h-166v65l-35 -83h169v-447h-526v442
l-48 20l81 195h-64v118l4 45l73 -7l-4 -38h40l25 61h-123v93l-55 -162v-783h-134v490zM710 -12v56h-237v-56h237zM710 210h-237v-59h237v59zM467 493l-72 -174h266l-76 32l8 21l-110 -51l-30 66l14 6v100z" />
    <glyph glyph-name="uni50EE" unicode="&#x50ee;" 
d="M675 -16h231v-109h-603v109h227v35h-197v104h197v35h-192v332h522v-332h-185v-35h190v-104h-190v-35zM728 292h-71v-39h71v39zM728 403h-71v-39h71v39zM469 364h75v39h-75v-39zM469 252h75v40h-75v-40zM335 817l-5 -17h186v58h175v-58h187v-118h-79l-19 -41h117v-122
h-588v122h101l-17 41h-64v116l-50 -148v-794h-138v509l-22 -65l-100 34l179 529zM643 682h-91l17 -41h56z" />
    <glyph glyph-name="uni50F3" unicode="&#x50f3;" 
d="M135 -143v502l-20 -59l-102 34l178 530l126 -42v9h562v-141h-130v-54h113v-278h-99l79 -42l-40 -75h78v-115h-139l171 -132l-88 -113l-163 126v-151h-138v152l-164 -138l-86 102v-115h-138zM619 462v66h-54v-66h54zM428 528v-66h53v66h-53zM497 268l-55 -26h81v116h-69z
M661 242h73l-51 27l47 89h-69v-116zM757 528h-54v-66h54v66zM619 691h-54v-55h54v55zM317 690v94l-45 -133v-667l169 142h-135v116h77l-39 81l71 35h-98v278h119v54h-119z" />
    <glyph glyph-name="uni50F5" unicode="&#x50f5;" 
d="M320 839h565v-131h-565v131zM293 433h601v-131h-601v131zM309 3h602v-128h-602v128zM330 682h535v-223h-536v168zM470 514h69v29h-69v-29zM725 543h-68v-29h68v29zM725 627h-68v-30h68v30zM470 627v-30h69v30h-69zM330 276h535v-242h-536v180zM470 94h69v34h-69v-34z
M725 128h-68v-34h68v34zM725 214h-68v-32h68v32zM470 214v-32h69v32h-69zM109 301l-94 26l148 532l140 -39l-44 -157h1v-802h-131v511z" />
    <glyph glyph-name="uni50FB" unicode="&#x50fb;" 
d="M687 304h-74v142h43l-21 169h-19v134h76v90h133v-90h75v-134h-18l-19 -170h55v-141h-93v-88h73v-142h-73v-220h-138v220h-68v142h68v88zM754 445h19l19 170h-60zM108 294l-100 31l169 540l133 -42l-57 -180v-518l94 682h143v1h99v-396h-173l-9 -64h189v-456h-249v256
l-21 -155l-73 10v-146h-122v513zM507 205h-51v-162h51v162zM491 667h-40l-16 -115h56v115z" />
    <glyph glyph-name="uni5106" unicode="&#x5106;" 
d="M792 227l131 -330l-104 -41l-78 199l-61 -202l-72 21v-21h-181v107h-145v395l-35 17v-519h-128v531l-32 -101l-85 27l174 552l117 -37l-53 -171h7v-213l83 167h-2v39h-44v145h44v61h104v-61h46v61h104v-61h47v-145h-47v-64h-104v64h-46v-39h-89l86 -43l-5 -10h184v-4
l81 316l119 -31l-26 -99h109v-180zM786 557h-61l-25 -97l32 -81zM402 105v109h-42v-109h42zM478 27h27v379h-146l-25 -50h144v-329zM681 207l-47 120l-2 -6l-24 6v-365z" />
    <glyph glyph-name="uni5107" unicode="&#x5107;" 
d="M332 827h544v-259h-544v259zM625 656v67h-46v-67h46zM766 723h-42v-67h42v67zM440 723v-67h43v67h-43zM307 538h594v-90h-594v90zM128 289l-112 37l183 549l133 -45l-59 -177v-572l198 115h-129v219h511v-219h-3l53 -68l-98 -76l105 -101l-85 -89l-276 264l-13 -7v-106
l101 24l31 -132l-256 -61l-25 106l31 7v61l-101 -58l-44 77v-173h-128v475zM795 196h-125l-9 -6l57 -54zM480 287h236v47h-236v-47z" />
    <glyph glyph-name="uni510B" unicode="&#x510b;" 
d="M451 300h412v-63h-412v63zM451 205h412v-64h-412v64zM448 109h420v-245h-420v245zM583 17v-60h150v60h-150zM26 326l142 526l136 -37l-46 -168v-6l203 232l68 -60h309v-88l-49 -56h111v-110h-131l98 -68l-54 -76h75v-85h-464l-53 -483l-113 13v-6h-123v502l-15 -55z
M433 415h64l-49 84l104 60h-103zM670 512l32 47h-102l37 -65l-138 -79h96v48h128v-48h88zM686 725h-147l-49 -56h147zM258 633v-677l68 617z" />
    <glyph glyph-name="uni5112" unicode="&#x5112;" 
d="M527 693v36h-191v109h532v-109h-205v-36h233v-275h-113v170h-127v-190h-121v190h-129v-170h-107v275h228zM297 374h605v-112h-236l-13 -36h220v-362h-147v131h33v101h-49v-223h-93v223h-43v-223h-91v223h-50v-239h-112v369h177l12 36h-213v112zM423 564h95v-70h-95v70z
M423 469h95v-70h-95v70zM675 564h92v-70h-92v70zM675 469h92v-70h-92v70zM117 305l-94 28l156 530l132 -39l-50 -170v-793h-125v507z" />
    <glyph glyph-name="uni5121" unicode="&#x5121;" 
d="M333 835h524v-432h-524v432zM120 296l-100 33l174 534l138 -45l-63 -193v-769h-125v514zM609 370h296v-495h-296v495zM293 370h292v-495h-292v495zM461 716v-44h76v44h-76zM728 716h-76v-44h76v44zM728 524v43h-76v-43h76zM461 524h76v43h-76v-43zM692 250v-71h32v71h-32
zM514 250h-32v-70h32v70zM514 8v68h-32v-68h32zM693 8h31v68h-31v-68zM820 250h-29v-71h29v71zM378 250v-70h29v70h-29zM820 8v68h-29v-68h29zM378 8h29v68h-29v-68z" />
    <glyph glyph-name="uni513F" unicode="&#x513f;" 
d="M475 -117v970h155v-792h78l30 153l142 -28l-60 -303h-345zM45 -114l194 977l151 -30l-194 -977z" />
    <glyph glyph-name="uni5140" unicode="&#x5140;" 
d="M50 840h777v-180h-201v-581h83l25 125l141 -28l-54 -273h-350v757h-101l-154 -781l-151 30l148 751h-163v180z" />
    <glyph glyph-name="uni5141" unicode="&#x5141;" 
d="M871 160l-56 -285h-348v478l-83 -3l-169 -499l-153 52l149 439l-149 -6l-8 171l37 2l281 360l124 -97l-197 -254l257 11l-98 105l115 108l287 -308l-115 -107l-35 37l-88 -4v-307h80l27 135z" />
    <glyph glyph-name="uni5143" unicode="&#x5143;" 
d="M93 842h698v-172h-698v172zM50 555h786v-177h-210v-299h80l27 135l143 -28l-57 -285h-348v477h-82l-169 -501l-153 52l152 449h-169v177z" />
    <glyph glyph-name="uni5144" unicode="&#x5144;" 
d="M863 164l-53 -268h-348v426h-60l-192 -449l-148 63l164 386h-131v524h671v-524h-149v-249h80l23 119zM239 488h383v190h-383v-190z" />
    <glyph glyph-name="uni5145" unicode="&#x5145;" 
d="M361 861h162v-87h306v-175h-143l164 -246l-136 -91l-42 63l-57 -3v-261h90l24 117l141 -28l-53 -267h-357v430l-67 -4l-153 -451l-153 52l132 388l-128 -7l-10 166l39 2l97 140h-162v175h306v87zM517 559l60 40h-167l-90 -128l246 15z" />
    <glyph glyph-name="uni5146" unicode="&#x5146;" 
d="M640 50h86l20 101l143 -28l-47 -240h-358v973h156v-245l112 152l123 -90l-154 -209l-81 60v-135l69 72l188 -179l-114 -120l-143 136v-248zM251 439l15 77l-86 -48l-130 233l132 73l100 -181l52 265l143 -28l-192 -969l-143 28l64 321l-92 -51l-86 155z" />
    <glyph glyph-name="uni5148" unicode="&#x5148;" 
d="M881 135l-50 -251h-367v386h-46l-202 -412l-145 71l167 341h-194v169h354v114h-154l-29 -91l-136 43l109 348l136 -43l-26 -83h100v134h151v-134h261v-174h-261v-114h301v-169h-231v-213h97l21 107z" />
    <glyph glyph-name="uni5149" unicode="&#x5149;" 
d="M171 505l-124 99l174 217l124 -99zM702 514l-142 239l133 79l142 -239zM879 140l-51 -260h-362v447h-47l-227 -469l-146 73l195 396h-193v176h322v358h151v-358h322v-176h-227v-267h97l22 108z" />
    <glyph glyph-name="uni514B" unicode="&#x514b;" 
d="M474 -119v309h-55l-193 -334l-140 81l146 253h-118v385h261v60h-321v163h321v66h148v-66h321v-164h-321v-59h262v-385h-164v-156h95l18 91l137 -28l-43 -216h-354zM258 349h383v65h-383v-65z" />
    <glyph glyph-name="uni514D" unicode="&#x514d;" 
d="M117 429l-95 82l313 361l62 -54h357v-153l-61 -70h165v-405h-337l-28 -41h117v-117h130l19 85l144 -32l-45 -214h-384v250l-187 -274l-145 99l166 244h-168v264zM418 351l58 85h-197v-85h139zM718 436h-95l-59 -85h154v85zM585 665h-214l-60 -70h214z" />
    <glyph glyph-name="uni5151" unicode="&#x5151;" 
d="M738 104l136 -28l-43 -218h-356v358h-59l-202 -379l-142 76l162 303h-123v289l-94 105l94 83v4h5l208 184l95 -108l-86 -76h248l-83 80l102 106l309 -300l-102 -105l-24 24v-286h-162v-203h98zM638 532h-383v-150h383v150z" />
    <glyph glyph-name="uni5154" unicode="&#x5154;" 
d="M20 555l306 321l62 -59h362v-147l-79 -90h182v-368h-138l73 -86l-2 -2l119 -25l-49 -229h-412v227l-188 -253l-148 110l191 258h-164v264l-15 -16zM407 358l56 76h-189v-76h133zM759 101l-73 -61l-107 126v-136h164zM528 212l-28 -39h72l46 39h-90zM716 434h-103l-56 -76
h159v76zM581 670h-226l-86 -90h234z" />
    <glyph glyph-name="uni5155" unicode="&#x5155;" 
d="M467 -103v364h-60l-200 -389l-152 78l160 311h-139v587h339v-218h65v218h342v-587h-208v-186h97l20 101l140 -27l-50 -252h-354zM221 692v-272h457v272h-63v-198h-331v198h-63z" />
    <glyph glyph-name="uni5156" unicode="&#x5156;" 
d="M45 518l201 129h-170v150h310v71h159v-71h309v-150h-180l207 -161l-92 -118l-270 211l53 68h-211l45 -71l-283 -181zM72 -60l179 244l-124 -6l-7 136l-2 30l70 3l249 234l90 -96l-169 -158l193 10l-54 54l93 93l228 -228l-93 -93l-45 44l-61 -3v-168h107l20 102l134 -26
l-47 -233h-358v317l-29 -1l-252 -344z" />
    <glyph glyph-name="uni515A" unicode="&#x515a;" 
d="M743 111l137 -28l-44 -225h-354v270h-55l-235 -297l-127 100l154 195h-61v286h-85v148l-91 91l241 238l100 -100l-78 -78h140v135h146v-135h159l-62 67l108 98l208 -235l-104 -91v-138h-89v-286h-125v-113h100zM694 562h-477v-68h477v68zM302 350v-83h305v83h-305z" />
    <glyph glyph-name="uni515C" unicode="&#x515c;" 
d="M700 409v225h-40v172h175v-567h-175v170h40zM543 853l-6 -47h93v-566h-336v51l-169 -105l-82 133l45 27v426l139 66l67 -144v112h93l8 65zM221 643v-206l7 4l66 -106v343zM504 457h-86v-59h86v59zM504 653h-86v-62h86v62zM883 117l-48 -242h-354v330h144v-156h102l19 95z
M64 -50l227 286l127 -100l-227 -287z" />
    <glyph glyph-name="uni5162" unicode="&#x5162;" 
d="M826 118l70 -12l-40 -232h-203v329h-19l-94 -345l-123 33l22 78l-141 -107l-81 108l51 39v195h-23l-94 -343l-122 33l85 310h-41v370h105v56h-120v166h120v65h137v-65h113v-166h-113v-55h110v-371h-42v-107l32 24l48 -63l40 145h-33v371h112v56h-119v166h119v64h142v-64
h134v-166h-134v-56h111v-371h-65v-163h42zM199 339h95v99h-95v-99zM603 338h97v99h-97v-99z" />
    <glyph glyph-name="uni5165" unicode="&#x5165;" 
d="M170 -114l-136 92l356 529l-151 271l144 80l508 -918l-143 -79l-269 485z" />
    <glyph glyph-name="uni5168" unicode="&#x5168;" 
d="M142 397l-107 124l377 325h93l386 -336l-108 -124l-32 28v-50h-215v-73h233v-168h-233v-76h319v-174h-786v174h317v76h-232v168h232v73h-214v59zM620 528l-162 141l-164 -141h326z" />
    <glyph glyph-name="uni516B" unicode="&#x516b;" 
d="M37 -79l260 917l155 -43l-261 -918zM470 809l157 43l261 -940l-157 -44z" />
    <glyph glyph-name="uni516C" unicode="&#x516c;" 
d="M11 403l287 448l135 -87l-287 -448zM340 80l244 20l-88 169l138 73l212 -406l-138 -72l-39 74l-565 -46l-14 169l72 5l231 459l137 -69zM478 762l135 93l301 -439l-135 -93z" />
    <glyph glyph-name="uni516D" unicode="&#x516d;" 
d="M546 842v-171h321v-190h-807v190h321v171h165zM54 -45l229 463l155 -77l-229 -463zM495 354l157 74l220 -471l-156 -74z" />
    <glyph glyph-name="uni516E" unicode="&#x516e;" 
d="M603 865l314 -391l-128 -103l-23 30h-400l-11 -96h394v-451h-371v171h198v124h-407l29 252h-52l-18 -23l-119 95l308 385l119 -95l-156 -194h351l-156 194z" />
    <glyph glyph-name="uni5170" unicode="&#x5170;" 
d="M834 469h-744v173h165l-69 128l141 77l91 -169l-65 -36h143l117 213l134 -73l-77 -140h164v-173zM150 337h625v-161h-625v161zM49 36h828v-172h-828v172z" />
    <glyph glyph-name="uni5171" unicode="&#x5171;" 
d="M226 358v180h-139v162h139v158h154v-158h166v158h154v-158h140v-162h-140v-180h181v-167h-247l236 -205l-108 -125l-259 225l91 105h-260l95 -120l-261 -208l-103 129l249 198h-269v168h181zM380 358h166v180h-166v-180z" />
    <glyph glyph-name="uni5173" unicode="&#x5173;" 
d="M332 408l55 100h-298v174h147l-60 123l144 70l76 -156l-76 -37h162l104 188l142 -78l-61 -110h147v-174h-243l-54 -100h323v-173h-305l329 -264l-101 -126l-386 309l-168 -305l-142 78l170 308h-175v173h270z" />
    <glyph glyph-name="uni5174" unicode="&#x5174;" 
d="M55 439h812v-183h-812v183zM52 -17l251 251l119 -120l-250 -251zM501 121l121 121l252 -252l-121 -121zM67 739l143 75l140 -268l-143 -75zM341 820l149 36l72 -305l-150 -35zM571 545l150 281l140 -75l-150 -281z" />
    <glyph glyph-name="uni5175" unicode="&#x5175;" 
d="M309 668v-81h530v-164h-137v-119h166v-165h-228l231 -121l-77 -146l-265 139l68 128h-258l70 -138l-269 -136l-77 153l241 121h-249v165h108v521l632 30l7 -163zM309 423v-119h243v119h-243z" />
    <glyph glyph-name="uni5176" unicode="&#x5176;" 
d="M878 90h-233l205 -96l-65 -138l-281 132l48 102h-176l47 -117l-285 -116l-57 140l228 93h-262v160h123v398h-93v154h93v62h147v-62h291v62h148v-62h92v-154h-92v-398h122v-160zM317 423h291v51h-291v-51zM317 648v-46h291v46h-291zM317 250h291v49h-291v-49z" />
    <glyph glyph-name="uni5177" unicode="&#x5177;" 
d="M878 103h-209l186 -87l-68 -146l-284 134l47 99h-173l48 -117l-288 -118l-60 146l219 89h-249v165h88v583h654v-583h89v-165zM283 664h352v43h-352v-43zM283 535h352v39h-352v-39zM283 402h352v43h-352v-43zM283 268h352v41h-352v-41z" />
    <glyph glyph-name="uni5178" unicode="&#x5178;" 
d="M48 284h64v498h192v80h124v-80h67v80h124v-80h194v-498h64v-161h-230l221 -105l-71 -151l-308 145l52 111h-175l62 -121l-288 -145l-75 150l231 116h-248v161zM495 284v90h-67v-90h67zM680 374h-61v-90h61v90zM619 624v-101h61v101h-61zM428 624v-101h67v101h-67z
M240 523h64v101h-64v-101zM240 284h64v90h-64v-90z" />
    <glyph glyph-name="uni5179" unicode="&#x5179;" 
d="M46 762h181l-21 52l143 58l45 -110h133l48 110l144 -64l-20 -46h180v-160h-196l-95 -182l61 5l75 131l121 -71l-152 -264l92 23l89 -357l-124 -30l-17 69l-245 -22l7 -31l-119 -26l-16 76l-286 -25l-13 143l24 2l125 229l-136 -12l-13 144l26 2l94 196h-135v160zM329 65
l-23 112l-66 -120zM669 181l-70 -123l99 9zM561 273l-142 -13l-10 107l-76 -140l82 18l35 -164zM530 602h-206l-87 -182l56 4l66 122l110 -60z" />
    <glyph glyph-name="uni517B" unicode="&#x517b;" 
d="M522 178h50l-115 100h-103l-50 -71l133 -53l-127 -319l-152 61l92 231l-88 -127l-119 83l134 195h-120v145h220l34 49h-202v113h279l34 49h-343v142h154l-20 49l143 59l44 -108h114l48 108l143 -64l-19 -44h150v-142h-237l-34 -49h243v-113h-321l-33 -49h405v-145h-181
l204 -178l-96 -109l-111 97v-226h-153v316z" />
    <glyph glyph-name="uni517C" unicode="&#x517c;" 
d="M893 -21l-88 -111l-172 136v-160h-141v300h-61v-300h-142v163l-163 -146l-93 103l201 180h-126v111h181v45h-230v128h230v46h-168v120h168v42h-225v142h161l-13 22l131 76l57 -98h121l48 94l143 -73l-10 -21h158v-141h-227v-43h187v-151h52v-154h-52v-145h-136zM695 256
v55h-62v-55h62zM633 475v-58h62v58h-62zM431 594h61v53h-61v-53zM431 475v-58h61v58h-61zM492 256v55h-61v-55h61z" />
    <glyph glyph-name="uni517D" unicode="&#x517d;" 
d="M131 -148v313h665v-313h-665zM649 -21v59h-373v-59h373zM712 797l-12 -23h128v-429h-730v429h134l-10 16l123 76l58 -92h125l48 93zM245 613h147v49h-147v-49zM392 455v48h-147v-48h147zM681 503h-146v-48h146v48zM681 662h-146v-49h146v49zM47 309h832v-109h-832v109z
" />
    <glyph glyph-name="uni5180" unicode="&#x5180;" 
d="M49 129h191v29h-151v88h151v26h-123v270h694v-270h-124v-26h151v-87h-151v-30h190v-102h-210l178 -47l-32 -121l-313 83l23 85h-118l24 -91l-306 -81l-31 121l191 51h-234v102zM662 377h-128v-29h128v29zM534 473v-27h128v27h-128zM264 473v-27h129v27h-129zM264 348h129
v29h-129v-29zM381 246h164v26h-164v-26zM381 129h164v30h-164v-30zM620 864v-65l211 39l17 -92l-84 -15l108 -34l-43 -138h-359v305h150zM620 704v-31h107l17 54zM59 689l232 9v22h-214v95h214v49h149v-303h-149v35l-227 -10z" />
    <glyph glyph-name="uni5181" unicode="&#x5181;" 
d="M167 -21h-124v155h124v42h-100v545h52l-44 95l100 47l48 -104l-80 -38h69l64 146l101 -44l-44 -102h53v-544h-100v-42h111l44 688h418v-296h-49v-53h46v-117h-46v-54h64v-128h-132l26 -51l44 45l70 -70l-68 -67l65 -131l-92 -45l-159 319h-4v-152l45 16l44 -123l-179 -63
l-43 123l41 14v185h-36l-20 -309l-96 6l7 107h-101v-124h-119v124zM515 474h51v54h-47zM504 303h62v54h-58zM713 357h-51v-54h51v54zM713 474v54h-51v-54h51zM749 692h-220l-3 -53h223v53zM295 384h-36v-57h36v57zM295 571h-36v-58h36v58zM153 513h37v58h-37v-58zM153 327
h37v58h-37v-58z" />
    <glyph glyph-name="uni5182" unicode="&#x5182;" 
d="M687 45v623h-453v-790h-146v964h749v-964h-267v167h117z" />
    <glyph glyph-name="uni5185" unicode="&#x5185;" 
d="M603 822l-31 -94h277v-874h-253v162h110v135l-76 -58l-186 240l-87 -266l-136 44l144 443h-146v-700h-142v874h344l45 138zM516 554l-15 -45l205 -263v308h-190z" />
    <glyph glyph-name="uni5188" unicode="&#x5188;" 
d="M593 36h104v97l-110 -80l-125 171l-144 -187l-89 68v-231h-142v971h752v-971h-246v162zM697 671h-468v-84l104 75l134 -184l133 173l97 -74v94zM369 351l-140 192v-374zM697 163v367l-137 -179z" />
    <glyph glyph-name="uni5189" unicode="&#x5189;" 
d="M46 260h62v503h281v96h145v-96h281v-503h64v-167h-64v-231h-230v146h84v85h-416v-233h-145v233h-62v167zM669 260v98h-135v-98h135zM534 600v-99h135v99h-135zM253 600v-99h136v99h-136zM253 260h136v98h-136v-98z" />
    <glyph glyph-name="uni518C" unicode="&#x518c;" 
d="M443 470h54l32 376h287v-376h62v-166h-62v-425h-190v165h59v260h-69l-37 -431l-132 11l36 420h-40v-425h-190v165h59v260h-69l-37 -431l-132 11l36 420h-62v166h76l32 376h287v-376zM630 470h55v215h-37zM312 685h-37l-18 -215h55v215z" />
    <glyph glyph-name="uni518D" unicode="&#x518d;" 
d="M660 12v62h-396v-203h-143v203h-76v157h76v400h269v59h-314v158h778v-158h-320v-59h270v-400h76v-157h-76v-203h-229v141h85zM534 482v-61h126v61h-126zM264 421h126v61h-126v-61zM264 231h126v61h-126v-61zM660 231v61h-126v-61h126z" />
    <glyph glyph-name="uni5192" unicode="&#x5192;" 
d="M263 672h402v-89h-402v89zM262 549h402v-82h-402v82zM130 435h668v-558h-668v558zM647 176h-374v-36h374v36zM647 -4v36h-374v-36h374zM273 320v-36h374v36h-374zM839 464h-152v233h-447v-235h-153v380h752v-378z" />
    <glyph glyph-name="uni5195" unicode="&#x5195;" 
d="M241 727h410v-74h-410v74zM676 540v211h-463v-211h-143v315h752v-315h-146zM47 380l228 173h-34v74h410v-74h-339l31 -42h381v-94l-62 -47h155v-249h-308l-31 -23h94v-73h139l23 72l144 -45l-51 -163h-393v177l-275 -202l-93 126l178 131h-144v189zM383 223l64 47h-209
v-47h145zM680 270h-72l-64 -47h136v47zM550 417h-212l-61 -47h212z" />
    <glyph glyph-name="uni5196" unicode="&#x5196;" 
d="M700 456v177h-477v-177h-158v355h796v-355h-161z" />
    <glyph glyph-name="uni5197" unicode="&#x5197;" 
d="M868 190l-52 -292h-316v491h-144l-149 -512l-145 42l187 647h402v-492h54l25 141zM656 497v172h-438v-172h-160v345h758v-345h-160z" />
    <glyph glyph-name="uni5199" unicode="&#x5199;" 
d="M774 445h-442l-5 -62h497v-494h-264v135h-497v150h556v-137h50v192h-505l22 307h-97v294h774v-280h-89v-105zM238 669v-37l107 -8l-3 -33h373v78h-477z" />
    <glyph glyph-name="uni519B" unicode="&#x519b;" 
d="M557 -131h-149v93h-358v162h358v74h-278v139l69 110h-86v126h-39v277h779v-277h-42v-126h-438l-68 -110h103v84h149v-68h245v-154h-245v-75h319v-161h-319v-94zM704 601v90h-350l123 -77l-8 -13h235zM295 601l55 90h-131v-90h76z" />
    <glyph glyph-name="uni519C" unicode="&#x519c;" 
d="M32 139l291 478h-100v-142h-137v301h334l60 98l136 -83l-9 -15h240v-277h-108l96 -109l-137 -120l196 -267l-131 -97l-375 511l-2 -3v-343l131 50l57 -150l-330 -125l-57 149l53 20v160l-72 -119zM510 617l-30 -50l123 -167l114 99h-12v118h-195z" />
    <glyph glyph-name="uni51A0" unicode="&#x51a0;" 
d="M885 94l-78 -210h-529v380h-17l-85 -394l-136 30l79 364h-73v158h391v-67l104 43l65 -158l-119 -49l-50 121v-48h-23v-221h279l15 41h-143v125h70v197h-185v158h185v70h54v49h-485v-60h210v-143h-314v106h-41v263h774v-224h-63v-61h73v-158h-73v-269z" />
    <glyph glyph-name="uni51A2" unicode="&#x51a2;" 
d="M596 257l-26 -14l82 -295l-301 -84l-43 154l164 46l-15 52l-358 -197l-61 110l228 125l-18 39l-137 -75l-52 94l142 78l-16 35l-50 -27l-52 95l225 124h-152v69h-74v269h769v-269h-74v-69h-6l69 -125l-119 -66l166 -320l-128 -66zM225 708v-59h479v59h-479zM309 349
l72 40l-10 38l-79 -43zM422 240l-11 43l-56 -31l18 -39zM531 385l239 132h-237l-34 -19z" />
    <glyph glyph-name="uni51A4" unicode="&#x51a4;" 
d="M747 126l130 -46l-66 -189h-411v199l-235 -222l-104 110l199 189h-168v231l-44 46l141 133h-132v275h769v-275h-102v-61l-58 -55h142v-285h-144l62 -66l-74 -70h64zM671 348h-78l-62 -59h140v59zM546 516h-201l-58 -55h201zM678 631v71h-351l67 -71h284zM194 581l127 121
h-127v-121zM231 290h159l62 58h-221v-58zM538 123v-83h96l-88 93l46 43h-101l-56 -53h103z" />
    <glyph glyph-name="uni51A5" unicode="&#x51a5;" 
d="M376 246v42h-229v306h-63v255h759v-255h-63v-306h-230v-42h323v-134h-254l231 -109l-63 -133l-281 133l51 109h-184l50 -117l-290 -123l-58 137l242 103h-264v134h323zM220 689v-41h489v41h-489zM283 514h358v43h-358v-43zM283 388h358v44h-358v-44z" />
    <glyph glyph-name="uni51AB" unicode="&#x51ab;" 
d="M59 723l130 102l191 -245l-130 -102zM40 -17l229 398l154 -89l-229 -397z" />
    <glyph glyph-name="uni51AC" unicode="&#x51ac;" 
d="M276 484l-85 44l-32 -31l-103 109l278 265l83 -87h394v-167l-207 -141l281 -148l-68 -130l-369 195l-135 -92l398 -62l-23 -148l-450 70l15 99l-116 -79l-97 142zM604 632h-297l168 -88zM133 -55l28 177l620 -96l-28 -178z" />
    <glyph glyph-name="uni51AF" unicode="&#x51af;" 
d="M67 780l139 50l116 -320l-139 -50zM51 -31l121 420l149 -43l-121 -420zM307 249h371v-168h-371v168zM821 844l-31 -363h85v-605h-294v156h145v288h-375l28 321l138 -12l-13 -148h141l17 198h-327v165h486z" />
    <glyph glyph-name="uni51B0" unicode="&#x51b0;" 
d="M46 789l135 27l64 -314l-135 -28zM716 409l190 -389l-137 -67l-146 297v-389h-237v178h96v819h141v-260l15 -30l133 142l121 -113zM19 -43l87 424l146 -30l-87 -424zM342 -56l-133 28l108 522h-61v175h200v-175z" />
    <glyph glyph-name="uni51B1" unicode="&#x51b1;" 
d="M887 -106h-617v170h384l4 81h-341l57 508h-78v168h572v-168h-349l-10 -82h283v-1h29l-22 -506h88v-170zM39 -43l103 427l150 -36l-103 -427zM61 787l142 38l86 -328l-141 -37zM665 309l4 99h-178l-11 -99h185z" />
    <glyph glyph-name="uni51B2" unicode="&#x51b2;" 
d="M72 776l141 37l83 -312l-141 -37zM55 -55l103 427l148 -35v365h211v160h143v-160h211v-586h-211v-258h-143v258h-211v213l-101 -420zM660 522v-226h77v226h-77zM439 522v-226h78v226h-78z" />
    <glyph glyph-name="uni51B3" unicode="&#x51b3;" 
d="M58 780l141 37l84 -318l-141 -38zM40 -48l101 421l150 -36l-101 -421zM885 248h-267l257 -284l-124 -113l-247 272l-90 -274l-159 52l113 347h-76v168h131l47 145h-164v164h218l47 145l129 -43l-34 -102h166v-309h53v-168zM695 416v145h-48l-47 -145h95z" />
    <glyph glyph-name="uni51B5" unicode="&#x51b5;" 
d="M47 808l141 37l84 -318l-141 -38zM38 -45l88 426l148 -30l-88 -427zM239 -77l140 404h-92v510h538v-511h-117v-264h66l14 111l99 -13l-36 -273h-281v439h-31l-157 -452zM435 488h241v185h-241v-185z" />
    <glyph glyph-name="uni51B6" unicode="&#x51b6;" 
d="M37 -99l100 441l153 -35l-101 -441zM309 -143v478h509v-478h-509zM456 19h211v157h-211v-157zM888 422l-135 -65l-31 63l-438 -36l-9 107l-119 -39l-103 310l147 48l88 -265l12 1l164 316l137 -71l-120 -230l167 14l-57 118l135 65z" />
    <glyph glyph-name="uni51B7" unicode="&#x51b7;" 
d="M32 -48l100 441l153 -35l-100 -441zM298 397h232l-86 104l110 91l119 -144l-61 -51h195v-176l-144 -157l117 -64l-81 -147l-399 219l80 147l149 -81l98 107h-329v152zM894 561l-117 -107l-219 239l-219 -239l-73 66l-124 -41l-101 303l139 46l76 -229l244 267h115z" />
    <glyph glyph-name="uni51BB" unicode="&#x51bb;" 
d="M38 773l136 38l88 -312l-136 -38zM27 -68l98 429l140 -32l-98 -429zM352 587h-82v163h144l46 119l132 -51l-26 -68h277v-163h-339l-64 -171h75v124h136v-124h173v-157h-173v-80l104 56l144 -269l-116 -62l-132 245v-298h-234v168h98v240h-227v157zM212 -41l133 275
l128 -61l-133 -276z" />
    <glyph glyph-name="uni51BC" unicode="&#x51bc;" 
d="M564 276h-25l-144 -424l-137 47l128 377h-100l-103 -375l-146 40l120 434l107 -29v95h249v113h-93l-15 -86l-128 22l6 33l-123 -42l-104 299l137 48l95 -273l49 284l128 -22l-17 -98h65v148h150v-148h183v-165h-183v-113h207v-165h-163v-235h54l12 101l116 -14l-31 -255
h-294v403z" />
    <glyph glyph-name="uni51BD" unicode="&#x51bd;" 
d="M77 792l136 26l61 -321l-136 -25zM203 -65l-144 24l73 431l119 -20l87 290h-61v177h288v-177h-101l-22 -72h126v-156l-171 -569l-115 35l82 274l-50 60l-6 -20l-56 17zM396 432l-18 -58l34 -41l30 99h-46zM587 781h123v-662h-123v662zM628 49h99v808h139v-985h-238v177z
" />
    <glyph glyph-name="uni51C0" unicode="&#x51c0;" 
d="M52 780l142 37l82 -311l-141 -38zM387 4h84v49h-180v141h180v65h-199l-74 -356l-151 32l89 428l126 -26v63h209v62h-161v116l-56 36l162 252l93 -60h267v-146l-37 -57h95v-203h45v-140h-45v-208h-223v-199h-224v151zM610 660h-153l-37 -58h153zM610 462v-66h90v66h-90z
M610 194h90v72h-90v-72z" />
    <glyph glyph-name="uni51C4" unicode="&#x51c4;" 
d="M31 -70l82 470l134 -23l-82 -471zM813 136l-127 -77l175 -68l-46 -118l-291 113l-216 -132l-73 122l120 73l-68 24l33 63h-83v123h147l15 29h-120v105h188v35h-235v70l-110 -22l-68 341l129 26l62 -309h222v33h-188v102h188v31h-208v120h208v46h141v-46h250v-120h-250
v-31h221v-119h45v-139h-45v-123h-275l-15 -29h355v-123h-81zM608 567v-35h93v35h-93zM608 393h92v37h-92v-37zM484 154l-17 -32l72 -29l100 61h-155z" />
    <glyph glyph-name="uni51C6" unicode="&#x51c6;" 
d="M207 332l53 152l-110 -29l-85 314l150 41l69 -258l106 305l142 -49l-36 -102h62l45 129l141 -50l-27 -79h142v-160h-145v-79h126v-143h-126v-79h126v-143h-126v-77h163v-163h-558v455h-3l-11 -31l-14 5l-92 -406l-150 35l96 426zM574 101h-109v-76h109v76zM574 324h-109
v-79h109v79zM574 546h-109v-79h109v79z" />
    <glyph glyph-name="uni51C7" unicode="&#x51c7;" 
d="M172 -92l-145 26l78 430l131 -24l60 185v21h-59l12 -64l-144 -28l-63 328l145 28l46 -240v141h63v148h132v-148h63v-114l66 234l78 -22l-3 9l133 39l134 -465l-134 -38l-107 373l-94 -334l-120 34l33 120h-49v-150l33 21l82 -132l54 220l132 -32l-46 -187l103 27
l106 -406l-121 -32l-15 57l-282 -40l-24 166l40 6l41 170l-75 -47l-28 44v-372h-132v345l-34 -104l-51 16zM674 247l-39 -161l78 11z" />
    <glyph glyph-name="uni51C9" unicode="&#x51c9;" 
d="M48 777l137 41l93 -313l-136 -41zM38 -56l99 426l149 -35l-100 -425zM856 635h-571v158h211v67h163v-67h197v-158zM226 -59l118 261l128 -58l-117 -261zM772 201l115 -261l-130 -57l-108 248v-272h-219v169h69v180h-185v373h506v-373h-171v-60zM466 359h201v72h-201v-72z
" />
    <glyph glyph-name="uni51CB" unicode="&#x51cb;" 
d="M396 -128l-140 10l70 966h539v-976h-220v95h-183v317h225v-239h34v653h-76v-66h53v-121h-53v-53h61v-136h-249v136h56v53h-51v121h51v66h-57zM604 101v70h-57v-70h57zM73 795l147 28l61 -321l-147 -28zM60 -37l66 432l150 -23l-66 -432z" />
    <glyph glyph-name="uni51CC" unicode="&#x51cc;" 
d="M54 784l132 30l72 -312l-131 -31zM38 -59l76 434l138 -24l-76 -434zM817 217v-16l-153 -116l201 -119l-65 -110l-259 153l-197 -150l-83 109l153 116l-49 29l-47 -46l-88 91l206 200l-141 -70l-55 110l174 87h-149v135h221v52h-189v131h189v60h145v-60h207v-131h-207v-52
h238v-135h-151l170 -95l-58 -105l-14 8v-76h1zM537 408l-39 -19l58 -60h195l-167 94l35 62h-120zM567 143l97 74h-193l-11 -11z" />
    <glyph glyph-name="uni51CF" unicode="&#x51cf;" 
d="M56 795l133 22l54 -325l-133 -22zM34 -87l73 483l139 -21l-73 -483zM582 50l50 112l-30 225h-207l-63 -524l-125 15l104 867h244l-14 109l125 17l17 -126h58l-22 83l88 24l29 -106h20v-164h-152l26 -198l59 134l97 -43l-129 -294l21 -162l47 129l67 -24l-94 -260l-3 1
l-122 -16l-14 110l-33 -74l-81 36h-141v412h178v-283zM583 529l-7 53h-158l-6 -53h171zM517 72v118h-47v-118h47z" />
    <glyph glyph-name="uni51D1" unicode="&#x51d1;" 
d="M44 782l129 25l61 -323l-129 -24zM850 361h-105l155 -161l-89 -86l-27 28v-77h-158l210 -95l-52 -114l-310 141l-120 -147l-108 88l105 127h-50v72l-94 45l-45 -265l-137 23l73 432l137 -23l-28 -164l85 176h-55v131h118l16 34h-94v111h147l17 35h-186v121h245l36 76
l129 -61l-7 -15h171v-121h-229l-17 -35h228v-111h-282l-16 -34h337v-131zM469 175l38 46h-124l-22 -46h108zM754 175l-45 46h-75l-38 -46h158zM574 361h-124l-20 -43h185z" />
    <glyph glyph-name="uni51DB" unicode="&#x51db;" 
d="M857 73h-140l170 -103l-63 -105l-202 123l51 85h-52v-216h-213v119l-159 -115l-72 100l-6 -41l-133 18l59 438l133 -18l-52 -384l137 99h-81v106h623v-106zM822 324h-567v340h567v-340zM451 862h174v-45h219v-128h-612v128h219v45zM690 402v193h-304v-193h304zM258 296
h561v-89h-561v89zM47 775l124 24l59 -313l-124 -23zM657 420h-238v152h238v-152zM473 -2v75h-88l54 -74l-2 -1h36zM573 511h-68v-27h68v27z" />
    <glyph glyph-name="uni51DD" unicode="&#x51dd;" 
d="M47 808l119 18l50 -329l-119 -18zM768 46l130 -45l-50 -144l-277 94l-12 -90l-87 12l8 54l-40 -31l-80 102l-40 -139l-131 38l68 237h-44v140h99l17 60h-35l-9 -30l-75 21l-56 -415l-126 17l64 479l120 -16l35 122h-20v351h121v-60l130 44l40 -119l-170 -58v-39h62l12 51
l99 -23l-34 -147h-126l-14 -48h145v-130h-44l-18 -60h71v-140h-88l81 -103l42 309l86 -12l-30 -222l56 -20v293h-133v153h87l-72 84l86 74l61 -71l59 73h-207v153h330v-187l-100 -126h107v-153l-11 -72l-71 12l9 60h-36v-113h94v-149h-83v-71z" />
    <glyph glyph-name="uni51E0" unicode="&#x51e0;" 
d="M760 232l112 -16l-44 -319h-293v761h-228l-106 -780l-147 20l128 943h503v-768h53z" />
    <glyph glyph-name="uni51E1" unicode="&#x51e1;" 
d="M831 -104h-298v340l-105 -66l-155 249l-73 -541l-147 20l127 943h504v-768h53l21 153l115 -16zM533 307v350h-227l-27 -193l113 70z" />
    <glyph glyph-name="uni51E4" unicode="&#x51e4;" 
d="M872 91l14 -201l-181 -12l-11 -1l-56 791h-403l-59 -786l-136 10l71 950h663v-2l53 -752zM207 -15l118 240l-103 121l116 99l76 -89l50 100h-216v166h362v-166l-103 -210l165 -194l-117 -98l-127 149l-89 -182z" />
    <glyph glyph-name="uni51EB" unicode="&#x51eb;" 
d="M813 88l56 -12l-44 -211h-393v260h-113l-108 -283l-154 58l140 369h384v-250h138l15 69h-110v135h64v104h-587v471h188l39 80l136 -67l-7 -13h312v-293h-222v104h72v54h-216l104 -116l-87 -78h417v-381h-24zM246 469h133l-105 117l87 77h-115v-194z" />
    <glyph glyph-name="uni51ED" unicode="&#x51ed;" 
d="M784 112l130 -27l-46 -219h-312v261h-181l-108 -284l-154 58l140 369h452v-250h60zM12 495l200 382l117 -61l-36 -69v-443h-140v177l-24 -48zM674 500v-53h180v-130h-508v130h185v53h-201v139h201v56l-180 -8l-6 133l500 21l5 -133l-176 -7v-62h211v-139h-211z" />
    <glyph glyph-name="uni51EF" unicode="&#x51ef;" 
d="M826 172l61 -6l-30 -299h-220v772h-40l-63 -779l-126 10l5 65l-344 -70l-31 153l34 7v265h216v57h-247v141h372v-336h-212v-101l183 37l29 -149l72 885h285v-784h43zM143 794v-103h45v169h107v-169h44v103h92v-256h-379v256h91z" />
    <glyph glyph-name="uni51F0" unicode="&#x51f0;" 
d="M373 27v43h-122v92h122v43h-130v105h387v-105h-130v-43h123v-92h-123v-43h170v-129h-458v129h161zM495 681l-5 -24h131v-310h-367v310h112l8 45zM500 431v36h-132v-36h132zM500 569h-132v-32h132v32zM904 -120l-182 -13l-11 -1l-58 841h-427l-68 -834l-136 11l78 970h690
l54 -772l45 3z" />
    <glyph glyph-name="uni51F3" unicode="&#x51f3;" 
d="M749 98l137 -29l-41 -198h-346v147h-168l-125 -181l-130 90l142 205h429v-125h83zM790 603l104 -115l-93 -84l-25 28v-112h-69l-20 -46h174v-114h-789v114h165l-20 46h-63v121l-33 -36l-89 84l105 112l-58 46l65 81h-72v115h386l43 39l86 -95l122 84l62 -90l-110 -76
l28 -32l121 83l65 -95zM266 524h389l-31 34h-326zM458 743v-15l-78 -83h166zM167 728l85 -69l65 69h-150zM515 274l20 46h-139l20 -46h99zM629 404v34h-328v-34h328z" />
    <glyph glyph-name="uni51F5" unicode="&#x51f5;" 
d="M846 -110h-767v939h152v-760h468v760h147v-939z" />
    <glyph glyph-name="uni51F6" unicode="&#x51f6;" 
d="M715 724h141v-848h-787v839h140v-520l164 283l-157 273l140 81l111 -192l117 203l145 -84l-165 -287l151 -262v514zM209 50h506v96l-112 -65l-133 229l-140 -243l-121 69v-86z" />
    <glyph glyph-name="uni51F8" unicode="&#x51f8;" 
d="M848 544v-655h-771v655h150v287h474v-287h147zM699 68v299h-146v287h-177v-287h-151v-299h474z" />
    <glyph glyph-name="uni51F9" unicode="&#x51f9;" 
d="M430 827v-424h66v424h354v-934h-774v934h354zM294 652h-71v-581h483v581h-72v-416h-340v416z" />
    <glyph glyph-name="uni51FA" unicode="&#x51fa;" 
d="M850 -132h-774v438h147v-260h163v329h-270v399h149v-218h121v296h156v-296h122v218h146v-399h-268v-329h162v260h146v-438z" />
    <glyph glyph-name="uni51FB" unicode="&#x51fb;" 
d="M540 486h340v-183h-340v-256h129v187h146v-368h-706v370h149v-189h127v256h-340v183h340v88h-282v181h282v98h155v-98h283v-181h-283v-88z" />
    <glyph glyph-name="uni51FC" unicode="&#x51fc;" 
d="M707 787h145v-919h-779v919h145v-603l64 364h-35v191h151v-191l-77 -435l-103 18v-90h489v101l-57 -23l-90 228v-293h-203v164h68v634h135v-170l82 77l66 -70zM708 325v280l-81 -76z" />
    <glyph glyph-name="uni51FD" unicode="&#x51fd;" 
d="M693 611h152v-729h-764v729h142v-86l81 61l93 -125v134l128 78h-412v164h690v-141l1 -1l-35 -21l-232 -143v-80l119 119l37 -37v78zM537 423v-113l39 39l117 -117v183l-74 -74zM397 417l-80 -60l80 -61v121zM223 251l86 112l-86 115v-227zM223 45h106v117h68v95
l-126 -164l-48 36v-84zM693 45v84l-44 -45l-112 112v-151h156z" />
    <glyph glyph-name="uni51FF" unicode="&#x51ff;" 
d="M750 641h131v-149h-353l100 -36l-22 -61h61v-124h-132v-48h120v-137h-120v-54h154v418h143v-577h-736v577h147v-418h151v54h-118v137h118v48h-132v124h57l-21 60l104 37h-358v149h130l-80 133l109 66l90 -147v154h142v-206h55v206h142v-153l82 142l112 -64zM632 641h84
l-84 49v-49zM213 641h80v49zM510 492h-95l35 -97h25z" />
    <glyph glyph-name="uni5200" unicode="&#x5200;" 
d="M840 842v-930h-324v181h162v562h-200l-212 -777l-156 43l200 734h-224v187h754z" />
    <glyph glyph-name="uni5201" unicode="&#x5201;" 
d="M858 828v-937h-340v182h179v567h-550v188h711zM68 270l526 248l84 -179l-526 -248z" />
    <glyph glyph-name="uni5202" unicode="&#x5202;" 
d="M264 777h148v-631h-148v631zM504 856h157v-992h-298v198h141v794z" />
    <glyph glyph-name="uni5203" unicode="&#x5203;" 
d="M860 842v-930h-324v181h162v566h-104l-288 -782l-152 56l267 726h-315v183h754zM66 277l116 316l145 -53l-116 -316z" />
    <glyph glyph-name="uni5206" unicode="&#x5206;" 
d="M618 868l294 -440l-130 -87l-36 54v-515h-288v168h131v300h-150l-187 -497l-146 54l166 443h-70v80l-57 -87l-131 85l290 443l131 -86l-176 -268h407l-178 266z" />
    <glyph glyph-name="uni5207" unicode="&#x5207;" 
d="M869 809v-930h-271v187h126v560h-68l-165 -771l-142 30l30 142l-189 -121l-94 146l53 34v322l-76 -7l-16 189l92 8v266h149v-254l93 8l16 -188l-109 -9v-240l48 31l55 -86l107 500h-108v183h469z" />
    <glyph glyph-name="uni5208" unicode="&#x5208;" 
d="M523 774h133v-665h-133v665zM368 387l155 -420l-137 -50l-97 263l-102 -272l-136 51l161 429l-137 373l136 50l80 -215l88 236l137 -51zM726 855h149v-991h-263v176h114v815z" />
    <glyph glyph-name="uni520A" unicode="&#x520a;" 
d="M514 778h139v-666h-139v666zM347 443h120v-176h-120v-400h-148v400h-137v176h137v203h-104v176h360v-176h-108v-203zM715 855h148v-991h-256v176h108v815z" />
    <glyph glyph-name="uni520D" unicode="&#x520d;" 
d="M852 528v-671h-734v171h577v91h-533v157h533v83h-556v120l-65 49l256 334l106 -81h332v-151l-65 -102h149zM573 613h-223l-65 -85h234z" />
    <glyph glyph-name="uni520E" unicode="&#x520e;" 
d="M541 731v-858h-221v169h94v242l-231 -426l-99 53l330 609v44h-29l-218 -425l-95 49l193 376h-33l-63 -123l-114 58l187 363l113 -59l-37 -72h223zM582 769h110v-660h-110v660zM742 845h129v-983h-222v177h93v806z" />
    <glyph glyph-name="uni5211" unicode="&#x5211;" 
d="M538 785h127v-673h-127v673zM726 37v818h132v-990h-227v172h95zM117 274h-50v165h63l17 212h-55v168h398v-168h-36v-212h53v-165h-53v-396h-128v396h-81l-33 -406l-127 11zM258 439h68v212h-51z" />
    <glyph glyph-name="uni5212" unicode="&#x5212;" 
d="M571 784h123v-673h-123v673zM229 261l-39 190l-97 -13l-22 163l86 12l-44 221l120 25l47 -230l141 19l-108 129l92 77l112 -134l-84 -70l89 12l22 -164l-232 -31l23 -110l107 96l103 -114l-175 -158l31 -153l146 30l28 -143l-265 -54l-46 225l-123 -111l-103 114zM756 36
v818h131v-990h-228v172h97z" />
    <glyph glyph-name="uni5216" unicode="&#x5216;" 
d="M510 790h137v-667h-137v667zM209 -135l-140 5l32 979l62 -2h298v-980h-178v178h37v131h-101zM321 333v94h-93l-3 -94h96zM320 673h-84l-3 -94h87v94zM707 39v816h149v-988h-258v172h109z" />
    <glyph glyph-name="uni5217" unicode="&#x5217;" 
d="M560 787h131v-665h-131v665zM747 46v816h142v-988h-242v172h100zM36 247l173 420h-103v170h419v-170h-177l-32 -77h197v-174l-278 -558l-123 62l131 263l-71 57l-17 -42zM252 434l-16 -39l80 -65l52 104h-116z" />
    <glyph glyph-name="uni5218" unicode="&#x5218;" 
d="M526 779h130v-664h-130v664zM269 397l71 165h-267v174h138v108h144v-108h137v-174l-128 -297l180 -249l-127 -91l-125 174l-98 -226l-128 56l131 302l-136 189l126 91zM723 38v816h142v-988h-255v172h113z" />
    <glyph glyph-name="uni5219" unicode="&#x5219;" 
d="M656 126h-115v661h115v-661zM844 865v-988h-265v172h134v816h131zM198 164h-117v674h407v-672h-112v511h-178v-513zM340 219l180 -299l-98 -59l-131 220l-85 -227l-106 40l127 342v409h113v-426z" />
    <glyph glyph-name="uni521A" unicode="&#x521a;" 
d="M583 775h110v-661h-110v661zM185 -136h-119v966h476v-968h-180v149h61v58l-64 -23l-49 141l-53 -135l-72 28v-216zM254 347l-69 196v-373zM423 196v284l-52 -135zM185 676v-58l80 28l50 -141l56 144l52 -21v48h-238zM737 36v822h122v-993h-228v171h106z" />
    <glyph glyph-name="uni521B" unicode="&#x521b;" 
d="M35 553l285 307l245 -227v132h128v-664h-128v423l-40 -43l-23 22v-388h-180v146h59v116h-116v-344h296v-159h-424v585zM337 656l-115 -124h248zM760 31v818h131v-990h-228v172h97z" />
    <glyph glyph-name="uni521D" unicode="&#x521d;" 
d="M531 632h-102v182h458v-933h-271v184h113v567h-58l-131 -757l-137 23zM38 262l180 335h-118v164h68v91h140v-91h76v-164l-76 -142v-69l84 126l97 -65l-86 -128l64 -43l-81 -121l-78 52v-339h-135v334l-6 -10z" />
    <glyph glyph-name="uni5220" unicode="&#x5220;" 
d="M80 298h-29v166h33l9 327v49h224v-376h30l8 349v27h220v-376h19v-166h-19v-424h-118v158h27v266h-51l-11 -421l-91 3l11 418h-25v-424h-107v158h21v266h-60l-11 -421l-91 3zM437 464h47v215h-41zM175 464h56v215h-50zM622 773h93v-659h-93v659zM762 32v819h112v-982h-205
v163h93z" />
    <glyph glyph-name="uni5224" unicode="&#x5224;" 
d="M686 121h-121v660h121v-660zM872 850v-990h-249v174h119v816h130zM380 666l-17 -159h158v-160h-174l-7 -69h188v-166h-206l-26 -253l-132 14l25 239h-126v166h143l7 69h-116v160h133l37 354l131 -14l-9 -92l56 29l105 -194l-101 -54zM157 536l-103 49l94 199l103 -48z
" />
    <glyph glyph-name="uni5228" unicode="&#x5228;" 
d="M579 766h110v-660h-110v660zM301 819l-15 -40h239v-671h-118v508h-180l-24 -63h163v-405h-151v-117h212v36h137v-201h-467v652l-43 16l121 331zM215 391v-86h52v86h-52zM738 844h134v-990h-249v174h115v816z" />
    <glyph glyph-name="uni5229" unicode="&#x5229;" 
d="M747 856h144v-990h-249v174h105v816zM160 15l-125 72l194 338h-126v163h138v81l-117 -8l-11 162l379 27l11 -162l-114 -9v-91h121v-163h-121v-118l46 45l114 -119v545h135v-672h-135v33l-75 -72l-85 90v-293h-148v290z" />
    <glyph glyph-name="uni522B" unicode="&#x522b;" 
d="M552 776h121v-662h-121v662zM292 438l-9 -69h224v-497h-214v173h75v156h-108l-47 -341l-120 17l45 325h-80v167h103l10 69h-75v397h405v-397h-209zM227 591h138v89h-138v-89zM726 859h141v-990h-241v173h100v817z" />
    <glyph glyph-name="uni522D" unicode="&#x522d;" 
d="M541 771h129v-671h-129v671zM67 -122l-14 166l161 14v117h-119v167h397v-167h-127v-105l143 12l14 -166zM68 460l215 198h-190v166h388v-166l-92 -85l133 -80l-78 -128l-170 103l-115 -106zM735 855h137v-990h-244v172h107v818z" />
    <glyph glyph-name="uni522E" unicode="&#x522e;" 
d="M549 774h125v-661h-125v661zM738 857h133v-995h-228v172h95v823zM508 411h-146v-85h126v-434h-391v434h125v85h-167v173h167v83l-130 -8l-9 161l400 24l9 -161l-130 -8v-91h146v-173zM353 159h-120v-100h120v100z" />
    <glyph glyph-name="uni5230" unicode="&#x5230;" 
d="M871 -137h-248v172h111v821h137v-993zM233 71v79h-141v158h141v77l-149 -12l-11 146l28 2l87 151h-109v163h440v-163h-181l-79 -138l103 8l-27 47l106 61l56 -97h1l1 -3l58 -100v333h122v-671h-122v304l-92 -53l-22 38l-70 -5v-88h139v-158h-139v-71l153 9l10 -167
l-471 -28l-10 167z" />
    <glyph glyph-name="uni5233" unicode="&#x5233;" 
d="M574 767h123v-667h-123v667zM741 843h138v-990h-260v172h122v818zM573 444l-95 -65l-27 39h-276v11l-23 -49l-105 50l94 199h-49v155h122l45 94l105 -50l-21 -43h192v-156h-89zM370 535l-64 94h-36l-44 -94h144zM272 228v-49h234v-337h-282v155h135v62h-237v169h-35v144
h447v-144h-262z" />
    <glyph glyph-name="uni5236" unicode="&#x5236;" 
d="M577 787h116v-675h-116v675zM396 402v-52h140v-435h-109v264h-45v-322h-127v322h-45v-270h-119v441h164v52h-200v156h200v61h-65l-6 -46l-113 14l32 254l113 -15l-7 -58h46v94h141v-94h139v-149h-139v-61h148v-156h-148zM742 855h128v-987h-227v171h99v816z" />
    <glyph glyph-name="uni5237" unicode="&#x5237;" 
d="M601 781h106v-674h-106v674zM742 855h124v-991h-228v172h104v819zM107 840h453v-333h-351l-31 -588l-119 6l48 914v1zM435 702h-216l-3 -68h219v68zM484 -79v357h-44v-414h-106v414h-35v-352h-82v504h117v58h106v-58h130v-509h-86z" />
    <glyph glyph-name="uni5238" unicode="&#x5238;" 
d="M390 577l-29 -54h498v-148h-129l163 -164l-101 -100l-68 69v-316h-251v172h93v120h-119l-233 -301l-119 93l162 208h-56v64l-51 -96l-111 58l102 193h-85v148h163l29 54h-68l-17 -29l-130 75l136 236l130 -75l-40 -70h61l80 151l111 -58l-49 -93h177l-40 70l130 75
l136 -236l-131 -75l-16 29h-328zM283 375l-38 -72h355l-72 72h-245z" />
    <glyph glyph-name="uni5239" unicode="&#x5239;" 
d="M580 776h112v-663h-112v663zM744 852h133v-991h-228v172h95v819zM57 540l147 111l-125 100l85 107l152 -121l155 118l83 -109l-128 -97l144 -115l-85 -107l-171 137l-174 -133zM48 -50l85 251l104 -35l-85 -251zM483 202l105 -242l-101 -44l-98 229v-284h-162v133h37v238
h-190v169h190v71h125v-71h156v-169h-156v-70z" />
    <glyph glyph-name="uni523A" unicode="&#x523a;" 
d="M600 782h114v-667h-114v667zM666 -132v172h98v818h130v-990h-228zM144 -113l-113 100l184 211h-93v383h150v57h-168v153h168v71h139v-71h151v-153h-151v-57h146v-390h-98v251h-48v-321l56 64l154 -135l-93 -107l-118 103v-189h-138v176zM226 210l46 53v179h-46v-232z" />
    <glyph glyph-name="uni523B" unicode="&#x523b;" 
d="M564 797h121v-686h-121v686zM749 853h126v-985h-228v171h102v814zM139 109l-88 77l157 178l-128 113l115 131h-116v158h154v87h153v-87h144v-158h-182l-119 -134l43 -38l144 163l88 -77zM532 299l-132 -150l167 -147l-108 -122l-167 148l-142 -162l-90 79l383 433z" />
    <glyph glyph-name="uni523D" unicode="&#x523d;" 
d="M100 13l103 168h-107v150h465v-150h-206l-88 -145l125 17l-31 67l117 54l120 -257l-117 -55l-23 49l-337 -46zM140 428l-111 91l289 354l278 -227v109h119v-658h-119v464l-52 -63l-42 34v-135h-316v87zM336 668l-104 -128h260zM771 837h126v-990h-228v171h102v819z" />
    <glyph glyph-name="uni523F" unicode="&#x523f;" 
d="M585 783h110v-665h-110v665zM880 -126h-228v171h95v818h133v-989zM156 171l-110 59l166 306h-105v266h112v-110h47v170h124v-170h48v110h111v-266h-195l-35 -66h214v-213l-331 -400l-106 88l155 187l-77 71zM241 326l-1 -1l97 -90l75 91h-171z" />
    <glyph glyph-name="uni5240" unicode="&#x5240;" 
d="M555 769h116v-663h-116v663zM175 791v-100h57v166h123v-166h45v104h109v-257h-440v253h106zM362 289v57h-284v140h417v-333h-255v-99l252 30l18 -152l-423 -51l-19 152l33 4v252h261zM724 852h133v-990h-228v172h95v818z" />
    <glyph glyph-name="uni5241" unicode="&#x5241;" 
d="M579 780h119v-667h-119v667zM142 -68l-104 88l180 214h-126v161h157v73h137v-73h151v-161h-151v-82l57 53l146 -158l-103 -95l-100 109v-195h-137v193zM361 694h-100l-43 -234l-133 24l66 363h325v-217h66v-158h-181v222zM650 37h106v818h131v-990h-237v172z" />
    <glyph glyph-name="uni5242" unicode="&#x5242;" 
d="M579 776h116v-662h-116v662zM750 857h131v-991h-228v172h97v819zM139 199l-94 90l142 149l-104 65l77 121h-77v161h156v67h163v-67h145v-161l-142 -148l174 -110l-80 -126l-16 10v-379h-126v398h96l-153 97l-92 -95l90 -15l-68 -393l-123 21l58 342zM292 548l73 76h-193z
" />
    </font>
</defs>
</svg>
